<svg xmlns="http://www.w3.org/2000/svg" width="32" height="32" fill="none"><g clip-path="url(#clip0_662_17093)"><path fill="#fff" d="m31.693 13.363-3.149-.281c-.32-1.37-.87-2.676-1.613-3.866l2.023-2.432a.3.3 0 0 0 .09-.218.35.35 0 0 0-.103-.243L25.69 3.072c-.128-.128-.32-.14-.448-.026L22.797 5.07a12.555 12.555 0 0 0-3.879-1.6L18.637.32C18.61.14 18.47 0 18.304 0h-4.608c-.166 0-.307.14-.333.32l-.281 3.149c-1.37.307-2.688.857-3.879 1.6L6.758 3.046a.34.34 0 0 0-.204-.076c-.09 0-.18.025-.244.09L3.06 6.31a.353.353 0 0 0-.014.474L5.07 9.216a12.565 12.565 0 0 0-1.613 3.866l-3.149.281A.346.346 0 0 0 0 13.71v4.595c0 .18.128.32.307.346l3.149.281c.32 1.37.87 2.675 1.613 3.866l-2.023 2.432s-.09.14-.09.217c0 .09.04.18.103.244l3.251 3.264c.128.115.32.128.448 0l2.445-2.023a12.555 12.555 0 0 0 3.879 1.6l.281 3.149c.026.18.167.32.333.307h4.608c.166.013.307-.128.333-.307l.281-3.149c1.37-.32 2.688-.857 3.879-1.6l2.445 2.023c.128.115.32.102.448 0l3.25-3.252a.353.353 0 0 0 .014-.473l-2.023-2.432a12.697 12.697 0 0 0 1.613-3.866l3.149-.281a.346.346 0 0 0 .307-.346v-4.595c0-.18-.128-.32-.307-.346Zm-9.6 6.157L16 23.04l-6.093-3.52v-7.04L16 8.96l6.093 3.52v7.04Z"></path></g><defs><clipPath id="clip0_662_17093"><path fill="#fff" d="M0 0h32v32H0z"></path></clipPath></defs></svg>