<svg xmlns="http://www.w3.org/2000/svg" viewBox="0 0 295.86 424.09">
  <path className="head-mask" fill="#fff" d="M171.53 85.15c.02-.11.05-.22.07-.33.16-.73.33-1.46.46-2.19.66-3.67 1-7.43 1-11.24 0-3.44-.28-6.81-.82-10.1a61.936 61.936 0 0 0-10.83-26.16V11.34c0-6.26-5.08-11.34-11.34-11.34v23.04c-10.76-8.8-24.5-14.08-39.46-14.08s-28.69 5.28-39.44 14.08V0c-6.26 0-11.34 5.08-11.34 11.34v23.79c-.61.83-1.18 1.68-1.74 2.55a61.934 61.934 0 0 0-8.95 22.8v.02c-.63 3.54-.96 7.18-.96 10.89s.34 7.59 1.01 11.28c2.26 12.48 8.26 23.94 17.46 33.05l3.69 3.65 5.5-4.64 1.28 3.48 1.38 3.76 2.44 6.64 1.54 4.21.96 2.6c.42.31.96.71 1.62 1.16 4.2 2.88 13.15 7.92 25.43 8h.29c.45 0 .9-.01 1.35-.02.58-.02 1.15-.05 1.72-.09.17 0 .33-.02.5-.04.61-.04 1.21-.1 1.8-.18.39-.04.78-.09 1.16-.15.38-.05.76-.11 1.13-.18.53-.09 1.05-.19 1.57-.3.26-.06.52-.11.78-.17.1-.02.2-.05.29-.07.35-.08.68-.17 1.02-.26.34-.08.67-.17 1-.27.65-.19 1.29-.38 1.9-.59.31-.1.62-.21.93-.32.51-.18 1.01-.37 1.5-.57l.09-.03c.53-.21 1.04-.43 1.53-.64.31-.14.61-.28.91-.42.3-.14.59-.28.88-.42.24-.11.48-.23.71-.36.94-.47 1.79-.95 2.56-1.41a42.636 42.636 0 0 0 3.98-2.67l.86-2.6 1.39-4.21 2.2-6.64 1.24-3.76 1.22-3.68 4.48 3.78 1.37 1.16.18-.18 3.5-3.47a62.273 62.273 0 0 0 12.05-16.68c.05-.1.1-.2.15-.31.34-.69.66-1.38.97-2.08.07-.16.15-.31.22-.47.06-.14.11-.28.17-.42.32-.76.63-1.53.92-2.3l.42-1.14c.28-.78.54-1.57.79-2.37.04-.14.1-.27.14-.41.06-.2.11-.41.17-.61.19-.66.37-1.31.54-1.98.16-.63.32-1.27.46-1.91Zm-48.7 31.06-1.11.53 1.11-.53Zm-39.92-7.45 1.26.6-1.26-.6Zm19.64 9.45-12.01-5.78-1.42-.68 13.43 6.46 7.82 3.76-7.82-3.76Z"></path>
</svg>
