<svg xmlns="http://www.w3.org/2000/svg" viewBox="0 0 210.04 206.97">
  <path className="legs-mask" fill="#fff" d="m69.78 200.06-22.63-.89-.26 6.66 29.24 1.15v-.04c.15-3.65-2.7-6.73-6.35-6.88ZM122.38 199.58h-17.96l15.65-.09-.1-16.44a9.515 9.515 0 0 0-2.45-6.34v-10.64h-3.65c-.11 0-.43 0-.93-.01h-1.34c-.82 0-1.84-.01-3.01-.02l-6.56-.05v10.8a9.532 9.532 0 0 0-2.39 6.39l.1 16.41v6.66H129v-.04c0-3.66-2.96-6.62-6.62-6.62ZM68.12 183.54c.1-2.48-.76-4.77-2.24-6.54v-.02l.05-1.26.16-4.01.11-2.84.16-4 .02-.62c-.53.11-1.06.16-1.61.16h-.24c-4.86-.1-9.45-1.28-13.54-3.3l-.14 3.76-.16 4-.11 2.84-.16 4-.03.84a9.61 9.61 0 0 0-2.59 6.18l-.64 16.42 20.32.8.64-16.42ZM155.72 199.62h-2.34l-.1-16.38c-.01-2.4-.91-4.58-2.37-6.25v-16.27c-1.06.7-2.15 1.34-3.29 1.92-.38.19-.76.37-1.15.55a33.18 33.18 0 0 1-4.63 1.69c-2.06.58-4.21.95-6.42 1.11v10.89a9.512 9.512 0 0 0-2.47 6.48l.1 16.44h.03v6.49h29.26v-.04c0-3.66-2.96-6.62-6.62-6.62Z"></path>
</svg>
