<svg xmlns="http://www.w3.org/2000/svg" viewBox="0 0 210.04 206.97">
  <path className="head-mask" fill="#fff" d="M210.03 75.47a7.802 7.802 0 0 0-7.47-8.12 7.78 7.78 0 0 0-6.71 3.33c-.45-.07-.91-.11-1.37-.13l-7.31-.3.53-12.77c.03-.8.08-1.75.14-2.84.09-1.65.11-1.71.2-3.35.17-3.14.26-4.75.18-6.22.03-.8-.02-1.59-.14-2.35-.52-3.45-2.49-6.45-5.29-8.31-3.12-16.15-7.8-32.55-14.08-32.81-6.04-.25-11.85 14.53-16.24 29.76l-12.45-.52C136.46 14.75 131.53.27 125.2 0c-8.19-.34-16.02 23.23-21.25 43.5-2.12 8.22 1.23 16.33 7.49 20.93 1.38 11.51 8.38 21.4 18.28 26.67-.3 1.47-.6 2.93-.91 4.4 0 .02-.01.05-.02.07l-.8 3.93c-.08.38-.16.75-.23 1.13h-.01v.03h5.32a30.12 30.12 0 0 1 3.32.17c.82.08 1.63.2 2.43.34.53.09 1.06.2 1.59.33a32.783 32.783 0 0 1 4.58 1.43c3.46 1.38 6.64 3.34 9.4 5.77.57.48 1.12 1 1.66 1.54.24.25.49.5.71.75h.01c.18.19.35.38.53.58.24.27.47.54.69.81a31.872 31.872 0 0 1 1.8 2.37c.12.16.23.32.33.49.13.19.25.38.38.58.12.19.24.39.36.59.26.43.51.87.76 1.31 0 .01.01.02.02.03.01.04.04.08.06.12.18.34.35.68.52 1.03l.3.63c.12.26.24.52.35.78.3.69.58 1.39.83 2.11.13.35.25.71.36 1.08.23.73.43 1.46.61 2.21l.12.53.12.54v.02l.78-12.88.12-2.03c.01-.19.06-.94.11-1.98.11-1.71.26-4.2.38-6.16.02-.37.04-.72.06-1.04s.04-.62.05-.88l.12-2v-.07c.08-1.24.16-2.46.23-3.7l4.14.17-.02.42c-.19 4.54 3.34 8.38 7.89 8.57s8.38-3.34 8.57-7.89l.02-.42 6 .25c7.35.3 13.56-5.41 13.86-12.76.04-1.06-.05-2.09-.24-3.08a7.773 7.773 0 0 0 3.04-5.86Z"></path>
</svg>
