<svg xmlns="http://www.w3.org/2000/svg" viewBox="0 0 273.63 383.69">
  <path className="body-mask" fill="#fff" d="M258.71 192.42c-.28-4.58-2.72-8.36-6.29-10.51-1.13-8.62-3.47-16.36-6.99-23.16.27-1 .43-2.04.43-3.13 0-6.53-5.26-11.83-11.77-11.9-.72-.67-1.45-1.33-2.21-1.97-9.68-8.1-21.21-12.16-31.86-14.07v-.02c-.46-7.71-7.87-14.04-17.18-14.04H112.8c-8.47 0-15.37 5.25-16.88 12.01l-18.37 47.82c-1.67.11-3.25.56-4.66 1.3l-26.68-19.88c.15-2.75-.58-5.51-2.16-7.89 1.99-10.09-1.71-20.92-10.44-27.55l-11.59 15.25c4.07 3.09 4.53 8.31 1.65 12.1-2.88 3.79-8.03 4.74-12.1 1.65L0 163.67c8.42 6.4 19.34 7.24 28.35 3.14 3.5 1.29 7.25 1.01 10.46-.63l27.75 20.69c.76 5.84 5.75 10.36 11.8 10.36 6.58 0 11.91-5.33 11.91-11.91 0-1.69-.36-3.29-.99-4.74l9.58-24.95 6.12 49.63c.33 2.7 2.97 4.74 6.12 4.74h24.8v40.83h23.75V210H184.55c.61 0 1.19-.08 1.75-.22 2.33-.59 4.1-2.35 4.37-4.52l7.56-61.33c8.02 1.55 16.42 4.61 23.26 10.36.21.18.4.37.61.55-.02.26-.04.52-.04.78 0 5.71 4.02 10.47 9.37 11.63 2.33 4.79 3.92 10.26 4.76 16.35-2.43 2.3-3.96 5.55-4.07 9.29-7.96 4.55-13.52 12.92-14.02 22.73l19.13.97c.26-5.1 4.3-8.43 9.06-8.19 4.75.24 8.45 3.96 8.19 9.06l19.13.97c.56-11.16-5.58-21.14-14.88-26.02Z"></path>
</svg>