<svg xmlns="http://www.w3.org/2000/svg" viewBox="0 0 192.51 289.53">
  <path className="head-mask" fill="#fff" d="M175.13 39.5a5.15 5.15 0 0 0-4.76 3.18h-11.82c-.09-1.68-.3-3.32-.6-4.93l-.06-.31c-.08-.4-.17-.8-.27-1.2l-.12-.54c-.09-.36-.19-.71-.29-1.07l-.18-.64c-.1-.33-.21-.66-.32-.99-.08-.23-.15-.46-.23-.68-.11-.31-.23-.62-.35-.93-.09-.23-.18-.47-.28-.7-.12-.3-.25-.59-.38-.89-.1-.24-.21-.47-.32-.7-.13-.29-.27-.57-.42-.86-.12-.23-.23-.46-.35-.69-.15-.28-.3-.56-.45-.83-.13-.23-.26-.45-.39-.67-.16-.27-.32-.54-.49-.81-.13-.22-.27-.43-.41-.64-.17-.27-.35-.53-.53-.8l-.43-.61c-.19-.26-.38-.53-.58-.79-.14-.19-.29-.37-.44-.56-.21-.26-.42-.53-.64-.79-.14-.16-.28-.33-.42-.49-.24-.27-.47-.54-.71-.81-.12-.13-.24-.25-.36-.38-.27-.29-.55-.58-.83-.86-.07-.07-.14-.13-.21-.2a37.066 37.066 0 0 0-6.33-4.95s-.01 0-.02-.01c-.44-.27-.88-.53-1.33-.78a.913.913 0 0 1-.13-.08c-.43-.24-.87-.47-1.32-.69-.06-.03-.13-.07-.19-.1-.44-.22-.88-.42-1.33-.62-.07-.03-.14-.07-.22-.1-.45-.2-.9-.38-1.35-.56-.07-.03-.15-.06-.22-.09-.46-.18-.92-.34-1.39-.5-.07-.02-.14-.05-.22-.07-.47-.16-.95-.31-1.43-.44l-.2-.06c-.49-.14-.99-.27-1.49-.39-.05-.01-.1-.02-.15-.04-.52-.12-1.04-.23-1.57-.33-.03 0-.06-.01-.09-.02-.55-.1-1.1-.19-1.66-.27-1.15-.16-2.32-.26-3.5-.31l-1.87-4.26A6.155 6.155 0 0 0 115.86 0H76.69c-2.44 0-4.65 1.44-5.63 3.67l-1.87 4.26c-18.95.76-34.2 15.86-35.2 34.75H23.02a5.155 5.155 0 0 0-4.76-3.18c-2.84 0-5.15 2.31-5.15 5.15s2.31 5.15 5.15 5.15a5.15 5.15 0 0 0 4.76-3.18h10.97c1.03 19.39 17.07 34.79 36.71 34.79h9.04v17.21c3.82 1.23 9.53 2.59 16.54 2.59s12.72-1.36 16.54-2.59V81.41h9.04c.3 0 .6-.02.9-.02.32 0 .63 0 .95-.02.28-.01.56-.04.85-.06.33-.02.66-.04.99-.08.28-.03.55-.07.83-.1.33-.04.66-.08.99-.13.27-.04.54-.09.81-.14.33-.06.65-.11.98-.17.26-.05.52-.12.79-.18.32-.07.65-.14.97-.22.26-.06.51-.14.76-.21l.96-.27c.25-.08.49-.16.74-.24.32-.1.63-.21.95-.32l.72-.27c.31-.12.62-.24.93-.37.24-.1.47-.2.7-.31.3-.13.61-.27.91-.41.23-.11.46-.22.68-.34.3-.15.59-.3.88-.45.22-.12.44-.24.67-.37a23.946 23.946 0 0 0 1.51-.89c.28-.18.56-.35.83-.53.21-.14.42-.28.62-.43.27-.19.54-.38.8-.57.2-.15.41-.3.61-.46.26-.2.51-.4.77-.6.2-.16.4-.33.59-.49.25-.21.49-.42.73-.63.19-.17.39-.35.58-.53.23-.22.46-.43.69-.66.19-.18.38-.37.56-.56.22-.22.43-.45.65-.68.18-.2.37-.4.54-.6l.6-.69c.18-.21.36-.42.53-.64.19-.23.37-.47.55-.71.17-.22.35-.45.51-.68.17-.23.34-.47.51-.71.17-.24.34-.48.5-.72.15-.23.3-.47.45-.71.16-.26.33-.52.48-.78.14-.23.27-.46.4-.69.16-.28.32-.56.47-.84.12-.22.23-.44.34-.66.15-.3.31-.6.45-.91.1-.21.19-.41.28-.62.15-.33.3-.66.44-.99.08-.18.15-.37.22-.56.14-.36.29-.73.42-1.1l.15-.45c.14-.41.28-.82.41-1.24.03-.09.05-.19.08-.28.81-2.72 1.31-5.56 1.47-8.5h11.83a5.155 5.155 0 0 0 4.76 3.18c2.84 0 5.15-2.31 5.15-5.15s-2.31-5.15-5.15-5.15Z"></path>
</svg>
