<svg xmlns="http://www.w3.org/2000/svg" id="Robot-1" viewBox="0 0 225.53 341.04">
  <g class="body"><rect width="130.46" height="113.57" x="47.56" y="171.18" fill="#b7c5cd" rx="5.67" ry="5.67"></rect><path fill="#102f42" d="M25.94 283.13H9.64c0-63.83 37.53-97.43 39.13-98.83l10.75 12.26-5.37-6.12 5.39 6.11c-.08.08-8.55 7.66-16.87 22.12-11.09 19.27-16.72 40.2-16.72 64.46Z"></path><path fill="#184663" d="m25.95 281.6-16.3-.18c.01-.96.03-1.92.06-2.86l16.29.47c-.02.85-.04 1.71-.05 2.57Zm2.17-22.94-16.04-2.91c.17-.95.35-1.9.54-2.83l15.98 3.23c-.17.83-.33 1.66-.48 2.51Zm6.11-22.11-15.25-5.76c.34-.91.69-1.8 1.04-2.68l15.13 6.06c-.31.78-.62 1.58-.93 2.38Zm10.04-20.58-13.91-8.5c.52-.84 1.03-1.66 1.54-2.46l13.72 8.81c-.45.7-.9 1.41-1.35 2.15Z"></path><circle cx="17" cy="284.74" r="17" fill="#438bfd"></circle><path fill="#adbac2" d="m178.01 185.45-.46-.43c.13.14.29.29.46.45v93.61c0 3.13-2.53 5.67-5.66 5.67h-42.57V171.19h42.57c3.13 0 5.66 2.53 5.66 5.67v8.59Z"></path><path fill="#102f42" d="M199.59 283.13h16.3c0-63.83-37.53-97.43-39.13-98.83l-10.75 12.26 5.37-6.12-5.39 6.11c.08.08 8.55 7.66 16.87 22.12 11.09 19.27 16.72 40.2 16.72 64.46Z"></path><path fill="#184663" d="m199.59 281.6 16.3-.18c-.01-.96-.03-1.92-.06-2.86l-16.29.47c.02.85.04 1.71.05 2.57Zm-2.17-22.94 16.04-2.91c-.17-.95-.35-1.9-.54-2.83l-15.98 3.23c.17.83.33 1.66.48 2.51Zm-6.11-22.11 15.25-5.76c-.34-.91-.69-1.8-1.04-2.68l-15.13 6.06c.31.78.62 1.58.93 2.38Zm-10.04-20.58 13.91-8.5c-.52-.84-1.03-1.66-1.54-2.46l-13.72 8.81c.45.7.9 1.41 1.35 2.15Z"></path><path fill="#5d9bfd" d="M17 297.61c-7.1 0-12.87-5.77-12.87-12.87 0-1.66 1.34-3 3-3s3 1.34 3 3c0 3.79 3.08 6.87 6.87 6.87 1.66 0 3 1.34 3 3s-1.34 3-3 3Z"></path><circle cx="208.53" cy="284.74" r="17" fill="#438bfd"></circle><path fill="#5d9bfd" d="M208.53 297.61c-7.1 0-12.87-5.77-12.87-12.87 0-1.66 1.34-3 3-3s3 1.34 3 3c0 3.79 3.08 6.87 6.87 6.87 1.66 0 3 1.34 3 3s-1.34 3-3 3Z"></path><path fill="#cfd8de" d="M63.25 233.72h.84c3.68 0 6.67 2.99 6.67 6.67v29.12c0 3.68-2.99 6.67-6.67 6.67h-.84c-3.68 0-6.67-2.99-6.67-6.67v-29.12c0-3.68 2.99-6.67 6.67-6.67Z"></path><circle cx="53.75" cy="190.19" r="20.05" fill="#438bfd"></circle><path fill="#5d9bfd" d="M53.75 204.83c-8.07 0-14.64-6.57-14.64-14.64 0-1.66 1.34-3 3-3s3 1.34 3 3c0 4.77 3.88 8.64 8.64 8.64 1.66 0 3 1.34 3 3s-1.34 3-3 3Z"></path><circle cx="174.72" cy="190.19" r="20.05" fill="#438bfd"></circle><path fill="#5d9bfd" d="M174.72 204.83c-8.07 0-14.64-6.57-14.64-14.64 0-1.66 1.34-3 3-3s3 1.34 3 3c0 4.77 3.88 8.64 8.64 8.64 1.66 0 3 1.34 3 3s-1.34 3-3 3Z"></path></g>
  <g class="legs"><path fill="#102f42" d="M138 293.73c0 7.62-.24 15.82-.84 24.53-.51 7.3-4.18 13.68-9.63 17.81-1.24.95-2.58 1.78-4 2.47a24.47 24.47 0 0 1-8.47 2.4c-.75.06-1.52.1-2.29.1-.58 0-1.15-.02-1.71-.07-3-.2-5.85-.95-8.46-2.14-1.41-.65-2.75-1.43-4-2.33a24.575 24.575 0 0 1-10.22-18.31c-.53-7.72-.84-15.89-.84-24.46 0-2.91.04-5.91.12-8.99h50.22c.08 2.94.12 5.94.12 8.99Z"></path><path fill="#184663" d="M102.6 284.74v54.09c-1.41-.65-2.75-1.43-4-2.33v-51.76h4ZM115.06 284.74v56.2c-.75.06-1.52.1-2.29.1-.58 0-1.15-.02-1.71-.07v-56.23h4ZM127.53 284.74v51.33c-1.24.95-2.58 1.78-4 2.47v-53.8h4Z"></path></g>
  <path class="head-mask" fill="#fff" d="M183.1 80.95c-1.21-.46-2.52-.72-3.89-.72h-.78V57.35c0-.31-.03-.62-.09-.92a5.456 5.456 0 0 0-.25-.93 4.533 4.533 0 0 0-.4-.89c-.11-.2-.24-.39-.38-.58l-.18-.24c-.92-1.12-2.26-1.9-3.78-2.05h-31.93v-5.35c0-3.2-2.59-5.79-5.79-5.79h-19.34V23.01c4.79-1.49 8.27-5.96 8.27-11.24 0-6.5-5.27-11.77-11.77-11.77s-11.77 5.27-11.77 11.77c0 5.28 3.48 9.75 8.27 11.24v17.6H89.95c-3.2 0-5.79 2.59-5.79 5.79v5.35H52.81c-3.13 0-5.67 2.54-5.67 5.67v22.82h-1.08c-1.37 0-2.68.26-3.89.72a11.03 11.03 0 0 0-7.15 10.33v25.91c0 4.73 2.98 8.75 7.15 10.33 1.21.46 2.52.72 3.89.72h1.08v22.82c0 3.13 2.54 5.67 5.67 5.67h49.93v6.96H89.95c-3.2 0-5.79 2.59-5.79 5.79v1.73h57.25v-1.73c0-3.2-2.59-5.79-5.79-5.79h-12.79v-6.96h49.93c1 0 1.94-.26 2.76-.72a5.654 5.654 0 0 0 2.91-4.95v-22.82h.78c1.37 0 2.68-.26 3.89-.72a11.03 11.03 0 0 0 7.15-10.33V91.29c0-4.73-2.98-8.75-7.15-10.33Z"></path>
</svg>