<svg xmlns="http://www.w3.org/2000/svg" viewBox="0 0 273.63 383.69">
  <path className="legs-mask" fill="#fff" d="M135.71 361.71v-6.05c0-1.02-.4-1.95-1.04-2.65v-.02c.06-4.74.12-9.5.17-14.24.02-1.25.03-2.51.05-3.77.08-7.06.17-14.12.25-21.18.02-1.25.03-2.51.05-3.77.08-7.06.16-14.12.25-21.18.01-1.25.03-2.5.04-3.76.09-7.06.17-14.12.26-21.19.01-1.25.03-2.51.04-3.76.03-2.77.07-5.54.1-8.31h.01v-41.84h-24.8c-.36 0-.71-.03-1.05-.08l.74 8.93c-6.96 0-12.46 5.67-12.46 12.43 0 .52.03 1.04.1 1.57l.29 2.35.48 3.76 1.61 12.88.99 8.31c.14 1.15.29 2.41.45 3.76.68 5.68 1.55 13.01 2.53 21.19.14 1.23.29 2.49.45 3.76.79 6.73 1.65 13.92 2.52 21.18.14 1.26.29 2.51.44 3.77.85 7.19 1.71 14.38 2.51 21.18.15 1.27.3 2.53.45 3.77.59 4.99 1.15 9.71 1.66 13.99-.79.72-1.29 1.75-1.29 2.91v4.01H93.86c-6.33 0-11.5 5.18-11.5 11.5v1.03c0 6.33 5.18 11.5 11.5 11.5h35.34c6.33 0 11.5-5.18 11.5-11.5v-1.03c0-3.91-1.98-7.38-4.98-9.46ZM201.69 359.67h-17.65v-4.01c0-1.15-.5-2.18-1.29-2.9v-.02c.55-4.66 1.1-9.33 1.64-13.99l.45-3.77 2.49-21.18c.15-1.26.3-2.51.44-3.77l2.49-21.18c.15-1.25.3-2.51.44-3.76l2.49-21.19c.15-1.25.3-2.51.44-3.76.33-2.77.65-5.54.98-8.31l1.68-12.88.48-3.76.4-3.04c.89-7.07-4.62-13.31-11.74-13.31l.75-9.04-26.54.19v41.84h.02c.03 2.77.07 5.54.1 8.31.01 1.25.03 2.51.04 3.76.09 7.07.17 14.13.25 21.19.02 1.26.03 2.51.05 3.76.08 7.06.16 14.12.25 21.18.01 1.26.03 2.52.04 3.77.09 7.06.17 14.12.25 21.18.02 1.26.03 2.52.05 3.77.06 4.75.11 9.5.17 14.25 0 0-.01 0 0 .01v.01c-.63.7-1.03 1.62-1.03 2.64v6.05c-3 2.08-4.98 5.55-4.98 9.46v1.03c0 6.33 5.18 11.5 11.5 11.5h35.34c6.33 0 11.5-5.18 11.5-11.5v-1.03c0-6.33-5.18-11.5-11.5-11.5Z"></path>
</svg>