<svg xmlns="http://www.w3.org/2000/svg" viewBox="0 0 225.53 341.04">
  <path fill="#fff" d="M183.1 80.95c-1.21-.46-2.52-.72-3.89-.72h-.78V57.35c0-.31-.03-.62-.09-.92a5.456 5.456 0 0 0-.25-.93 4.533 4.533 0 0 0-.4-.89c-.11-.2-.24-.39-.38-.58l-.18-.24c-.92-1.12-2.26-1.9-3.78-2.05h-31.93v-5.35c0-3.2-2.59-5.79-5.79-5.79h-19.34V23.01c4.79-1.49 8.27-5.96 8.27-11.24 0-6.5-5.27-11.77-11.77-11.77s-11.77 5.27-11.77 11.77c0 5.28 3.48 9.75 8.27 11.24v17.6H89.95c-3.2 0-5.79 2.59-5.79 5.79v5.35H52.81c-3.13 0-5.67 2.54-5.67 5.67v22.82h-1.08c-1.37 0-2.68.26-3.89.72a11.03 11.03 0 0 0-7.15 10.33v25.91c0 4.73 2.98 8.75 7.15 10.33 1.21.46 2.52.72 3.89.72h1.08v22.82c0 3.13 2.54 5.67 5.67 5.67h49.93v6.96H89.95c-3.2 0-5.79 2.59-5.79 5.79v1.73h57.25v-1.73c0-3.2-2.59-5.79-5.79-5.79h-12.79v-6.96h49.93c1 0 1.94-.26 2.76-.72a5.654 5.654 0 0 0 2.91-4.95v-22.82h.78c1.37 0 2.68-.26 3.89-.72a11.03 11.03 0 0 0 7.15-10.33V91.29c0-4.73-2.98-8.75-7.15-10.33Z"></path>
</svg>