<svg xmlns="http://www.w3.org/2000/svg" viewBox="0 0 273.63 383.69">
  <path className="head-mask" fill="#fff" d="M219.73 49.29h-3.46c-2.13-20.67-19.59-36.78-40.81-36.78h-54.53c-21.1 0-38.48 15.93-40.77 36.42h-3.5c-.35 0-.68.02-1.02.05V16.36c3.96-.59 7-4 7-8.13 0-4.55-3.68-8.23-8.22-8.23s-8.23 3.68-8.23 8.23c0 4.13 3.04 7.53 7 8.13v33.09c-4.94 1.49-8.54 6.08-8.54 11.51 0 6.64 5.38 12.02 12.02 12.02h3.5c2.29 20.49 19.67 36.42 40.77 36.42h14.37v5.61c0 8.07 5.71 14.61 12.76 14.61s12.76-6.54 12.76-14.61v-5.61h14.65c20.98 0 38.28-15.75 40.73-36.07h3.54c6.64 0 12.02-5.38 12.02-12.02s-5.38-12.02-12.02-12.02Z"></path>
</svg>