<svg xmlns="http://www.w3.org/2000/svg" viewBox="0 0 225.53 341.04">
  <path fill="#fff" d="M215.25 269.13c-2.76-30.95-14.21-53.61-23.94-67.69 2.18-3.21 3.46-7.08 3.46-11.25 0-11.07-8.98-20.05-20.05-20.05-2.23 0-4.36.38-6.36 1.05H60.11c-2-.67-4.14-1.05-6.36-1.05-11.07 0-20.05 8.98-20.05 20.05 0 3.23.78 6.26 2.13 8.96C25.8 213 13.19 236.44 10.28 269.13 4.24 271.74 0 277.74 0 284.74c0 9.39 7.61 17 17 17s17-7.61 17-17c0-5.88-2.99-11.06-7.53-14.12.35-4.08.88-8.07 1.57-11.98h.07c.15-.83.31-1.67.48-2.49l-.08-.02c1.35-6.78 3.23-13.3 5.64-19.61l.07.02c.3-.81.61-1.6.93-2.38l-.06-.02c2.15-5.29 4.66-10.44 7.56-15.47.54-.93 1.07-1.83 1.61-2.7.45-.73.9-1.45 1.35-2.14.66-1.02 1.3-1.99 1.95-2.93v68.18c0 3.13 2.54 5.67 5.67 5.67h119.12c.98 0 1.9-.25 2.71-.69.1-.05.19-.11.28-.17.06-.04.12-.07.18-.11.12-.08.23-.17.34-.25.03-.03.07-.05.1-.07.11-.09.21-.18.31-.28.03-.03.06-.06.1-.09.09-.09.17-.19.26-.29.03-.04.07-.08.11-.12.06-.07.1-.14.16-.21.06-.08.12-.15.17-.23.02-.02.03-.05.05-.07.58-.89.92-1.95.92-3.09v-68.13c.63.92 1.27 1.87 1.91 2.88.45.7.9 1.41 1.35 2.15.53.87 1.07 1.77 1.61 2.7 2.9 5.03 5.41 10.18 7.56 15.47l-.06.02c.31.78.62 1.58.93 2.38l.07-.02c2.41 6.31 4.29 12.83 5.64 19.61l-.08.02c.17.83.33 1.66.48 2.51h.07c.7 3.89 1.22 7.88 1.57 11.97-4.54 3.05-7.53 8.23-7.53 14.12 0 9.39 7.61 17 17 17s17-7.61 17-17c0-7-4.23-13.01-10.28-15.61Z"></path>
</svg>