<svg xmlns="http://www.w3.org/2000/svg" viewBox="0 0 295.86 424.09">
  <path className="body-mask" fill="#fff" d="M293.83 79.39c-1.62-.54-3.53.15-4.14 1.83-1.64 4.48-3.54 8.86-5.8 13.06-.07.13-.28.51-.33.59-.18.33-.37.65-.56.97l-.27.45c-.41-.7-.88-1.36-1.38-1.98 2.83-4.83 5.17-9.96 6.91-15.33.52-1.59-.13-3.57-1.83-4.14-1.57-.53-3.59.13-4.14 1.83-1.51 4.67-3.49 9.27-5.85 13.47-.47-.26-.94-.51-1.43-.73 2.18-4.5 3.94-9.21 5.22-14.05.43-1.62-.07-3.55-1.83-4.14-1.5-.5-3.69.1-4.14 1.83a74.395 74.395 0 0 1-5.64 14.82c-.45-.02-.9-.03-1.35-.02.63-3.36 1.52-6.6 2.71-9.92.57-1.58-.16-3.58-1.83-4.14-1.62-.54-3.54.14-4.14 1.83-1.4 3.89-2.47 7.91-3.18 11.99-2-3.54-4.01-7.08-6.01-10.62l-37.02 67.74c-3.47 6.17-2.98 13.51.68 19.08l-1.03 1.46-.75 1.06-1.91 2.7-.37.52-2.72 3.86-1 1.41-3.06-2.2h-.01l-3.3-2.36-.86-.62v-.02l-1.7-1.23-1.32-.94v.02l-3.08-2.2-4.37-3.13-.28-.2c.19-.44.39-.87.58-1.31 7.86-17.65 14.14-32.75 14.14-32.75h-66.8l-1.68 4.22-1.59 2.53c-1.3.84-2.59 1.68-3.89 2.52-1.24.8-2.48 1.61-3.71 2.41a153.345 153.345 0 0 1-7 2.61c-.28.08-.57.16-.86.23-.34.09-.67.18-1.02.26-.09.02-.19.05-.29.07-.26.06-.52.11-.78.17-.52.11-1.04.21-1.57.3-.37.07-.75.13-1.13.18-.38.06-.77.11-1.16.15-.59.08-1.19.14-1.8.18a48.25 48.25 0 0 1-2.22.13c-.45.01-.9.02-1.35.02h-.29c-12.28-.08-21.23-5.12-25.43-8-.66-.45-1.2-.85-1.62-1.16l-.96-2.6-1.54-4.21-66.99.23s5.87 13.81 13.66 30.73c-.04.03-.08.06-.12.1a48.746 48.746 0 0 0-6.2 6.33c-.61.74-1.19 1.5-1.75 2.28-.36.48-.7.98-1.04 1.48-.52.78-1.02 1.57-1.49 2.38-2.3 3.88-4.13 8.13-5.47 12.76-.06.21-.11.41-.17.62-6.73 2.85-11.3 9.51-11.18 17.14l.35 77.19c2.87-1.8 5.74-3.6 8.6-5.39-.12 3.16-.02 6.34.18 9.44.17 2.55.43 5.1.78 7.63.23 1.66 1.83 3.09 3.56 2.81 1.69-.28 3.05-1.78 2.81-3.56-.65-4.72-1.01-9.49-.97-14.26 0-.15.01-.58.01-.68.01-.37.03-.75.04-1.12 0-.17.02-.35.03-.52.69.43 1.41.79 2.15 1.11a77.5 77.5 0 0 0 1.06 16.78c.29 1.65 1.78 3.1 3.56 2.81 1.64-.27 3.12-1.79 2.81-3.56-.84-4.84-1.25-9.83-1.12-14.64.53.02 1.07 0 1.6-.03.17 5 .82 9.99 1.95 14.86.38 1.63 1.72 3.11 3.56 2.81 1.56-.25 3.21-1.81 2.81-3.56a74.478 74.478 0 0 1-1.94-15.74c.41-.19.81-.39 1.21-.62 1.02 3.26 1.75 6.55 2.24 10.04.24 1.66 1.82 3.09 3.56 2.81 1.68-.27 3.06-1.78 2.81-3.56-.89-6.25-2.58-12.42-5.09-18.21-.93-2.16-1.97-4.33-3.15-6.38 2.95-1.85 5.89-3.69 8.84-5.54-1.9-17.92-3.81-35.84-5.71-53.76-.61-4.42-2.77-8.26-5.86-11.06.01-.04.03-.09.04-.13.34-1.03.73-2.01 1.17-2.97.11-.27.23-.53.36-.79.53-1.15 1.12-2.25 1.76-3.31.64-1.03 1.33-2.02 2.07-2.96l.1-.13.08-.11c.22.46.44.92.67 1.38 8.94 18.3 18.32 35.58 23.76 40.08.1.09.21.17.31.26l1.11 10.79.39 3.76 1.12 10.84.38 3.76.25 2.35c2.1-.89 4.33-1.67 6.64-2.35 6.32-1.87 13.21-3.04 19.52-3.76 9.09-1.04 16.97-1.17 20.22-1.17.81 0 1.91.01 3.25.04.16 0 .33 0 .51.01.22 0 .44 0 .67.02.69.02 1.42.04 2.2.07l1.28.06c.41.02.83.04 1.25.07.43.02.86.05 1.3.07.37.02.74.04 1.12.07.68.04 1.38.09 2.09.14.88.07 1.77.14 2.69.23.42.03.84.07 1.26.12a139.826 139.826 0 0 1 5.87.68c2.18.3 4.41.65 6.64 1.07.76.14 1.52.29 2.28.45 2.48.52 4.94 1.13 7.32 1.83l1.38.42.9.3c.8.26 1.59.54 2.37.84.31.11.63.23.94.36.36.14.71.28 1.06.43l.24-2.35.39-3.76 1.12-10.84.39-3.76 1.13-11.05c1.86-1.54 3.64-3.16 5.35-4.86l.08-.08c3.15-3.15 8.5-13 14.34-24.98.06-.12.12-.24.17-.36 1.24-2.54 2.5-5.18 3.76-7.86l.3.22 4.08 2.97 3.56 2.59 1.61 1.17 1.66 1.21 3.54 2.57h-.01l1.19.86 8.78 6.38.1-.11 1.91 1.35 2.73 1.93 1.59-2.32 8.14-11.87 2.58-3.76 3.39-4.95 2.09-3.04 2.51-3.66.32-.47c5.55-.09 10.98-2.69 14.5-7.47l30.59-44.57c-1.3-2.3-2.6-4.59-3.9-6.89 2.63-1.12 4.85-3.06 6.81-5.13 4.69-4.93 7.99-11.18 10.74-17.34 1.05-2.34 2-4.71 2.88-7.11.57-1.57-.17-3.58-1.83-4.14Zm-25.37 21.73c0-.07.01-.13 0 0Z"></path>
</svg>
