<svg xmlns="http://www.w3.org/2000/svg" viewBox="0 0 295.86 424.09">
  <g className="head"><path fill="#102f42" d="m138.33 108.75-1.51.72-6.14 2.96-12.01 5.78-7.81 3.76h-.5l-7.82-3.76-12.01-5.78-6.13-2.95-1.5-.72-7.06 5.97 1.28 3.48 1.38 3.76 2.44 6.64 1.54 4.21h56.47l1.39-4.21 2.2-6.64 1.24-3.76 1.26-3.79-6.71-5.67z"></path><path fill="#fcbc40" d="M71.17 0v39.11H59.83V11.34C59.83 5.08 64.91 0 71.17 0ZM161.41 39.12h-11.34V.01c6.26 0 11.34 5.08 11.34 11.34v27.77Z"></path><path fill="#102f42" d="M136.48 136.58c-.67.46-1.46.97-2.37 1.51-.77.46-1.62.94-2.56 1.41-.23.13-.47.25-.71.36-.29.14-.58.28-.88.42-.3.14-.6.28-.91.42-.49.21-1 .43-1.53.64l-.09.03c-.49.2-.99.39-1.5.57-.31.11-.62.22-.93.32-.61.21-1.25.4-1.9.59-.33.1-.66.19-1 .27-.34.09-.67.18-1.02.26-.09.02-.19.05-.29.07-.26.06-.52.11-.78.17-.52.11-1.04.21-1.57.3-.37.07-.75.13-1.13.18-.38.06-.77.11-1.16.15-.59.08-1.19.14-1.8.18a48.25 48.25 0 0 1-2.22.13c-.45.01-.9.02-1.35.02h-.29c-12.28-.08-21.23-5.12-25.43-8h51.42Z"></path><path fill="#e7ebef" d="m110.86 121.97-.25.12-.25-.12h.5z"></path><path fill="#dae0e7" d="M172.24 61.29a61.936 61.936 0 0 0-9.04-23.53c-11.11-17.31-30.53-28.8-52.59-28.8-14.95 0-28.69 5.28-39.44 14.08-4.3 3.5-8.12 7.57-11.34 12.09-.61.83-1.18 1.68-1.74 2.55a61.934 61.934 0 0 0-8.95 22.8v.02c-.63 3.54-.96 7.18-.96 10.89s.34 7.59 1.01 11.28c2.26 12.48 8.26 23.94 17.46 33.05l3.69 3.65 5.5-4.64 7.06-5.97 19.64 9.45 7.82 3.76h.5l25.96-12.5 1.51-.72 12.57 10.62.18-.18 3.5-3.47a62.465 62.465 0 0 0 13.35-19.43c.94-2.16 1.75-4.38 2.43-6.64.71-2.29 1.27-4.64 1.7-7.02.66-3.67 1-7.43 1-11.24 0-3.44-.28-6.81-.82-10.1Z"></path><path fill="#184663" d="M110.36 121.97H78.5l-1.38-3.76h25.42l7.82 3.76zM143.78 118.21l-1.24 3.76h-31.68l7.81-3.76h25.11zM138.95 132.82l-.86 2.6c-.41.31-.95.71-1.61 1.16H85.06c-.66-.45-1.2-.85-1.62-1.16l-.96-2.6h56.47Z"></path><path fill="#ced6df" d="M173.02 71.5c0 3.81-.34 7.57-1 11.24-2.25 12.49-8.27 23.97-17.48 33.09l-3.5 3.47-.18.18-1.37-1.16-4.49-3.79-6.71-5.67-1.51.72-6.14 2.96-7.81 3.76V10.28a62.095 62.095 0 0 1 27.2 12.88c4.29 3.49 8.11 7.56 11.34 12.08A61.936 61.936 0 0 1 172.2 61.4c.54 3.29.82 6.66.82 10.1Z"></path><path fill="#102f42" d="M173.06 71.39c0 3.81-.34 7.57-1 11.24l-.02.01a173.99 173.99 0 0 1-49.21 10.82c-3.89.28-7.93.44-12.1.44a173.34 173.34 0 0 1-61.54-11.23c-.67-3.69-1.01-7.46-1.01-11.28s.33-7.35.96-10.89v-.02a61.934 61.934 0 0 1 8.95-22.8c.57-.24 1.14-.49 1.74-.73 3.37-1.4 7.16-2.8 11.34-4.1a130.318 130.318 0 0 1 15.45-3.81c4.55-.84 19.55-2.16 23.13-2.18 4.54-.03 8.9.18 13.08.57 16.76 1.56 30.48 6.08 40.21 10.26.05.02.11.05.16.07a61.936 61.936 0 0 1 9.04 23.53c.54 3.29.82 6.66.82 10.1Z"></path><path fill="#eaedef" d="M117.48 23.13c0 1.43-.43 2.76-1.17 3.87-2.18-.11-4.41-.16-6.69-.14-3.58.02-18.58 1.34-23.14 2.18a130.107 130.107 0 0 0-15.44 3.81c-.05.02-.11.03-.16.05 1.47-1.52 3.04-2.96 4.69-4.3 9.81-8.04 22.22-12.47 34.91-12.47 3.86 0 7 3.13 7 7Z"></path><path fill="#184663" d="M116.31 27a6.984 6.984 0 0 1-5.84 3.13c-9.46 0-18.72 3.31-26.06 9.32a40.904 40.904 0 0 0-7.48 7.96l-.13.2c-.34.45-.66.93-1.05 1.54a40.438 40.438 0 0 0-5.8 14.47l-.1.58c-.42 2.37-.64 4.78-.64 7.19 0 3.86-3.13 7-7 7s-7-3.14-7-7c0-3.22.29-6.47.85-9.64l.12-.67a54.836 54.836 0 0 1 7.8-19.52c.56-.86 1.03-1.56 1.49-2.18l.08-.12c1.6-2.25 3.38-4.38 5.32-6.36.05-.02.11-.03.16-.05a130.318 130.318 0 0 1 15.45-3.81c4.55-.84 19.55-2.16 23.13-2.18 2.28-.02 4.51.03 6.7.14Z"></path></g>
  <g className="body"><path fill="#102f42" d="m247.26 152.79-8.56 12.48-2.58 3.76-2.4 3.49-2.51 3.66-2.09 3.04-3.39 4.95-2.58 3.76-8.14 11.87-1.59 2.32-2.73-1.93-1.91-1.35-.1.11-8.78-6.38-1.19-.85.01-.01-3.54-2.57-1.66-1.21-1.61-1.17-3.56-2.59-4.08-2.97-.3-.22-.02-.01-.14-.1-18.22-13.26.83-1.14 8.6-13.68-.07-.05 1.66-2.3 15.9 11.39.13.09.03.02.28.2 4.37 3.13 3.93 2.82 1.32.94 1.71 1.23 3.3 2.36h.01l3.06 2.2 1-1.41 2.72-3.86.37-.52 1.91-2.7.75-1.06 1.15-1.63 14.15-20.03 14.56 9.18zM158.75 233.93l-1.12 10.84h-26.8c-.87-.1-1.74-.19-2.59-.27-.42-.05-.84-.09-1.26-.12-.92-.09-1.81-.16-2.69-.23-.71-.05-1.41-.1-2.09-.14-.38-.03-.75-.05-1.12-.07-.44-.02-.87-.05-1.3-.07-.42-.03-.84-.05-1.25-.07l-1.28-.06c-.78-.03-1.51-.05-2.2-.07-.23-.01-.45-.01-.67-.02-.18-.01-.35-.01-.51-.01-1.34-.03-2.44-.04-3.25-.04-3.25 0-11.13.13-20.22 1.17H63.61l-1.12-10.84h27.47a77.805 77.805 0 0 0 20.66 2.77c3.55 0 7.04-.24 10.46-.7 3.48-.46 6.89-1.16 10.21-2.07h27.46ZM89.96 233.93H62.49l-.39-3.76-1.17-11.35a77.896 77.896 0 0 0 18.41 11.35c3.42 1.5 6.96 2.76 10.62 3.76Z"></path><path fill="#102f42" d="M90.4 244.77c-6.31.72-13.2 1.89-19.52 3.76-2.31.68-4.54 1.46-6.64 2.35l-.25-2.35-.38-3.76H90.4Z"></path><path fill="#fcbc40" d="M36.56 264.79c-1.2-2.78-2.55-5.57-4.19-8.11-1.52-2.37-3.75-4.41-6.6-4.88-.27-.12-.55-.22-.87-.24-3.24-.23-6.71-.22-9.29 2.02-2.74 2.38-4.11 5.83-5.07 9.24-1.84 6.54-1.84 13.62-1.39 20.35.17 2.55.43 5.1.78 7.63.23 1.66 1.83 3.09 3.56 2.81 1.69-.28 3.05-1.78 2.81-3.56-.65-4.72-1.01-9.49-.97-14.26 0-.15.01-.58.01-.68.01-.37.03-.75.04-1.12 0-.17.02-.35.03-.52.69.43 1.41.79 2.15 1.11-.25 5.6.09 11.22 1.06 16.78.29 1.65 1.78 3.1 3.56 2.81 1.64-.27 3.12-1.79 2.81-3.56-.84-4.84-1.25-9.83-1.12-14.64.53.02 1.07 0 1.6-.03.17 5 .82 9.99 1.95 14.86.38 1.63 1.72 3.11 3.56 2.81 1.56-.25 3.21-1.81 2.81-3.56a74.478 74.478 0 0 1-1.94-15.74c.41-.19.81-.39 1.21-.62 1.02 3.26 1.75 6.55 2.24 10.04.24 1.66 1.82 3.09 3.56 2.81 1.68-.27 3.06-1.78 2.81-3.56-.89-6.25-2.58-12.42-5.09-18.21Zm-10.81-2.24c.04.06.05.12 0 0ZM259.95 94.09c-.24 3.02-.34 6.11-.08 9.13.24 2.8 1.26 5.65 3.56 7.39.18.23.39.45.65.62 2.76 1.72 5.83 3.33 9.16 2.55 3.53-.83 6.36-3.23 8.8-5.8 4.69-4.93 7.99-11.18 10.74-17.34 1.05-2.34 2-4.71 2.88-7.11.57-1.57-.17-3.58-1.83-4.14-1.62-.54-3.53.15-4.14 1.83-1.64 4.48-3.54 8.86-5.8 13.06-.07.13-.28.51-.33.59-.18.33-.37.65-.56.97l-.27.45c-.41-.7-.88-1.36-1.38-1.98 2.83-4.83 5.17-9.96 6.91-15.33.52-1.59-.13-3.57-1.83-4.14-1.57-.53-3.59.13-4.14 1.83-1.51 4.67-3.49 9.27-5.85 13.47-.47-.26-.94-.51-1.43-.73 2.18-4.5 3.94-9.21 5.22-14.05.43-1.62-.07-3.55-1.83-4.14-1.5-.5-3.69.1-4.14 1.83a74.395 74.395 0 0 1-5.64 14.82c-.45-.02-.9-.03-1.35-.02.63-3.36 1.52-6.6 2.71-9.92.57-1.58-.16-3.58-1.83-4.14-1.62-.54-3.54.14-4.14 1.83-2.14 5.94-3.52 12.18-4.01 18.48Zm8.51 7.03c0-.07.01-.13 0 0Z"></path><path fill="#102f42" d="m36.92 176.82-.75.95-.1.13c-.74.94-1.43 1.93-2.07 2.96-.64 1.06-1.23 2.16-1.76 3.31-.13.26-.25.52-.36.79-.44.96-.83 1.94-1.17 2.97-1.24 3.58-2.06 7.56-2.43 11.93-.18 1.93-.26 3.94-.26 6.02v2.84H8.43v-2.84c0-5.18.41-10.06 1.21-14.63.2-1.13.42-2.23.67-3.32.29-1.28.62-2.53.98-3.76 1.34-4.63 3.17-8.88 5.47-12.76.47-.81.97-1.6 1.49-2.38.34-.5.68-1 1.04-1.48.56-.78 1.14-1.54 1.75-2.28 1.86-2.28 3.92-4.39 6.2-6.33.14-.13.28-.25.43-.37.86-.71 1.62-1.31 2.34-1.84l4.43-3.23.08 5.48a73.414 73.414 0 0 0 .82 10.05c.32 2.17.74 4.32 1.26 6.45l.32 1.34Z"></path><path fill="#184663" d="M89.96 233.93H62.49l-.39-3.76h17.24c3.42 1.5 6.96 2.76 10.62 3.76ZM159.14 230.17l-.39 3.76h-27.46a77.413 77.413 0 0 0 10.61-3.76h17.24ZM90.4 244.77c-6.31.72-13.2 1.89-19.52 3.76h-6.89l-.38-3.76H90.4ZM157.63 244.77l-.39 3.76h-6.89c-2.38-.7-4.84-1.31-7.32-1.83-.76-.16-1.52-.31-2.28-.45-2.23-.42-4.46-.77-6.64-1.07-1.11-.15-2.2-.29-3.28-.41h26.8Z"></path><path fill="#dae0e7" d="M207.18 127.89s-6.28 15.1-14.14 32.75c-.4.9-.8 1.81-1.21 2.72l-1.43 3.19c-.56 1.25-1.13 2.5-1.7 3.76-.63 1.39-1.27 2.78-1.91 4.16-.84 1.83-1.68 3.65-2.52 5.45-1.44 3.05-2.86 6.05-4.27 8.93-.05.12-.11.24-.17.36-5.84 11.98-11.19 21.83-14.34 24.98l-.08.08c-1.71 1.7-3.5 3.33-5.36 4.87-2.44 2.02-5 3.89-7.67 5.6a77.721 77.721 0 0 1-18.52 8.68c-.93.29-1.87.57-2.82.83-3.32.91-6.73 1.61-10.21 2.07-3.42.46-6.91.7-10.46.7a77.805 77.805 0 0 1-31.28-6.53 77.896 77.896 0 0 1-18.41-11.35c-5.44-4.51-14.82-21.79-23.76-40.09-1.16-2.38-2.32-4.77-3.45-7.16h-.01c-.25-.53-.5-1.06-.75-1.58-.6-1.26-1.19-2.52-1.78-3.76-.57-1.23-1.14-2.45-1.7-3.66-.42-.9-.83-1.79-1.24-2.67-8.1-17.54-14.29-32.1-14.29-32.1l66.99-.23 1.54 4.21.96 2.6c.42.31.96.71 1.62 1.16 4.2 2.88 13.15 7.92 25.43 8h.29c.45 0 .9-.01 1.35-.02.58-.02 1.15-.05 1.72-.09.17 0 .33-.02.5-.04.61-.04 1.21-.1 1.8-.18.39-.04.78-.09 1.16-.15.38-.05.76-.11 1.13-.18.53-.09 1.05-.19 1.57-.3.26-.06.52-.11.78-.17.1-.02.2-.05.29-.07.35-.08.68-.17 1.02-.26.34-.08.67-.17 1-.27.65-.18 1.28-.38 1.9-.59.31-.1.62-.21.93-.32.51-.18 1.01-.37 1.5-.57l.09-.03c.53-.21 1.04-.43 1.53-.64.31-.14.61-.28.91-.42a39.31 39.31 0 0 0 1.59-.78c2.01-1.38 4.01-2.76 6.02-4.15l1.59-2.53 1.68-4.22h66.59Z"></path><path fill="#102f42" d="m157.24 248.53-.24 2.35c-.35-.15-.7-.29-1.06-.43-.31-.13-.63-.25-.94-.36-.78-.3-1.57-.58-2.37-.84l-.9-.3-1.38-.42h6.89ZM160.3 218.82l-1.16 11.35H141.9c3.74-1.64 7.33-3.57 10.73-5.75 2.67-1.71 5.23-3.58 7.67-5.6Z"></path><path fill="#ced6df" d="M207.39 127.89s-6.28 15.1-14.14 32.75c-.4.9-.8 1.81-1.21 2.72l-1.43 3.19c-.56 1.25-1.13 2.5-1.7 3.76-.63 1.39-1.27 2.78-1.91 4.16-.84 1.83-1.68 3.65-2.52 5.45-1.44 3.05-2.86 6.05-4.27 8.93-.05.12-.11.24-.17.36-5.84 11.98-11.19 21.83-14.34 24.98l-.08.08c-1.71 1.7-3.5 3.33-5.36 4.87-2.44 2.02-5 3.89-7.67 5.6a77.721 77.721 0 0 1-18.52 8.68c-.93.29-1.87.57-2.82.83-.5.14-1 .27-1.51.39-.33.09-.66.17-1 .25a78.308 78.308 0 0 1-5.91 1.17l-.18-93.87c1.16-.4 2.34-.82 3.54-1.27 1.21-.45 2.38-.9 3.52-1.36 1.23-.8 2.47-1.61 3.71-2.41 1.3-.84 2.6-1.68 3.89-2.52.53-.84 1.06-1.69 1.59-2.53.56-1.41 1.12-2.81 1.68-4.22h66.8Z"></path><path fill="#a0b1bb" d="M16.94 183.34c-9.68.75-17.1 8.9-16.94 18.6.12 25.73.23 51.46.35 77.19 13.96-8.75 27.93-17.51 41.89-26.26-1.9-17.92-3.81-35.84-5.71-53.76-1.33-9.61-9.92-16.52-19.59-15.77Z"></path><path fill="#184663" d="m203.43 169.62-9.1 18.88-1.66-1.21-1.61-1.17 9.34-18.67 1.32.94 1.71 1.23zM231.21 176.18l-2.09 3.04-14.75-9.67.37-.52 1.91-2.7 14.56 9.85zM215.01 199.8l-1.59 2.32-2.73-1.93-3.1-27.57 3.06 2.2 1-1.41 3.36 26.39zM34 180.86c-.64 1.06-1.23 2.16-1.76 3.31-.13.26-.25.52-.36.79l-2.21-1.98-10.74-9.62-2.17-1.95c.47-.81.97-1.6 1.49-2.38.34-.5.68-1 1.04-1.48.71.64 1.42 1.29 2.13 1.93 3.48 3.15 6.96 6.3 10.45 9.45.71.65 1.42 1.29 2.13 1.93Z"></path><path fill="#eaedef" d="M81.07 222.59c-1.12 0-2.25-.27-3.3-.83-12.36-6.64-18.74-16.06-23.79-25.25-7.3-13.29-13.77-27.12-19.48-39.32-1.83-3.97-3.68-8.04-5.51-12.11-1.58-3.53 0-7.67 3.52-9.25 3.53-1.58 7.67 0 9.25 3.52 1.81 4.03 3.64 8.05 5.44 11.95 5.6 11.98 11.97 25.59 19.05 38.48 4.77 8.68 9.47 15 18.14 19.65a7 7 0 0 1-3.31 13.17Z"></path><path fill="#abbac4" d="M12.49 262.07c-3.87 0-7-3.13-7-7v-38.02c0-3.87 3.13-7 7-7s7 3.13 7 7v38.02c0 3.87-3.13 7-7 7Z"></path><path fill="#a0b1bb" d="M223.8 169.14c-8.15-5.26-10.8-15.96-6.05-24.42l37.02-67.74L279.13 120l-30.59 44.57c-5.74 7.82-16.58 9.82-24.74 4.56Z"></path><path fill="#abbac4" d="M236.21 143.82c-1.12 0-2.26-.27-3.32-.84-3.4-1.84-4.67-6.09-2.83-9.49l18.08-33.45c1.84-3.4 6.09-4.66 9.49-2.83 3.4 1.84 4.67 6.09 2.83 9.49l-18.08 33.45a7.009 7.009 0 0 1-6.16 3.67Z"></path></g>
  <g className="legs"><g fill="#102f42"><path d="M97.84 416.32c-.59 1.53-1.64 2.77-3.01 3.76-8.49 6.22-29.29 3.33-29.29 3.33s-12.97-.79-21.36-3.33c-3.23-.98-5.78-2.21-6.66-3.76-.91-1.59-.06-3.52 3.64-5.84 4.5-2.82 10.42-4.97 16.65-6.6 5.43-1.44 11.1-2.47 16.3-3.21-.03-.18-.07-.37-.1-.55-.74-4.03-1.44-8.17-2.11-12.43l-.57-3.76c-.6-4.04-1.16-8.19-1.67-12.43-.15-1.24-.3-2.49-.44-3.76-.46-4.05-.88-8.2-1.24-12.43-.11-1.24-.22-2.5-.31-3.76-.32-4.07-.6-8.22-.82-12.44-.06-1.25-.12-2.5-.17-3.76-.19-4.08-.32-8.22-.4-12.43v-.18c-.02-1.2-.04-2.39-.04-3.58-.07-6.64 0-13.11.2-19.4.35-11.49 1.11-22.37 2.13-32.57H89.6a468.724 468.724 0 0 0-2.5 47.04c0 1.63.01 3.28.02 4.93.01 1.25.02 2.5.05 3.76 0 .31 0 .63.01.95.06 3.5.25 7.37.53 11.48.09 1.23.18 2.49.28 3.76.32 4.01.72 8.19 1.16 12.44.14 1.25.28 2.5.41 3.76a796.525 796.525 0 0 0 2.02 16.19c.58 4.32 1.17 8.5 1.76 12.43.2 1.28.39 2.54.57 3.76.73 4.7 1.42 8.92 2.03 12.43.24 1.37.46 2.63.67 3.76.55 3.02.99 5.15 1.26 6.1.71 2.53.63 4.62-.03 6.34ZM180.08 410.48c-4.5-2.82-10.42-4.97-16.66-6.6-5.43-1.44-11.11-2.47-16.3-3.21.03-.18.07-.37.1-.55.74-4.03 1.45-8.17 2.11-12.43.2-1.25.39-2.5.57-3.76.6-4.04 1.16-8.19 1.67-12.43a483.635 483.635 0 0 0 1.69-16.19c.11-1.24.21-2.5.31-3.76.32-4.07.59-8.22.82-12.44.06-1.25.12-2.5.17-3.76.18-4.08.31-8.22.39-12.43v-.18c.02-1.2.04-2.39.05-3.58.07-6.64-.01-13.11-.2-19.4-.35-11.49-1.11-22.37-2.13-32.57h-21.03a470.47 470.47 0 0 1 2.49 47.05c0 1.63 0 3.27-.02 4.92 0 1.25-.01 2.5-.04 3.76 0 .31 0 .63-.01.95-.06 3.5-.25 7.37-.53 11.48-.08 1.23-.18 2.49-.28 3.76-.32 4.01-.71 8.19-1.16 12.44-.14 1.25-.28 2.5-.41 3.76-.47 4.16-.98 8.33-1.52 12.43-.16 1.26-.33 2.52-.5 3.76-.58 4.31-1.17 8.5-1.76 12.43-.19 1.28-.39 2.54-.57 3.76-.73 4.7-1.42 8.92-2.03 12.43-.24 1.37-.46 2.63-.67 3.76-.55 3.02-.99 5.15-1.26 6.1-.71 2.53-.63 4.62.03 6.34.59 1.53 1.63 2.76 3 3.76 8.48 6.22 29.3 3.33 29.3 3.33s12.97-.79 21.36-3.33c3.23-.98 5.78-2.21 6.66-3.76.91-1.59.06-3.52-3.64-5.84Z"></path></g><path fill="#184663" d="M87.12 319.16c.01 1.25.02 2.5.05 3.76H66.28v-.18c-.02-1.2-.04-2.39-.04-3.58h20.88ZM155 319.16c-.01 1.19-.03 2.38-.05 3.58v.18h-20.88c.03-1.26.04-2.51.04-3.76H155ZM87.71 335.35c.09 1.23.18 2.49.28 3.76H66.85c-.06-1.25-.12-2.5-.17-3.76h21.03ZM154.56 335.35c-.05 1.26-.11 2.51-.17 3.76h-21.14c.1-1.27.2-2.53.28-3.76h21.03ZM89.15 351.55c.14 1.25.28 2.5.41 3.76H67.98c-.11-1.24-.22-2.5-.31-3.76h21.48ZM153.57 351.55c-.1 1.26-.2 2.52-.31 3.76h-21.58c.13-1.26.27-2.51.41-3.76h21.48ZM91.08 367.74c.16 1.26.33 2.52.5 3.76H69.66c-.15-1.24-.3-2.49-.44-3.76h21.86ZM152.01 367.74c-.14 1.27-.29 2.52-.44 3.76h-21.91c.17-1.24.34-2.5.5-3.76h21.85ZM93.34 383.93c.2 1.28.39 2.54.57 3.76H71.9l-.57-3.76h22.01ZM149.9 383.93c-.18 1.26-.37 2.51-.57 3.76h-22c.18-1.22.38-2.48.57-3.76h22ZM95.94 400.12c.24 1.37.46 2.63.67 3.76h-38.8c5.43-1.44 11.1-2.47 16.3-3.21-.03-.18-.07-.37-.1-.55h21.93ZM163.42 403.88h-38.79c.21-1.13.43-2.39.67-3.76h21.92c-.03.18-.07.37-.1.55 5.19.74 10.87 1.77 16.3 3.21ZM37.52 416.32h60.32c-.59 1.53-1.64 2.77-3.01 3.76H44.18c-3.23-.98-5.78-2.21-6.66-3.76ZM183.72 416.32c-.88 1.55-3.43 2.78-6.66 3.76H126.4c-1.37-1-2.41-2.23-3-3.76h60.32Z"></path><path fill="#dae0e7" d="M171.64 264.13c-1.02-3.24-3.13-5.97-5.98-8.25-2.42-1.97-5.38-3.62-8.66-5-.35-.15-.7-.29-1.06-.43-.31-.13-.63-.25-.94-.36-.78-.3-1.57-.58-2.37-.84l-.9-.3-1.38-.42c-2.38-.7-4.84-1.31-7.32-1.83-.76-.16-1.52-.31-2.28-.45-2.23-.42-4.46-.77-6.64-1.07a139.826 139.826 0 0 0-5.87-.68c-.42-.05-.84-.09-1.26-.12-.92-.09-1.81-.16-2.69-.23-.71-.05-1.41-.1-2.09-.14-.38-.03-.75-.05-1.12-.07-.44-.02-.87-.05-1.3-.07-.42-.03-.84-.05-1.25-.07l-1.28-.06c-.78-.03-1.51-.05-2.2-.07-.23-.01-.45-.01-.67-.02-.18-.01-.35-.01-.51-.01-1.34-.03-2.44-.04-3.25-.04-3.25 0-11.13.13-20.22 1.17-6.31.72-13.2 1.89-19.52 3.76-2.31.68-4.54 1.46-6.64 2.35-7.14 3.01-12.76 7.25-14.64 13.25-2.57 8.21 2.59 16.89 6.31 22.54 1.37 2.08 4.85 7.37 10.53 13.09 5.1 5.15 11.97 10.65 20.66 14.47 6.74 2.97 14.57 4.93 23.52 4.93 3.67 0 7.16-.33 10.46-.93h.02c4.72-.85 9.05-2.24 13.01-3.98.01 0 .01-.01.02-.01 7.52-3.31 13.68-7.87 18.5-12.38.76-.7 1.48-1.4 2.17-2.1 5.68-5.72 9.16-11.01 10.53-13.09.11-.16.22-.33.33-.5 3.69-5.65 8.49-14.07 5.98-22.04Z"></path><path fill="#ced6df" d="M165.62 286.28c-.11.17-.22.34-.33.5-1.37 2.08-4.85 7.37-10.53 13.09-.69.7-1.41 1.4-2.17 2.1-4.82 4.51-10.98 9.07-18.5 12.38-.01 0-.01.01-.02.01-3.46 1.52-7.2 2.77-11.24 3.64v-73.83c.47.02.94.06 1.42.09.88.07 1.77.14 2.69.23.42.03.84.07 1.26.12a139.826 139.826 0 0 1 5.87.68c2.18.3 4.41.65 6.64 1.07.76.14 1.52.29 2.28.45 2.48.52 4.94 1.13 7.32 1.83l1.38.42.9.3c.8.26 1.59.54 2.37.84.31.11.63.23.94.36.36.14.71.28 1.06.43 3.28 1.38 6.24 3.03 8.66 5 2.85 2.28 4.96 5.01 5.98 8.25 2.51 7.97-2.29 16.39-5.98 22.04Z"></path><path fill="#eaedef" d="M92.81 308.27c-.94 0-1.9-.19-2.81-.59-6.62-2.91-12.83-7.27-18.46-12.96-5.04-5.09-8.36-10.07-9.61-11.94a85.676 85.676 0 0 1-5.47-9.46 6.992 6.992 0 0 1 3.16-9.38A6.992 6.992 0 0 1 69 267.1c1.35 2.72 2.89 5.38 4.58 7.92 1.78 2.67 4.29 6.2 7.91 9.86 4.39 4.43 9.15 7.79 14.15 9.99 3.54 1.56 5.15 5.69 3.59 9.23a6.998 6.998 0 0 1-6.41 4.18Z"></path></g>
</svg>
