<svg xmlns="http://www.w3.org/2000/svg" viewBox="0 0 192.51 289.53">
  <g className="head"><path fill="#102f42" d="M112.81 98.63c-3.82 1.23-9.53 2.59-16.54 2.59s-12.72-1.36-16.54-2.59V79.89h33.08v18.74ZM19.19 46.63v-3.94h17.92v3.94z"></path><circle cx="18.26" cy="44.65" r="5.15" fill="#438bfd" transform="rotate(-67.5 18.265 44.654)"></circle><g fill="#184663"><path d="M24.79 46.63v-3.94h.71v3.94zM28.32 46.63v-3.94h.71v3.94zM31.84 46.63v-3.94h.71v3.94z"></path></g><path fill="#102f42" d="M123.5 8.27H69.04l2.02-4.6A6.145 6.145 0 0 1 76.68 0h39.17c2.44 0 4.64 1.44 5.62 3.67l2.02 4.6Z"></path><rect width="124.68" height="73.52" x="33.93" y="7.89" fill="#dae0e7" rx="36.76" ry="36.76"></rect><path fill="#102f42" d="M174.21 42.68v3.94h-17.92v-3.94z"></path><circle cx="175.13" cy="44.65" r="5.15" fill="#438bfd" transform="rotate(-67.5 175.136 44.653)"></circle><g fill="#184663"><path d="M160.55 46.62v-3.94h.71v3.94zM164.08 46.63v-3.94h.71v3.94zM167.61 46.63v-3.94h.71v3.94z"></path></g><path fill="#cdd5df" d="M158.61 44.65c0 .66-.02 1.32-.06 1.97-1.02 19.39-17.06 34.79-36.7 34.79h-9.04V7.89h9.04c.5 0 1 .02 1.5.04 18.95.76 34.21 15.86 35.2 34.75.04.65.06 1.31.06 1.97Z"></path><path fill="#102f42" d="M70.69 66.71c-12.16 0-22.06-9.89-22.06-22.06s9.89-22.06 22.06-22.06h51.16c12.16 0 22.06 9.89 22.06 22.06s-9.89 22.06-22.06 22.06H70.69Z"></path><path fill="#184663" d="M143.91 44.74c0-12.16-9.89-22.06-22.06-22.06H70.69c-12.16 0-22.06 9.89-22.06 22.06s95.27 0 95.27 0Z"></path><path fill="#fff" d="M81.1 49.47c-2.65 0-4.81-2.16-4.81-4.81s2.16-4.81 4.81-4.81 4.81 2.16 4.81 4.81-2.16 4.81-4.81 4.81ZM111.44 49.47c-2.65 0-4.81-2.16-4.81-4.81s2.16-4.81 4.81-4.81 4.81 2.16 4.81 4.81-2.16 4.81-4.81 4.81Z"></path><path fill="#eaedef" d="M77.66 66.72c.02.17.03.35.03.53 0 3.87-3.13 7-7 7-16.31 0-29.59-13.27-29.59-29.58s13.28-29.59 29.59-29.59c3.87 0 7 3.13 7 7 0 .18-.01.36-.03.53.01.03.01.06 0 .09h-6.97c-11.78 0-21.43 9.28-22.02 20.92-.02.37-.03.75-.03 1.13.05 12.13 9.92 21.97 22.05 21.97h6.97Z"></path><path fill="#184663" d="M77.66 66.71h-6.97c-12.13 0-22-9.84-22.05-21.96h6.46c.05 8.55 7.03 15.5 15.59 15.5 3.69 0 6.7 2.84 6.97 6.46Z"></path><path fill="#1c5273" d="M77.66 22.59s.01.06 0 .09a6.99 6.99 0 0 1-6.97 6.38c-8.59 0-15.59 6.99-15.59 15.59v.09h-6.46c0-.39.01-.77.03-1.14.02-.36.04-.73.08-1.09.03-.35.08-.7.13-1.04 1.54-10.66 10.73-18.88 21.81-18.88h6.97Z"></path></g>
  <g className="body"><path fill="#c1cbd7" d="M178.16 214.32c1.28-.1 2.55-.37 3.78-.78a15.534 15.534 0 0 0 9.9-19.23l-28.12-93.78-36.31 12.36 34.95 91.45c2.46 6.42 8.95 10.52 15.8 9.97Z"></path><path fill="#438bfd" d="M191.81 194.27c2.54 8.17-2.01 16.85-10.18 19.39-8.17 2.54-16.85-2.01-19.39-10.18l29.57-9.21Z"></path><path fill="#dae0e7" d="m163.99 100.76-.1 88.49a166.78 166.78 0 0 1-51.07 13.5c-5.12.51-10.5.81-16.11.82-20.03.03-37.1-3.55-50.2-7.66-4.29-1.35-8.16-2.75-11.57-4.11-.03-.01-.05-.02-.08-.03-2.28-.9-4.35-1.78-6.21-2.61l-.09-87.84v-.8h.24a131806731.502 131806731.502 0 0 0 134.23.24h.96Z"></path><path fill="#e6eaef" d="M163.79 100.62c-13.06 5.78-36.64 14.25-67.18 14.32-31.06.05-54.99-8.58-68.06-14.41.42-.27 1.05-.67 1.83-1.14 5.82-3.53 22.72-12.86 65.37-13.26 45.81-.43 61.74 9.99 66.35 13.26.71.51 1.29.94 1.69 1.23Z"></path><path fill="#cdd5df" d="m163.98 101.6-.1 87.86c-1.87.83-3.98 1.72-6.28 2.63-10.76 4.26-26.05 9-44.79 10.87v-88.65c7.88-.79 15.15-2.09 21.73-3.64a167.59 167.59 0 0 0 28.92-9.7h.33l.19.63Z"></path><circle cx="130.56" cy="189.33" r="2.32" fill="#7c93a2"></circle><circle cx="142.15" cy="187.17" r="2.32" fill="#7c93a2"></circle><circle cx="152.74" cy="183.39" r="2.32" fill="#7c93a2"></circle><path fill="#c1cbd7" d="m34.86 191.77-4.71 12.28c-.23.62-.51 1.21-.81 1.77.37-.74.69-1.52.94-2.34l-1.64-.51-27.93-8.71c-.3.95-.5 1.91-.61 2.86.1-.94.29-1.88.57-2.82l27.89-92.98.09 87.84c1.86.83 3.93 1.71 6.21 2.61Z"></path><path fill="#dfe4ea" d="M46.51 107.28v88.36c-4.26-1.33-8.1-2.72-11.49-4.06-.03 0-.05-.02-.08-.03l-.08.22c-2.28-.9-4.35-1.78-6.21-2.61l-.09-87.84v-.8c.07.03.14.06.21.1 2.88 1.3 5.99 2.59 9.32 3.83 2.91 1.08 5.73 2.01 8.42 2.83Z"></path><path fill="#eaedef" d="M44.51 187.07c-3.87 0-7-3.13-7-7v-57.94c0-3.87 3.13-7 7-7s7 3.13 7 7v57.94c0 3.87-3.13 7-7 7Z"></path><path fill="#438bfd" d="M30.28 203.48c-.25.82-.57 1.6-.94 2.34-.01 0-.01.02-.02.03a15.483 15.483 0 0 1-11.92 8.39c-.82.11-1.64.14-2.47.11-1.35-.05-2.7-.27-4.04-.69a15.429 15.429 0 0 1-9.74-8.99c-.1-.25-.2-.5-.29-.76-.21-.58-.37-1.18-.5-1.79-.06-.27-.11-.53-.15-.8a15.115 15.115 0 0 1 .5-7.06l27.93 8.71 1.64.51Z"></path></g>
  <g className="legs"><path fill="#cdd5df" d="M163.89 189.25v.2c-1.87.83-3.98 1.72-6.28 2.63-10.76 4.26-26.05 9-44.79 10.87v74.85H79.54c-.84 0-1.68-.02-2.51-.06-1.2-.06-2.4-.16-3.58-.3l-1.18-.15a50.87 50.87 0 0 1-27.41-13.12 233.602 233.602 0 0 0-.48-21.17 16 16 0 0 0-4.99-10.53 15.45 15.45 0 0 0-3.37-2.41c-1.25-.67-2.59-1.17-4-1.48-1.08-.25-2.2-.38-3.35-.39 0-.42-.02-.84-.02-1.26v-37.77c13.08 5.83 37 14.46 68.06 14.41 5.61-.01 10.99-.31 16.11-.82a166.78 166.78 0 0 0 51.07-13.5Z"></path><path fill="#102f42" d="M180.35 258.86c0 4.92-.17 10.24-.56 15.9a15.865 15.865 0 0 1-8.34 12.91c-1.24.66-2.58 1.17-4 1.48-1.11.25-2.27.38-3.46.38s-2.34-.13-3.45-.37c-1.42-.32-2.76-.82-4-1.49a16.04 16.04 0 0 1-4.3-3.38c-2.31-2.57-3.82-5.89-4.06-9.59a230.427 230.427 0 0 1-.48-10.26v-.2c-.05-1.76-.07-3.56-.07-5.38 0-4.95.16-10.26.55-15.92.39-5.63 3.69-10.4 8.36-12.89 1.25-.67 2.59-1.17 4-1.48 1.05-.24 2.14-.37 3.25-.38h.2c1.19 0 2.35.13 3.46.39 1.42.31 2.76.81 4 1.48a15.865 15.865 0 0 1 8.36 12.94c.34 5 .54 10.29.54 15.86Z"></path><g fill="#184663"><path d="M160.54 228.57v60.59c-1.42-.32-2.76-.82-4-1.49v-57.62c1.25-.67 2.59-1.17 4-1.48ZM171.45 230.06v57.61c-1.24.66-2.58 1.17-4 1.48v-60.57c1.42.31 2.76.81 4 1.48Z"></path></g><path fill="#102f42" d="M44.92 258.86c0 1.72-.02 3.49-.06 5.31v.09c-.06 2.03-.13 4.12-.25 6.25-.06 1.39-.14 2.81-.24 4.25-.25 3.66-1.74 6.97-4.05 9.53a15.658 15.658 0 0 1-4.3 3.37H36c-1.24.67-2.57 1.18-3.98 1.49-1.11.25-2.27.38-3.46.38s-2.34-.13-3.45-.38c-1.41-.31-2.76-.82-4-1.49-4.68-2.5-7.97-7.31-8.36-12.96-.35-5-.55-10.29-.55-15.84 0-4.95.16-10.26.55-15.92.39-5.63 3.68-10.4 8.36-12.89a15.23 15.23 0 0 1 4-1.48c1.11-.25 2.26-.38 3.45-.38h.11c1.15.01 2.27.14 3.35.39 1.41.31 2.75.81 4 1.48 1.23.65 2.36 1.46 3.37 2.41A16 16 0 0 1 44.38 243c.34 5 .54 10.29.54 15.86Z"></path><path fill="#184663" d="M25.11 228.57v60.58c-1.41-.31-2.76-.82-4-1.49v-57.61a15.23 15.23 0 0 1 4-1.48ZM36.02 230.06v57.6H36l-3.98 1.49v-60.57c1.41.31 2.75.81 4 1.48Z"></path><path fill="#c1cbd7" d="M163.89 189.45V228.19h-.1c-1.11.01-2.2.14-3.25.38-1.41.31-2.75.81-4 1.48a15.838 15.838 0 0 0-8.36 12.89c-.39 5.66-.55 10.97-.55 15.92 0 1.82.02 3.62.07 5.38-.47.43-.95.86-1.43 1.27-.45.39-.9.77-1.37 1.14l-.29.23c-.39.31-.78.61-1.18.9-.05.04-.11.08-.16.12-1.02.75-2.08 1.47-3.17 2.16l-.17.11c-.34.21-.69.42-1.04.62-.04.03-.09.05-.13.08-.26.15-.51.3-.78.44-.03.02-.06.03-.09.05-.05.03-.1.06-.15.08-.42.24-.85.47-1.28.69-1.45.75-2.94 1.43-4.46 2.04-.03.01-.05.02-.08.03-.29.12-.59.23-.88.34-.37.14-.75.28-1.12.41-.38.13-.76.26-1.14.38-.71.23-1.42.45-2.14.64-.07.03-.13.04-.2.06-.38.1-.75.2-1.13.29-.39.1-.79.19-1.18.28-.26.07-.51.12-.77.16-.08.03-.17.05-.26.05-.28.06-.57.12-.86.17-.11.03-.23.05-.35.06-.46.09-.93.16-1.4.23h-.02s-.06.01-.09.01c-.06.02-.12.02-.19.03l-.91.12c-.39.05-.79.09-1.19.13-.41.04-.82.07-1.24.1-.03.01-.06.01-.09.01-.38.03-.77.05-1.15.07-.8.04-1.6.06-2.41.06h-.38v-74.85c18.74-1.87 34.03-6.61 44.79-10.87 2.3-.91 4.41-1.8 6.28-2.63Z"></path></g>
</svg>
