<svg xmlns="http://www.w3.org/2000/svg" viewBox="0 0 192.51 289.53">
  <path className="body-mask" fill="#fff" d="m191.84 194.31-27.86-92.9v-.65h-.19l-.04-.13s.03-.01.04-.02c-.02-.01-.04-.03-.06-.04l-.02-.05h-.04c-.39-.28-.92-.67-1.58-1.14-4.62-3.27-20.54-13.69-66.35-13.26-42.65.4-59.55 9.73-65.37 13.26-.77.47-1.39.86-1.82 1.13v.8L.67 194.3c-.28.94-.47 1.88-.57 2.82-.16 1.42-.12 2.83.11 4.2.04.27.09.53.15.8.13.61.29 1.21.5 1.79a17.09 17.09 0 0 0 .52 1.3c1.75 3.91 5.1 7.07 9.51 8.45 1.34.42 2.69.64 4.04.69.83.03 1.65 0 2.47-.11 5.04-.62 9.57-3.72 11.92-8.39.01 0 .01-.02.02-.03.3-.56.58-1.15.81-1.77l4.71-12.28s.05.02.08.03c3.41 1.36 7.28 2.76 11.57 4.11 13.1 4.11 30.17 7.69 50.2 7.66 5.61-.01 10.99-.31 16.11-.82v.2c18.74-1.87 34.03-6.61 44.79-10.87.02 0 .04-.02.07-.03l4.7 12.29c2.31 6.04 8.2 10.03 14.59 10.02.17 0 .35-.01.52-.02.23 0 .45 0 .68-.03.04 0 .09-.01.13-.01.22-.02.44-.05.66-.07.15-.02.3-.04.45-.07.74-.12 1.49-.27 2.22-.5 6.64-2.07 10.89-8.19 10.89-14.8 0-1.5-.21-3.03-.67-4.55Z"></path>
</svg>
