<svg xmlns="http://www.w3.org/2000/svg" viewBox="0 0 295.86 424.09">
  <path className="legs-mask" fill="#fff" d="M180.08 410.48c-4.5-2.82-10.42-4.97-16.66-6.6-5.43-1.44-11.11-2.47-16.3-3.21.03-.18.07-.37.1-.55.74-4.03 1.45-8.17 2.11-12.43.1-.62.19-1.25.29-1.88.09-.63.2-1.25.28-1.88.6-4.04 1.16-8.19 1.67-12.43.08-.62.15-1.25.22-1.88s.15-1.24.22-1.88c.46-4.05.88-8.2 1.25-12.43.05-.62.1-1.25.16-1.88s.1-1.25.15-1.88c.32-4.07.59-8.22.82-12.44l.09-1.88.09-1.88c.18-4.08.31-8.22.39-12.43v-.18c.02-1.2.04-2.39.05-3.58.07-6.62 0-13.07-.2-19.34 5.65-5.7 9.12-10.97 10.48-13.04.11-.16.22-.33.33-.5 1.62-2.49 3.46-5.51 4.8-8.79 1.73-4.21 2.64-8.85 1.23-13.35-1.02-3.24-3.13-5.97-5.98-8.25-2.42-1.97-5.38-3.62-8.66-5-.35-.15-.7-.29-1.06-.43-.31-.13-.63-.25-.94-.36-.78-.3-1.57-.58-2.37-.84l-.9-.3-1.38-.42c-2.38-.7-4.84-1.31-7.32-1.83-.76-.16-1.52-.31-2.28-.45-2.23-.42-4.46-.77-6.64-1.07a139.826 139.826 0 0 0-5.87-.68c-.42-.05-.84-.09-1.26-.12-.92-.09-1.81-.16-2.69-.23-.71-.05-1.41-.1-2.09-.14-.38-.03-.75-.05-1.12-.07-.44-.02-.87-.05-1.3-.07-.42-.03-.84-.05-1.25-.07l-1.28-.06c-.78-.03-1.51-.05-2.2-.07-.23-.01-.45-.01-.67-.02-.18-.01-.35-.01-.51-.01-1.34-.03-2.44-.04-3.25-.04-3.25 0-11.13.13-20.22 1.17-6.31.72-13.2 1.89-19.52 3.76-2.31.68-4.54 1.46-6.64 2.35-7.14 3.01-12.76 7.25-14.64 13.25-2.57 8.21 2.59 16.89 6.31 22.54 1.37 2.08 4.85 7.37 10.53 13.09-.2 6.29-.27 12.76-.2 19.4 0 1.19.02 2.38.04 3.58v.18c.08 4.21.21 8.35.4 12.43.05 1.26.11 2.51.17 3.76.22 4.22.5 8.37.82 12.44.09 1.26.2 2.52.31 3.76.36 4.23.78 8.38 1.24 12.43.14 1.27.29 2.52.44 3.76.51 4.24 1.07 8.39 1.67 12.43l.57 3.76c.67 4.26 1.37 8.4 2.11 12.43.03.18.07.37.1.55-5.2.74-10.87 1.77-16.3 3.21-6.23 1.63-12.15 3.78-16.65 6.6-3.7 2.32-4.55 4.25-3.64 5.84.88 1.55 3.43 2.78 6.66 3.76 8.39 2.54 21.36 3.33 21.36 3.33s20.8 2.89 29.29-3.33c1.37-.99 2.42-2.23 3.01-3.76.66-1.72.74-3.81.03-6.34-.27-.95-.71-3.08-1.26-6.1-.21-1.13-.43-2.39-.67-3.76-.61-3.51-1.3-7.73-2.03-12.43-.18-1.22-.37-2.48-.57-3.76-.59-3.93-1.18-8.11-1.76-12.43a796.525 796.525 0 0 1-2.02-16.19c-.13-1.26-.27-2.51-.41-3.76-.44-4.25-.84-8.43-1.16-12.44-.1-1.27-.19-2.53-.28-3.76-.28-4.11-.47-7.98-.53-11.48-.01-.32-.01-.64-.01-.95-.03-1.26-.04-2.51-.05-3.76-.01-1.65-.02-3.3-.02-4.93 6.74 2.97 14.57 4.93 23.52 4.93 3.67 0 7.16-.33 10.46-.93h.02c.59-.11 1.15-.24 1.73-.37v.13c4.04-.87 7.78-2.12 11.24-3.64.01 0 .01-.01.02-.01s.03-.01.04-.02c0 1.6 0 3.21-.02 4.83 0 1.25-.01 2.5-.04 3.76 0 .31 0 .63-.01.95-.06 3.5-.25 7.37-.53 11.48-.04.61-.09 1.25-.14 1.88-.05.63-.09 1.24-.14 1.88-.32 4.01-.71 8.19-1.16 12.44-.07.62-.14 1.25-.2 1.88l-.21 1.88c-.47 4.16-.98 8.33-1.52 12.43-.08.63-.17 1.25-.25 1.88s-.16 1.26-.25 1.88c-.58 4.31-1.17 8.5-1.76 12.43-.09.64-.19 1.27-.29 1.9s-.19 1.25-.28 1.86c-.73 4.7-1.42 8.92-2.03 12.43-.24 1.37-.46 2.63-.67 3.76-.55 3.02-.99 5.15-1.26 6.1-.71 2.53-.63 4.62.03 6.34.15.38.32.75.53 1.09.61 1.04 1.45 1.92 2.47 2.67 8.48 6.22 29.3 3.33 29.3 3.33s12.97-.79 21.36-3.33c1.21-.37 2.33-.77 3.29-1.21.32-.15.63-.3.92-.45 1.15-.62 2.01-1.32 2.45-2.09.91-1.59.06-3.52-3.64-5.84Z"></path>
</svg>
