<svg xmlns="http://www.w3.org/2000/svg" viewBox="0 0 273.63 383.69">
  <g className="head"><path fill="#5849d6" d="M219.73 73.34h-5.66V49.29h5.66c6.64 0 12.02 5.39 12.02 12.02 0 6.64-5.39 12.02-12.02 12.02Z"></path><path fill="#9bacbf" d="M160.81 106.88v8.14c0 8.07-5.71 14.6-12.76 14.6-7.04 0-12.76-6.54-12.76-14.6v-8.2c4.1 1.27 8.4 1.95 12.85 1.95s8.63-.66 12.66-1.89Z"></path><path fill="#0e2837" d="M73.19 15.46h2.46v43.12h-2.46z"></path><path fill="#5849d6" d="M76.67 48.94h5.66v24.05h-5.66c-6.64 0-12.02-5.39-12.02-12.02 0-6.64 5.39-12.02 12.02-12.02Z"></path><rect width="136.49" height="96.89" x="79.9" y="12.52" fill="#e7ebef" rx="41.04" ry="41.04"></rect><path fill="#dae0e7" d="M216.19 73.34c-2.45 20.32-19.75 36.07-40.73 36.07h-17.31V12.52h17.31c21.22 0 38.68 16.11 40.81 36.77l-.08 24.05Z"></path><path fill="#f7f7f7" d="M146.45 33.69h-30.52c-3.87 0-7-3.13-7-7s3.13-7 7-7h30.52c3.87 0 7 3.13 7 7s-3.13 7-7 7Z"></path><rect width="109.84" height="39.25" x="91.53" y="39.82" fill="#102f42" rx="19.62" ry="19.62"></rect><path fill="#184663" d="M181.74 39.82h-70.58c-10.84 0-19.62 8.79-19.62 19.62h109.84c0-10.84-8.79-19.62-19.62-19.62Z"></path><circle cx="172.29" cy="59.45" r="8.5" fill="#8276e0" transform="rotate(-67.5 172.29 59.442)"></circle><circle cx="124" cy="59.45" r="8.5" fill="#8276e0" transform="rotate(-67.5 123.998 59.452)"></circle><circle cx="74.42" cy="8.23" r="8.23" fill="#5849d6"></circle><path fill="#867ae1" d="M74.42 14.51a6.29 6.29 0 0 1-6.28-6.28c0-.83.67-1.5 1.5-1.5s1.5.67 1.5 1.5c0 1.81 1.47 3.28 3.28 3.28.83 0 1.5.67 1.5 1.5s-.67 1.5-1.5 1.5Z"></path></g>
  <g className="body"><path fill="#9bacbf" d="M72.13 189.88c-1.62-.46-3.17-1.22-4.58-2.26l-32.93-24.55 8.07-10.82 32.93 24.55c.06.04.19.14.42.08.23-.07.29-.22.31-.29l19.8-51.56 12.6 4.84-19.8 51.56c-1.58 4.12-4.92 7.19-9.16 8.41-2.56.74-5.19.74-7.66.04Z"></path><path fill="#5849d6" d="M43.45 162.29c4.45-5.86 3.55-14.05-2.55-18.68l-16.13 21.23c6.1 4.63 14.23 3.31 18.68-2.55Z"></path><path fill="#8276e0" d="M38.93 158.36c-9.27 12.2-26.73 14.58-38.93 5.32l11.59-15.25c4.07 3.09 9.22 2.14 12.1-1.65s2.41-9.01-1.65-12.1l11.59-15.25c12.2 9.27 14.58 26.73 5.31 38.93Z"></path><path fill="#958be5" d="M17.09 164.08c-1.56 0-3.14-.16-4.71-.48a3.495 3.495 0 0 1-2.73-4.13c.38-1.9 2.24-3.12 4.13-2.73 5.74 1.16 11.56-.76 15.18-5.03a3.5 3.5 0 0 1 4.93-.4 3.5 3.5 0 0 1 .4 4.93c-4.27 5.03-10.59 7.83-17.2 7.83Z"></path><circle cx="78.36" cy="185.32" r="11.91" fill="#5849d6"></circle><path fill="#867ae1" d="M78.36 194.24c-4.92 0-8.91-4-8.91-8.91 0-1.1.9-2 2-2s2 .9 2 2c0 2.71 2.2 4.91 4.91 4.91 1.1 0 2 .9 2 2s-.9 2-2 2Z"></path><path fill="#e7ebef" d="M182.73 113.62H112.8c-10.32 0-18.31 7.77-17.07 16.6l9.25 75.04c.33 2.7 2.97 4.74 6.12 4.74h24.8v40.83h23.75V210h24.8c3.15 0 5.78-2.05 6.12-4.74l9.25-75.04c1.24-8.83-6.75-16.6-17.07-16.6Z"></path><path fill="#8fa2b7" d="M182.31 126.16c-8.74 0-14.85 1.05-15.48 1.16l2.85 16.05c.32-.06 32.34-5.43 51.79 10.92 10.25 8.62 15.45 22.42 15.45 40.29h16.3c0-22.98-7.18-40.98-21.34-52.84-15.51-12.99-35.79-15.58-49.57-15.58Z"></path><path fill="#5849d6" d="M245.42 179.97c7.36 0 13.33 5.67 13.33 13.33h-26.66c0-7.66 5.97-13.33 13.33-13.33Z"></path><path fill="#dae0e7" d="M200.02 127.66c-.46-7.71-7.87-14.04-17.18-14.04h-24.92c.61 32.13 1.23 64.25 1.84 96.38h24.78c.61 0 1.19-.08 1.75-.22 2.33-.59 4.1-2.35 4.37-4.52l7.56-61.35 1.69-13.69c.12-.87.15-1.72.11-2.56Z"></path><path fill="#8276e0" d="M247.25 189.28c15.3.77 27.12 13.85 26.35 29.15l-19.13-.97c.26-5.1-3.43-8.82-8.19-9.06-4.75-.24-8.8 3.09-9.06 8.19l-19.13-.97c.77-15.3 13.85-27.12 29.15-26.35Z"></path><path fill="#958be5" d="M263.33 213.1c-1.37 0-2.66-.8-3.23-2.14-2.27-5.39-7.15-9.11-12.72-9.7a3.496 3.496 0 0 1-3.11-3.85c.2-1.92 1.93-3.31 3.85-3.11 8.11.86 15.17 6.2 18.43 13.95.75 1.78-.09 3.83-1.87 4.58-.44.19-.9.28-1.36.28Z"></path><path fill="#f7f7f7" d="M120.78 199.76c-3.5 0-6.52-2.62-6.94-6.18l-6.96-59.11c-.45-3.84 2.29-7.32 6.13-7.77 3.84-.45 7.32 2.29 7.77 6.13l6.96 59.11c.45 3.84-2.29 7.32-6.13 7.77-.28.03-.55.05-.83.05Z"></path><circle cx="233.95" cy="155.62" r="11.91" fill="#5849d6"></circle><path fill="#867ae1" d="M233.95 164.53c-4.92 0-8.92-4-8.92-8.92 0-1.1.9-2 2-2s2 .9 2 2a4.93 4.93 0 0 0 4.92 4.92c1.1 0 2 .9 2 2s-.9 2-2 2Z"></path></g>
  <g className="legs"><path fill="#8fa2b7" d="m197.17 232.15-.4 3.04-.48 3.76-1.68 12.88c-.33 2.77-.65 5.54-.98 8.31-.14 1.25-.29 2.51-.44 3.76l-2.49 21.19c-.14 1.25-.29 2.51-.44 3.76l-2.49 21.18c-.14 1.26-.29 2.51-.44 3.77l-2.49 21.18-.45 3.77c-.54 4.66-1.09 9.33-1.64 13.99v.02l-.39 3.29c-7.15.2-14.31.41-21.46.61-.01-1.22-.03-2.43-.04-3.65-.01-.01 0-.01 0-.01-.06-4.75-.11-9.5-.17-14.25-.02-1.25-.03-2.51-.05-3.77-.08-7.06-.16-14.12-.25-21.18-.01-1.25-.03-2.51-.04-3.77-.09-7.06-.17-14.12-.25-21.18-.02-1.25-.03-2.5-.05-3.76-.08-7.06-.16-14.12-.25-21.19-.01-1.25-.03-2.51-.04-3.76-.03-2.77-.07-5.54-.1-8.31h-.02v-41.84l26.54-.19-.75 9.04c7.12 0 12.63 6.24 11.74 13.31Z"></path><path fill="#9bacbf" d="M135.89 209.99v41.84h-.01c-.03 2.77-.07 5.54-.1 8.31-.01 1.25-.03 2.51-.04 3.76-.09 7.07-.17 14.13-.26 21.19-.01 1.26-.03 2.51-.04 3.76-.09 7.06-.17 14.12-.25 21.18-.02 1.26-.03 2.52-.05 3.77-.08 7.06-.17 14.12-.25 21.18-.02 1.26-.03 2.52-.05 3.77-.05 4.74-.11 9.5-.17 14.24v.02c-.01 1.22-.03 2.43-.04 3.65-7.15-.2-14.3-.41-21.45-.61-.13-1.07-.26-2.17-.38-3.31-.51-4.28-1.07-9-1.66-13.99-.15-1.24-.3-2.5-.45-3.77-.8-6.8-1.66-13.99-2.51-21.18-.15-1.26-.3-2.51-.44-3.77-.87-7.26-1.73-14.45-2.52-21.18-.16-1.27-.31-2.53-.45-3.76-.98-8.18-1.85-15.51-2.53-21.19-.16-1.35-.31-2.61-.45-3.76l-.99-8.31-1.61-12.88-.48-3.76-.29-2.35c-.07-.53-.1-1.05-.1-1.57 0-6.76 5.5-12.43 12.46-12.43l-.74-8.93c.34.05.69.08 1.05.08h24.8Z"></path><path fill="#dae0e7" d="M115.46 351.71h16.29c2.18 0 3.95 1.77 3.95 3.95v8.36h-24.2v-8.36c0-2.18 1.77-3.95 3.95-3.95Z"></path><rect width="58.34" height="24.03" x="82.35" y="359.67" fill="#e7ebef" rx="11.5" ry="11.5"></rect><circle cx="94.84" cy="371.25" r="9.03" fill="#9bacbf"></circle><circle cx="128.47" cy="371.25" r="9.03" fill="#9bacbf"></circle><circle cx="128.47" cy="371.25" r="3.06" fill="#e7ebef"></circle><circle cx="94.84" cy="371.25" r="3.06" fill="#e7ebef"></circle><path fill="#dae0e7" d="M184.04 364.01h-24.2v-8.36c0-2.18 1.77-3.95 3.95-3.95h16.29c2.18 0 3.95 1.77 3.95 3.95v8.36Z"></path><rect width="58.34" height="24.03" x="154.85" y="359.67" fill="#e7ebef" rx="11.5" ry="11.5" transform="rotate(180 184.02 371.68)"></rect><circle cx="200.7" cy="371.25" r="9.03" fill="#9bacbf"></circle><circle cx="167.07" cy="371.25" r="9.03" fill="#9bacbf"></circle><circle cx="167.07" cy="371.25" r="3.06" fill="#e7ebef"></circle><circle cx="200.7" cy="371.25" r="3.06" fill="#e7ebef"></circle><path fill="#b4c1cf" d="M135.89 235.19v3.76h-36.7l-.48-3.76h37.18zM196.77 235.19l-.48 3.76h-36.65v-3.76h37.13zM101.79 260.14h33.99c-.01 1.25-.03 2.51-.04 3.76h-33.5c-.16-1.35-.31-2.61-.45-3.76ZM193.63 260.14c-.14 1.25-.29 2.51-.44 3.76H159.8c-.01-1.25-.03-2.51-.04-3.76h33.87ZM104.77 285.09h30.71c-.01 1.26-.03 2.51-.04 3.76h-30.22c-.16-1.27-.31-2.53-.45-3.76ZM190.7 285.09c-.14 1.25-.29 2.51-.44 3.76H160.1c-.02-1.25-.03-2.5-.05-3.76h30.65ZM107.74 310.03h27.45c-.02 1.26-.03 2.52-.05 3.77h-26.96c-.15-1.26-.3-2.51-.44-3.77ZM187.77 310.03c-.14 1.26-.29 2.51-.44 3.77h-26.94c-.01-1.25-.03-2.51-.04-3.77h27.42ZM110.69 334.98h24.2c-.02 1.26-.03 2.52-.05 3.77h-23.7c-.15-1.24-.3-2.5-.45-3.77ZM184.84 334.98l-.45 3.77h-23.7c-.02-1.25-.03-2.51-.05-3.77h24.2Z"></path></g>
</svg>