<svg xmlns="http://www.w3.org/2000/svg" viewBox="0 0 192.51 289.53">
  <path className="legs-mask" fill="#fff" d="M179.81 243a15.865 15.865 0 0 0-8.36-12.94 15.23 15.23 0 0 0-4-1.48c-1.11-.26-2.27-.39-3.46-.39h-.1v-38.94a166.78 166.78 0 0 1-51.07 13.5c-5.12.51-10.5.81-16.11.82-31.06.05-54.98-8.58-68.06-14.41v37.77c0 .42.01.84.02 1.26h-.11c-1.19 0-2.34.13-3.45.38-1.42.31-2.76.81-4 1.48a15.816 15.816 0 0 0-8.36 12.89c-.39 5.66-.55 10.97-.55 15.92 0 5.55.2 10.84.55 15.84.39 5.65 3.68 10.46 8.36 12.96 1.24.67 2.59 1.18 4 1.49 1.11.25 2.27.38 3.45.38s2.35-.13 3.46-.38c1.41-.31 2.74-.82 3.98-1.48h.02c1.62-.87 3.08-2.02 4.3-3.38 2.31-2.56 3.8-5.87 4.05-9.53.1-1.44.18-2.86.24-4.25.12-2.13.19-4.22.25-6.25v-.09a50.87 50.87 0 0 0 27.41 13.12l1.18.15c1.18.14 2.38.24 3.58.3.83.04 1.67.06 2.51.06h33.66c.81 0 1.61-.02 2.41-.06.38-.02.77-.04 1.15-.07.03 0 .06 0 .09-.01a43.32 43.32 0 0 0 2.43-.23l.91-.12c.07-.01.13-.01.19-.03.03 0 .06 0 .09-.01h.02c.47-.07.94-.14 1.4-.23.12-.01.24-.03.35-.06.29-.05.58-.11.86-.17.09 0 .18-.02.26-.05.26-.04.51-.09.77-.16.39-.09.79-.18 1.18-.28.38-.09.75-.19 1.13-.29.07-.02.13-.03.2-.06.72-.19 1.43-.41 2.14-.64.38-.12.76-.25 1.14-.38.37-.13.75-.27 1.12-.41.29-.11.59-.22.88-.34.03-.01.05-.02.08-.03 1.52-.61 3.01-1.29 4.46-2.04.43-.22.86-.45 1.28-.69.05-.02.1-.05.15-.08.03-.02.06-.03.09-.05.27-.14.52-.29.78-.44.04-.03.09-.05.13-.08.35-.2.7-.41 1.04-.62l.17-.11c1.09-.69 2.15-1.41 3.17-2.16.05-.04.11-.08.16-.12.4-.29.79-.59 1.18-.9l.29-.23c.47-.37.92-.75 1.37-1.14.48-.41.96-.84 1.43-1.27v.2a230.427 230.427 0 0 0 .48 10.26c.24 3.7 1.75 7.02 4.06 9.59a16.04 16.04 0 0 0 4.3 3.38c1.24.67 2.58 1.17 4 1.49 1.11.24 2.26.37 3.45.37s2.35-.13 3.46-.38c1.42-.31 2.76-.82 4-1.48 4.67-2.5 7.95-7.28 8.34-12.91.39-5.66.56-10.98.56-15.9 0-5.57-.2-10.86-.54-15.86Z"></path>
</svg>
