<svg xmlns="http://www.w3.org/2000/svg" viewBox="0 0 210.04 206.97">
  <g className="head"><path fill="#9bacbf" d="M167.14 89.93c-.12 2.05-.25 4.09-.37 6.14-.07 1.24-.15 2.46-.23 3.7v.07l-.12 2c-.03.52-.07 1.18-.11 1.92-.12 1.96-.27 4.45-.38 6.16-.05 1.04-.1 1.79-.11 1.98l-.12 2.03-.78 12.88v-.02l-.12-.54-.12-.53c-.18-.75-.38-1.48-.61-2.21-.11-.37-.23-.73-.36-1.08-.25-.72-.53-1.42-.83-2.11-.11-.26-.23-.52-.35-.78l-.3-.63c-.17-.35-.34-.69-.52-1.03-.02-.04-.05-.08-.06-.12-.01-.01-.02-.02-.02-.03-.25-.44-.5-.88-.76-1.31-.12-.2-.24-.4-.36-.59-.13-.2-.25-.39-.38-.58-.1-.17-.21-.33-.33-.49-.36-.52-.73-1.03-1.13-1.53-.22-.29-.44-.57-.67-.84-.22-.27-.45-.54-.69-.81-.18-.2-.35-.39-.53-.58h-.01c-.22-.25-.47-.5-.71-.75-.54-.54-1.09-1.06-1.66-1.54a32.392 32.392 0 0 0-9.4-5.77 32.783 32.783 0 0 0-4.58-1.43c-.53-.13-1.06-.24-1.59-.33-.8-.14-1.61-.26-2.43-.34a30.405 30.405 0 0 0-3.32-.17h-5.32v-.02h.01c.07-.39.15-.76.23-1.14l.42-2.04c.13-.63.26-1.26.38-1.89 0-.02.02-.05.02-.07.31-1.47.61-2.93.91-4.4l1.26-6.11 36.17 4.93Z"></path><path fill="#b4c1cf" d="m128.78 95.58 37.76 4.19v.07l-.12 2c-.03.52-.07 1.18-.11 1.92l-38.33-4.25.8-3.93ZM165.93 109.92c-.05 1.04-.1 1.79-.11 1.98l-.12 2.03-7.01-.7h-.03c-.22-.29-.44-.57-.67-.84-.22-.27-.45-.54-.69-.81-.18-.2-.35-.39-.53-.58h-.01c-.22-.25-.47-.5-.71-.75-.54-.54-1.09-1.06-1.66-1.54h.04l11.5 1.21Z"></path><path fill="#e7ebef" d="M164.07 123.51c.23.73.44 1.46.61 2.21-.18-.75-.38-1.48-.61-2.21Z"></path><path fill="#e90563" d="m172.981 88.493 12.98.537c.959.04 1.706.851 1.666 1.81l-.269 6.495a8.241 8.241 0 0 1-16.466-.681l.269-6.495c.04-.96.851-1.706 1.81-1.667Z"></path><path fill="#fb3789" d="M176.25 102.55c1.96.94 4.29.98 6.18-.19 1.7-1.05 2.64-2.79 2.88-4.73.05-.39.07-.8.02-1.2-.08-.72-.58-1.44-1.4-1.4-.69.03-1.49.62-1.4 1.4.01.12.02.25.02.37 0 .26-.07.54-.04.79.04-.26.04-.31.02-.16 0 .05-.02.1-.02.14-.01.07-.03.15-.05.22-.04.19-.09.37-.16.55-.02.05-.04.11-.06.16-.06.14-.04.11.04-.09-.02 0-.1.21-.12.25-.11.21-.24.41-.38.61-.06.08-.04.05.07-.09-.04.05-.09.1-.13.15-.08.09-.17.18-.26.26-.05.05-.36.32-.09.1-.1.08-.21.15-.31.21s-.21.13-.33.19c-.04.02-.41.18-.22.11s-.2.06-.23.08c-.12.04-.24.07-.36.1-.11.03-.25.07-.37.07h-.11c-.25.01-.5 0-.75-.02-.11-.01-.07 0 .1.02-.07-.01-.14-.02-.21-.04-.13-.02-.25-.05-.37-.09s-.24-.08-.37-.12c-.15-.06-.14-.05.02.02-.07-.03-.14-.06-.2-.1-.66-.32-1.54-.2-1.92.5-.33.63-.2 1.58.5 1.92Z"></path><path fill="#dae0e7" d="M168.7 1.6c-7.09-.29-13.86 20.11-18.39 37.65-2.73 10.58 5.02 20.98 15.94 21.44 10.92.45 19.51-9.27 17.66-20.04-3.06-17.86-8.13-38.75-15.21-39.05Z"></path><path fill="#e7ebef" d="m194.47 70.56-7.31-.3 1.04-25.18c.03-.8-.02-1.59-.14-2.35-.52-3.45-2.49-6.45-5.29-8.31-1.8-1.22-3.95-1.96-6.28-2.05l-24.04-1-27.83-1.16c-6.74-.28-12.44 4.96-12.72 11.71l-.7 16.89c-.8 19.28 14.18 35.55 33.46 36.36l41.39 1.71 7.31.3c7.35.3 13.56-5.41 13.86-12.76.3-7.35-5.41-13.56-12.76-13.86Z"></path><circle cx="202.24" cy="75.15" r="7.8" fill="#102f42"></circle><path fill="#dae0e7" d="M125.2 0c-8.19-.34-16.02 23.23-21.25 43.5-3.16 12.23 5.8 24.24 18.42 24.77 12.62.52 22.54-10.71 20.41-23.16C139.23 24.48 133.38.34 125.2 0Z"></path><path fill="#102f42" d="m188.2 45.08-1.04 25.18-29.76-1.24c-7.6-.31-13.5-6.73-13.19-14.33.18-4.33 2.33-8.1 5.56-10.49 2.44-1.81 5.5-2.84 8.78-2.7l25.59 1.06 3.93.17c.12.76.17 1.55.14 2.35Z"></path><circle cx="121.41" cy="51" r="4.28" fill="#102f42"></circle><path fill="#184663" d="M207.18 77.36h-.06a1.5 1.5 0 0 1-1.44-1.56c.09-2.17-1.6-4.01-3.77-4.1-.83-.03-1.47-.73-1.44-1.56s.74-1.5 1.56-1.44c3.82.16 6.8 3.4 6.65 7.22a1.5 1.5 0 0 1-1.5 1.44ZM144.38 57.47l43.26 1.32c.04-.95.1-2.39.19-4.15.09-1.65.11-1.71.2-3.35.17-3.15.26-4.75.18-6.22l-.14-2.35-29.52-1.23c-.77-.03-6.64-.17-10.89 4.64-4.23 4.79-3.4 10.57-3.28 11.33Z"></path><circle cx="174.8" cy="58" r="3.21" fill="#fff"></circle><circle cx="162.07" cy="57.47" r="3.21" fill="#fff"></circle><path fill="#dae0e7" d="M125.2 0c-8.19-.34-16.02 23.23-21.25 43.5-3.16 12.23 5.8 24.24 18.42 24.77 12.62.52 22.54-10.71 20.41-23.16C139.23 24.48 133.38.34 125.2 0Z"></path><path fill="#fff" d="M111.72 48.17c-.25 0-.5-.03-.75-.1a2.991 2.991 0 0 1-2.15-3.65c5.6-21.7 10.14-31.51 12.96-35.91.89-1.4 2.75-1.8 4.14-.91 1.4.89 1.8 2.75.91 4.14-2.11 3.31-6.51 12.15-12.2 34.18a3.006 3.006 0 0 1-2.9 2.25Z"></path></g>
  <g className="body"><path fill="#9bacbf" d="M71.2 107.54h16.82v51.64H71.2zM36.99 126.27c-5.59-2.78-13.73-7.85-20.23-16.8C7.75 97.06 6 82.82 7.27 82.33c1.22-.47 4.15 12.25 15.5 22.69 7.82 7.19 16.68 10.59 23.49 12.35L37 126.29Z"></path><path fill="#e7ebef" d="m73.93 108.16-.96 48.19c-.02 1-.22 1.96-.56 2.83a8.285 8.285 0 0 1-6.06 5.07c-.52.11-1.06.16-1.61.16h-.23c-4.86-.1-9.45-1.28-13.54-3.3a32.348 32.348 0 0 1-17.95-29.01v-.66c.36-17.85 15.03-32.03 32.77-31.67 4.37.05 7.88 3.48 8.12 7.77 0 .2.02.41 0 .62Z"></path><circle cx="7.27" cy="82.32" r="7.27" fill="#e90563"></circle><path fill="#e7ebef" d="M165.58 133.36a32.72 32.72 0 0 1-14.68 27.35 32.095 32.095 0 0 1-15.5 5.26c-.77.06-1.55.09-2.33.09h-19.2c-.52 0-5.38-.04-11.85-.09-3.98-.03-8.58-.07-13.15-.11-4.06-.03-7.45-2.88-8.31-6.69-.14-.61-.21-1.25-.21-1.9v-47.83c0-.66.08-1.3.21-1.91.86-3.81 4.25-6.66 8.31-6.69l25-.2h19.2c8.98 0 17.11 3.66 22.99 9.58 5.88 5.92 9.52 14.1 9.52 23.13Z"></path><path fill="#dae0e7" d="M165.58 133.36a32.72 32.72 0 0 1-14.68 27.35 32.002 32.002 0 0 1-15.5 5.27c-.77.06-1.54.09-2.33.09h-19.2c-.32 0-2.3-.02-5.28-.04l.28-12.7 1.16-52.65 3.84-.03h19.2c8.98 0 17.11 3.67 22.99 9.58.24.25.49.5.71.75h.01a32.67 32.67 0 0 1 8.15 15.85c.43 2.11.65 4.3.65 6.53Z"></path><path fill="#fb3789" d="M7.92 87.72c-3.33 0-6.05-2.71-6.05-6.05 0-.83.67-1.5 1.5-1.5s1.5.67 1.5 1.5c0 1.68 1.37 3.05 3.05 3.05.83 0 1.5.67 1.5 1.5s-.67 1.5-1.5 1.5Z"></path><path fill="#fff" d="M41.53 134.74h-.09a2.997 2.997 0 0 1-2.91-3.09v-.13c.29-14.47 12.23-26.26 26.62-26.26 1.66 0 3 1.34 3 3s-1.34 3-3 3c-11.14 0-20.39 9.15-20.61 20.4v.16a2.997 2.997 0 0 1-3 2.91ZM103.52 111.27H87.14c-1.66 0-3-1.34-3-3s1.34-3 3-3h16.38c1.66 0 3 1.34 3 3s-1.34 3-3 3Z"></path></g>
  <g className="legs"><path fill="#9bacbf" d="m66.38 164.25-.02.62-.16 4-.11 2.84-.16 4-.05 1.27-.33 8.37-6.26-.25h-.01l-2.77-.11h-.01l-4.52-.18-1.91-.07.11-2.84v-.06l.21-5.28s-.01 0 0 0l.03-.84.16-4 .11-2.84.16-4 .14-3.76c4.09 2.02 8.68 3.2 13.54 3.3h.24c.55 0 1.08-.05 1.61-.16ZM117.53 166.07v19.15h-15.49v-19.24l6.56.05c1.17 0 2.19.02 3.01.02h1.34c.5.01.82.01.93.01h3.65ZM150.91 160.71v24.51h-15.49v-19.24c2.21-.16 4.36-.53 6.42-1.11 1.6-.45 3.14-1.02 4.63-1.69.39-.18.77-.36 1.15-.55 1.14-.58 2.23-1.22 3.29-1.92ZM47.152 199.172l22.623.889a6.628 6.628 0 0 1 6.355 6.875l-.002.04-29.237-1.15.261-6.654ZM99.74 199.58h22.64c3.65 0 6.62 2.97 6.62 6.62v.04H99.74v-6.66Z"></path><path fill="#b4c1cf" d="m66.36 164.87-.16 4H50.69l.16-4h15.51zM117.53 166.07v2.8h-15.49v-2.89l6.56.05c1.17 0 2.19.02 3.01.02h1.34c.5.01.82.01.93.01h3.65ZM150.91 164.87v4h-15.49v-2.89c2.21-.16 4.36-.53 6.42-1.11h9.07ZM66.09 171.71H50.58l-.16 4h15.51l.16-4zM135.41 171.72h15.5v4h-15.5zM102.04 171.71h15.49v4h-15.49z"></path><path fill="#e7ebef" d="m57.773 173.525 1.12.044c5.295.208 9.433 4.674 9.225 9.98l-.646 16.427-20.324-.799.645-16.427c.208-5.296 4.674-9.434 9.98-9.225Z"></path><circle cx="57.8" cy="187.33" r="2.68" fill="#102f42" transform="rotate(-45.02 57.804 187.324)"></circle><path fill="#fff" d="M50.57 197.09h-.04a.998.998 0 0 1-.96-1.04l.48-13.18a6.329 6.329 0 0 1 6.34-6.11c.55 0 1 .45 1 1s-.45 1-1 1c-2.34 0-4.25 1.84-4.34 4.18l-.48 13.17c-.02.54-.46.96-1 .96Z"></path><path fill="#e7ebef" d="m109.188 173.518 1.12-.007c5.3-.03 9.634 4.245 9.665 9.555l.094 16.44-20.34.117-.094-16.44c-.03-5.3 4.245-9.635 9.555-9.665Z"></path><circle cx="109.84" cy="187.3" r="2.68" fill="#102f42" transform="rotate(-47.6 109.833 187.3)"></circle><path fill="#fff" d="M103.02 197.38c-.55 0-1-.44-1-.99l-.12-13.18a6.337 6.337 0 0 1 6.06-6.39c.56-.03 1.02.4 1.04.95.02.55-.4 1.02-.95 1.04a4.347 4.347 0 0 0-4.15 4.38l.12 13.18c0 .55-.44 1-.99 1.01Z"></path><path fill="#e7ebef" d="m142.488 173.706 1.12-.006c5.3-.031 9.635 4.244 9.665 9.554l.095 16.44-20.34.117-.094-16.44c-.031-5.3 4.244-9.634 9.554-9.665Z"></path><path fill="#fff" d="M136.31 197.56c-.55 0-1-.44-1-.99l-.12-13.18a6.337 6.337 0 0 1 6.06-6.39c.55-.04 1.02.4 1.04.95s-.4 1.02-.95 1.04a4.34 4.34 0 0 0-4.15 4.38l.12 13.18c0 .55-.44 1-.99 1.01Z"></path><circle cx="143.24" cy="187.51" r="2.68" fill="#102f42"></circle><path fill="#9bacbf" d="M133.07 199.62h22.64c3.65 0 6.62 2.97 6.62 6.62v.04h-29.26v-6.66Z"></path></g>
</svg>
