<svg xmlns="http://www.w3.org/2000/svg" viewBox="0 0 210.04 206.97">
  <path className="body-mask" fill="#fff" d="M165.54 131.68c0-.06 0-.12-.01-.18-.03-.5-.06-.99-.11-1.48 0-.05-.01-.09-.02-.14-.05-.5-.11-.99-.19-1.48-.19-1.23-.45-2.44-.77-3.62-.04-.15-.08-.3-.13-.45-.16-.56-.34-1.12-.53-1.67-.04-.11-.08-.23-.12-.34-.23-.64-.48-1.27-.74-1.89-.06-.14-.12-.27-.18-.4-.22-.49-.45-.98-.7-1.46-.08-.16-.16-.32-.25-.48-.31-.58-.63-1.16-.97-1.72-.05-.08-.1-.15-.15-.23-.3-.49-.62-.97-.95-1.45-.11-.16-.22-.32-.34-.48-.33-.46-.68-.92-1.03-1.36-.06-.07-.11-.15-.17-.22a30.8 30.8 0 0 0-1.3-1.49c-.04-.05-.08-.09-.12-.14h-.01c-.22-.25-.47-.5-.71-.75-5.88-5.91-14.01-9.58-22.99-9.58h-19.2l-3.84.03-21.16.17c-4.06.03-7.45 2.89-8.31 6.69h-6.63c-.24-4.29-3.75-7.72-8.12-7.77-11.59-.23-21.86 5.74-27.7 14.88-5.01-2.06-10.38-5.09-15.34-9.65-6.06-5.57-9.72-11.8-12-16.32a7.27 7.27 0 0 0-3.5-13.64C3.23 75.06 0 78.3 0 82.32s3.25 7.27 7.27 7.27c.14 0 .29-.01.43-.02 1.23 5.37 4 12.92 9.07 19.9 5.38 7.42 11.88 12.16 17.14 15.15-.52 2.2-.82 4.48-.86 6.83v.66c0 12.69 7.3 23.73 17.95 29.01 4.09 2.02 8.68 3.2 13.54 3.3h.23c.55 0 1.09-.05 1.61-.16 2.76-.54 5.04-2.48 6.06-5.07h8.14c.86 3.81 4.25 6.66 8.31 6.69 4.57.04 9.17.08 13.15.11 2.48.02 4.72.04 6.57.05s.05 0 .08 0c1.54.01 2.81.02 3.71.03.82 0 1.35.01 1.5.01h19.2c.79 0 1.56-.03 2.33-.09 4.79-.34 9.27-1.72 13.26-3.93.76-.42 1.52-.86 2.24-1.34 8.84-5.85 14.68-15.91 14.68-27.35 0-.56-.01-1.12-.04-1.68Z"></path>
</svg>
