<svg width="162" height="232" viewBox="0 0 162 232" fill="none" xmlns="http://www.w3.org/2000/svg">
<g clip-path="url(#clip0_747_2421)">
<path d="M75.7437 59.4922L74.9168 59.8861L71.5548 61.5053L64.9787 64.6673L60.7023 66.7242H60.4285L56.1466 64.6673L49.5705 61.5053L46.2139 59.8915L45.3926 59.4977L41.5269 62.7636L42.2277 64.6673L42.9834 66.7242L44.3194 70.3567L45.1626 72.6598H76.0831L76.8442 70.3567L78.0489 66.7242L78.7278 64.6673L79.4178 62.594L75.7437 59.4922Z" fill="#102F42"/>
<path d="M38.9695 0V21.3953H32.7603V6.20359C32.7603 2.77903 35.5418 0 38.9695 0Z" fill="#FCBC40"/>
<path d="M135.389 83.5844L130.702 90.4117L129.289 92.4686L127.975 94.3778L126.601 96.38L125.456 98.0431L123.6 100.751L122.187 102.808L117.73 109.301L116.86 110.571L115.365 109.515L114.319 108.776L114.264 108.836L109.457 105.346L108.805 104.881L108.81 104.876L106.872 103.47L105.963 102.808L105.082 102.168L103.132 100.751L100.898 99.1262L100.734 99.0059L100.723 99.0004L100.646 98.9457L90.6699 91.6918L91.1244 91.0681L95.8334 83.5844L95.795 83.5571L96.704 82.2989L105.41 88.5298L105.481 88.5791L105.498 88.59L105.651 88.6994L108.044 90.4117L110.196 91.9544L110.919 92.4686L111.855 93.1415L113.662 94.4325H113.667L115.343 95.636L115.89 94.8647L117.38 92.7531L117.582 92.4686L118.628 90.9916L119.039 90.4117L119.669 89.52L127.416 78.5625L135.389 83.5844Z" fill="#102F42"/>
<path d="M53.5729 227.749C53.2499 228.586 52.6749 229.264 51.9248 229.806C47.276 233.209 35.8869 231.628 35.8869 231.628C35.8869 231.628 28.7851 231.196 24.1911 229.806C22.4225 229.27 21.0262 228.597 20.5443 227.749C20.0461 226.879 20.5115 225.823 22.5374 224.554C25.0014 223.012 28.243 221.835 31.6543 220.944C34.6275 220.156 37.7321 219.593 40.5794 219.188C40.563 219.089 40.5411 218.985 40.5247 218.887C40.1195 216.682 39.7362 214.417 39.3693 212.087C39.2653 211.403 39.1613 210.719 39.0572 210.03C38.7287 207.82 38.4221 205.55 38.1428 203.23C38.0607 202.552 37.9785 201.868 37.9019 201.173C37.65 198.958 37.42 196.687 37.2229 194.373C37.1627 193.695 37.1024 193.006 37.0532 192.316C36.8779 190.09 36.7246 187.82 36.6042 185.511C36.5713 184.827 36.5385 184.143 36.5111 183.454C36.407 181.222 36.3359 178.957 36.2921 176.654V176.556C36.2811 175.899 36.2702 175.248 36.2702 174.597C36.2318 170.965 36.2702 167.426 36.3797 163.985C36.5713 157.699 36.9874 151.747 37.546 146.167H49.0611C48.2452 154.017 47.7196 162.622 47.6922 171.9C47.6922 172.792 47.6977 173.695 47.7031 174.597C47.7086 175.281 47.7141 175.965 47.7305 176.654C47.7305 176.824 47.7305 176.999 47.736 177.174C47.7688 179.089 47.8729 181.206 48.0262 183.454C48.0755 184.127 48.1247 184.816 48.1795 185.511C48.3547 187.705 48.5737 189.991 48.8147 192.316C48.8913 193 48.968 193.684 49.0392 194.373C49.2965 196.644 49.5812 198.93 49.8715 201.173C49.9591 201.863 50.0521 202.552 50.1452 203.23C50.4628 205.593 50.7859 207.88 51.1089 210.03C51.2184 210.73 51.3225 211.42 51.421 212.087C51.8208 214.658 52.1986 216.967 52.5326 218.887C52.664 219.636 52.7845 220.326 52.8994 220.944C53.2006 222.596 53.4415 223.761 53.5894 224.281C53.9781 225.665 53.9343 226.808 53.5729 227.749Z" fill="#102F42"/>
<path d="M98.6038 224.554C96.1398 223.012 92.8982 221.835 89.4815 220.944C86.5083 220.156 83.3981 219.593 80.5563 219.188C80.5728 219.089 80.5947 218.985 80.6111 218.887C81.0163 216.682 81.405 214.417 81.7664 212.087C81.8759 211.403 81.98 210.719 82.0785 210.03C82.4071 207.82 82.7137 205.55 82.993 203.23C83.0751 202.552 83.1572 201.868 83.2339 201.173C83.4858 198.958 83.7157 196.687 83.9183 194.373C83.9786 193.695 84.0333 193.006 84.0881 192.316C84.2633 190.09 84.4111 187.82 84.5371 185.511C84.5699 184.827 84.6028 184.143 84.6301 183.454C84.7287 181.222 84.7999 178.957 84.8437 176.654V176.556C84.8546 175.899 84.8656 175.248 84.8711 174.597C84.9094 170.965 84.8656 167.426 84.7616 163.985C84.5699 157.699 84.1538 151.747 83.5953 146.167H72.0802C72.8413 153.519 73.3505 161.561 73.4326 170.172C73.4381 170.746 73.4436 171.326 73.4436 171.906C73.4436 172.798 73.4436 173.695 73.4326 174.597C73.4326 175.281 73.4271 175.965 73.4107 176.654C73.4107 176.824 73.4107 176.999 73.4052 177.174C73.3724 179.089 73.2684 181.206 73.115 183.454C73.0712 184.127 73.0165 184.816 72.9617 185.511C72.7865 187.705 72.573 189.991 72.3266 192.316C72.2499 193 72.1732 193.684 72.1021 194.373C71.8447 196.649 71.5655 198.93 71.2698 201.173C71.1822 201.863 71.0891 202.552 70.996 203.23C70.6784 205.588 70.3554 207.88 70.0323 210.03C69.9283 210.73 69.8187 211.42 69.7202 212.087C69.3205 214.658 68.9427 216.967 68.6087 218.887C68.4772 219.636 68.3568 220.326 68.2418 220.944C67.9406 222.596 67.6997 223.761 67.5519 224.281C67.1631 225.665 67.2069 226.808 67.5683 227.749C67.8914 228.586 68.4608 229.259 69.211 229.806C73.8542 233.209 85.2544 231.628 85.2544 231.628C85.2544 231.628 92.3562 231.196 96.9502 229.806C98.7188 229.27 100.115 228.597 100.597 227.749C101.095 226.879 100.63 225.823 98.6038 224.554Z" fill="#102F42"/>
<path d="M86.9246 127.973L86.3113 133.903H71.6368C71.1604 133.848 70.684 133.799 70.2186 133.755C69.9887 133.728 69.7587 133.706 69.5287 133.689C69.025 133.64 68.5376 133.602 68.0558 133.564C67.667 133.536 67.2837 133.509 66.9114 133.487C66.7033 133.471 66.5007 133.46 66.2981 133.449C66.0572 133.438 65.8217 133.421 65.5863 133.41C65.3563 133.394 65.1264 133.383 64.9019 133.372C64.6609 133.361 64.431 133.35 64.201 133.339C63.7739 133.323 63.3742 133.312 62.9964 133.301C62.8704 133.295 62.75 133.295 62.6295 133.29C62.5309 133.285 62.4379 133.285 62.3502 133.285C61.6165 133.268 61.0142 133.263 60.5707 133.263C58.7911 133.263 54.4764 133.334 49.4991 133.903H34.8301L34.2168 127.973H49.2582C52.8611 128.963 56.6557 129.488 60.5707 129.488C62.5145 129.488 64.4255 129.357 66.2981 129.105C68.2036 128.853 70.0708 128.47 71.8887 127.973H86.9246Z" fill="#102F42"/>
<path d="M49.2584 127.972H34.217L34.0034 125.915L33.3628 119.706C36.3963 122.217 39.7856 124.312 43.4433 125.915C45.3159 126.736 47.2543 127.425 49.2584 127.972Z" fill="#102F42"/>
<path d="M49.4991 133.902C46.044 134.296 42.2714 134.936 38.8108 135.959C37.546 136.331 36.3249 136.758 35.175 137.245L35.0382 135.959L34.8301 133.902H49.4991Z" fill="#102F42"/>
<path d="M20.0186 144.855C19.3616 143.334 18.6224 141.808 17.7244 140.418C16.8921 139.122 15.671 138.006 14.1105 137.749C13.9627 137.683 13.8093 137.628 13.6341 137.617C11.86 137.491 9.96002 137.497 8.54732 138.722C7.04702 140.024 6.29687 141.912 5.77121 143.777C4.76371 147.355 4.76371 151.228 5.01011 154.91C5.10319 156.305 5.24556 157.7 5.4372 159.084C5.56314 159.992 6.43923 160.774 7.3865 160.621C8.31187 160.468 9.05655 159.647 8.92514 158.673C8.56923 156.091 8.37211 153.482 8.39401 150.872C8.39401 150.79 8.39948 150.555 8.39948 150.5C8.40496 150.298 8.41591 150.09 8.42139 149.888C8.42139 149.795 8.43234 149.696 8.43781 149.603C8.81563 149.838 9.20987 150.035 9.61506 150.21C9.47817 153.274 9.66434 156.348 10.1955 159.39C10.3543 160.293 11.1701 161.086 12.1448 160.927C13.0428 160.78 13.8531 159.948 13.6834 158.98C13.2235 156.332 12.999 153.602 13.0701 150.971C13.3603 150.982 13.656 150.971 13.9462 150.954C14.0393 153.69 14.3952 156.42 15.014 159.084C15.222 159.975 15.9558 160.785 16.9633 160.621C17.8175 160.484 18.7209 159.631 18.5019 158.673C17.8394 155.823 17.4834 152.946 17.4396 150.063C17.6641 149.959 17.8832 149.849 18.1022 149.724C18.6607 151.507 19.0604 153.307 19.3287 155.216C19.4601 156.124 20.3253 156.906 21.278 156.753C22.1979 156.606 22.9535 155.779 22.8166 154.806C22.3293 151.387 21.4039 148.011 20.0296 144.844L20.0186 144.855ZM14.0995 143.629C14.1214 143.662 14.1269 143.695 14.0995 143.629V143.629Z" fill="#FCBC40"/>
<path d="M142.337 51.4723C142.206 53.1244 142.151 54.8148 142.293 56.4669C142.425 57.9987 142.983 59.5578 144.243 60.5097C144.341 60.6355 144.456 60.7558 144.599 60.8488C146.11 61.7898 147.791 62.6705 149.614 62.2438C151.547 61.7898 153.097 60.4768 154.433 59.0709C157.001 56.3739 158.808 52.9549 160.314 49.585C160.888 48.3049 161.409 47.0084 161.891 45.6954C162.203 44.8366 161.797 43.737 160.888 43.4306C160.001 43.1352 158.956 43.5127 158.622 44.4318C157.724 46.8826 156.683 49.2787 155.446 51.5763C155.407 51.6474 155.292 51.8553 155.265 51.899C155.167 52.0796 155.062 52.2546 154.958 52.4297C154.909 52.5117 154.86 52.5938 154.811 52.6759C154.586 52.2929 154.329 51.9319 154.055 51.5927C155.605 48.9504 156.886 46.144 157.839 43.2064C158.123 42.3365 157.767 41.2534 156.837 40.9416C155.977 40.6516 154.871 41.0127 154.57 41.9427C153.743 44.4974 152.659 47.0138 151.366 49.3115C151.109 49.1692 150.852 49.0325 150.583 48.9121C151.777 46.4504 152.741 43.8738 153.442 41.226C153.677 40.3398 153.403 39.284 152.44 38.9612C151.618 38.6877 150.419 39.0159 150.173 39.9623C149.428 42.7906 148.393 45.4985 147.085 48.0697C146.838 48.0587 146.592 48.0533 146.345 48.0587C146.69 46.2206 147.178 44.4482 147.829 42.6319C148.141 41.7676 147.742 40.6735 146.827 40.3671C145.94 40.0717 144.889 40.4437 144.56 41.3683C143.389 44.6178 142.633 48.0314 142.365 51.4778L142.337 51.4723ZM146.997 55.3181C146.997 55.2798 147.002 55.247 146.997 55.3181V55.3181Z" fill="#FCBC40"/>
<path d="M20.2156 96.73L19.8049 97.2497L19.7502 97.3208C19.345 97.835 18.9672 98.3766 18.6167 98.94C18.2663 99.5199 17.9432 100.122 17.653 100.751C17.5819 100.893 17.5161 101.035 17.4559 101.183C17.215 101.708 17.0014 102.244 16.8153 102.808C16.1363 104.766 15.6873 106.943 15.4847 109.334C15.3862 110.39 15.3424 111.489 15.3424 112.627V114.181H4.61572V112.627C4.61572 109.794 4.84022 107.124 5.27827 104.624C5.38778 104.006 5.50824 103.404 5.64513 102.808C5.80392 102.107 5.98461 101.424 6.18173 100.751C6.91546 98.2179 7.91749 95.893 9.17687 93.7704C9.43422 93.3273 9.708 92.8951 9.99273 92.4684C10.1789 92.1949 10.3651 91.9213 10.5622 91.6588C10.8688 91.2321 11.1864 90.8163 11.5204 90.4115C12.5389 89.1642 13.6668 88.0099 14.9153 86.9486C14.9919 86.8775 15.0686 86.8119 15.1507 86.7462C15.6216 86.3578 16.0377 86.0296 16.432 85.7396L18.8577 83.9727L18.9015 86.9705C18.9179 88.1193 18.9781 89.2681 19.0931 90.4115C19.1588 91.1008 19.2464 91.7846 19.3505 92.4684C19.5257 93.6555 19.7557 94.8317 20.0404 95.9969L20.2156 96.73Z" fill="#102F42"/>
<path d="M88.3809 21.4004H82.1716V0.00512123C85.5993 0.00512123 88.3809 2.78415 88.3809 6.20871V21.4004Z" fill="#FCBC40"/>
<path d="M74.7305 74.7168C74.3637 74.9684 73.9311 75.2474 73.4328 75.5428C73.0112 75.7945 72.5458 76.0571 72.0311 76.3142C71.9052 76.3853 71.7737 76.451 71.6423 76.5111C71.4835 76.5877 71.3247 76.6643 71.1605 76.7409C70.9962 76.8175 70.8319 76.8941 70.6622 76.9707C70.3939 77.0855 70.1146 77.2059 69.8244 77.3208C69.808 77.3262 69.7916 77.3317 69.7752 77.3372C69.5069 77.4466 69.2331 77.5505 68.9538 77.649C68.7841 77.7092 68.6143 77.7694 68.4446 77.8241C68.1106 77.9389 67.7601 78.0429 67.4042 78.1468C67.2235 78.2015 67.0429 78.2508 66.8567 78.2945C66.6705 78.3438 66.4898 78.393 66.2982 78.4368C66.2489 78.4477 66.1941 78.4641 66.1394 78.4751C65.997 78.5079 65.8547 78.5352 65.7123 78.5681C65.4276 78.6282 65.1428 78.6829 64.8526 78.7322C64.65 78.7705 64.442 78.8033 64.2339 78.8306C64.0258 78.8635 63.8123 78.8908 63.5987 78.9127C63.2757 78.9565 62.9471 78.9893 62.6131 79.0112C62.52 79.0221 62.4324 79.0276 62.3393 79.0331C62.0272 79.0549 61.7151 79.0713 61.3975 79.0823C61.1511 79.0878 60.9047 79.0932 60.6583 79.0932H60.4996C53.7756 79.0495 48.8749 76.2923 46.5752 74.7168H74.7305Z" fill="#102F42"/>
<path d="M60.702 66.7246L60.5651 66.7903L60.4282 66.7246H60.702Z" fill="#E7EBEF"/>
<path d="M94.3112 33.5287C93.5446 28.8514 91.8307 24.4914 89.3613 20.6565C83.2779 11.187 72.6444 4.90137 60.5653 4.90137C52.3793 4.90137 44.8559 7.78981 38.9697 12.6039C36.6152 14.5186 34.5235 16.7451 32.7604 19.2178C32.4264 19.6718 32.1143 20.1368 31.8076 20.6128C29.4039 24.3382 27.7064 28.5614 26.907 33.0856C26.907 33.091 26.907 33.0965 26.907 33.0965C26.562 35.0331 26.3813 37.0244 26.3813 39.0539C26.3813 41.0835 26.5675 43.2061 26.9344 45.2247C28.1719 52.0519 31.4572 58.3212 36.4947 63.3048L38.5152 65.3016L41.5268 62.7632L45.3925 59.4973L56.1465 64.667L60.4284 66.7239H60.7022L74.9167 59.8857L75.7435 59.4919L82.6263 65.3016L82.7249 65.2031L84.6413 63.3048C87.7788 60.203 90.2374 56.5979 91.9512 52.6756C92.4659 51.4939 92.9094 50.2795 93.2818 49.0431C93.6705 47.7904 93.9772 46.5048 94.2126 45.2028C94.574 43.1951 94.7602 41.1382 94.7602 39.0539C94.7602 37.1721 94.6069 35.3285 94.3112 33.5287Z" fill="#DAE0E7"/>
<path d="M60.4283 66.7239H42.9832L42.2275 64.667H56.1464L60.4283 66.7239Z" fill="#184663"/>
<path d="M78.7277 64.667L78.0487 66.7239H60.7021L64.9786 64.667H78.7277Z" fill="#184663"/>
<path d="M76.0831 72.6602L75.6122 74.0825C75.3877 74.2521 75.092 74.4709 74.7306 74.7171H46.5753C46.2139 74.4709 45.9182 74.2521 45.6883 74.0825L45.1626 72.6602H76.0831Z" fill="#184663"/>
<path d="M49.2583 127.972H34.217L34.0034 125.915H43.4433C45.3159 126.736 47.2543 127.425 49.2583 127.972Z" fill="#184663"/>
<path d="M87.1381 125.915L86.9246 127.972H71.8887C72.4089 127.83 72.9236 127.677 73.4328 127.518C74.8893 127.058 76.3129 126.522 77.6982 125.915H87.1381Z" fill="#184663"/>
<path d="M47.703 174.598C47.7085 175.281 47.7139 175.965 47.7304 176.655H36.2919V176.556C36.281 175.9 36.27 175.249 36.27 174.598H47.703Z" fill="#184663"/>
<path d="M84.871 174.598C84.8655 175.249 84.8546 175.9 84.8436 176.556V176.655H73.4106C73.4271 175.965 73.4325 175.281 73.4325 174.598H84.871Z" fill="#184663"/>
<path d="M48.0263 183.454C48.0756 184.127 48.1249 184.816 48.1797 185.511H36.6043C36.5715 184.827 36.5386 184.143 36.5112 183.454H48.0263Z" fill="#184663"/>
<path d="M84.6303 183.454C84.603 184.143 84.5701 184.827 84.5373 185.511H72.9619C73.0167 184.816 73.0714 184.127 73.1152 183.454H84.6303Z" fill="#184663"/>
<path d="M48.8147 192.316C48.8914 193 48.968 193.684 49.0392 194.373H37.223C37.1627 193.695 37.1025 193.006 37.0532 192.316H48.8147Z" fill="#184663"/>
<path d="M84.0881 192.316C84.0333 193.006 83.9785 193.695 83.9183 194.373H72.1021C72.1732 193.684 72.2499 193 72.3266 192.316H84.0881Z" fill="#184663"/>
<path d="M49.8714 201.174C49.959 201.863 50.0521 202.552 50.1452 203.231H38.1428C38.0606 202.552 37.9785 201.869 37.9019 201.174H49.8714Z" fill="#184663"/>
<path d="M83.234 201.174C83.1573 201.869 83.0752 202.552 82.9931 203.231H70.9961C71.0892 202.552 71.1823 201.863 71.2699 201.174H83.234Z" fill="#184663"/>
<path d="M51.1088 210.03C51.2184 210.731 51.3224 211.42 51.421 212.087H39.3692C39.2652 211.403 39.1612 210.72 39.0571 210.03H51.1088Z" fill="#184663"/>
<path d="M82.0786 210.03C81.98 210.72 81.876 211.403 81.7665 212.087H69.7202C69.8188 211.42 69.9283 210.731 70.0323 210.03H82.0786Z" fill="#184663"/>
<path d="M52.5326 218.887C52.664 219.636 52.7845 220.325 52.8995 220.944H31.6543C34.6275 220.156 37.7322 219.592 40.5795 219.188C40.563 219.089 40.5411 218.985 40.5247 218.887H52.5326Z" fill="#184663"/>
<path d="M89.4819 220.944H68.2422C68.3572 220.325 68.4776 219.636 68.6091 218.887H80.6115C80.5951 218.985 80.5732 219.089 80.5567 219.188C83.3985 219.592 86.5087 220.156 89.4819 220.944Z" fill="#184663"/>
<path d="M20.5444 227.749H53.573C53.25 228.586 52.675 229.264 51.9249 229.806H24.1912C22.4226 229.27 21.0263 228.597 20.5444 227.749Z" fill="#184663"/>
<path d="M100.597 227.749C100.115 228.597 98.7188 229.27 96.9502 229.806H69.211C68.4609 229.259 67.8914 228.586 67.5684 227.749H100.597Z" fill="#184663"/>
<path d="M49.4991 133.902C46.044 134.296 42.2714 134.936 38.8108 135.959H35.0382L34.8301 133.902H49.4991Z" fill="#184663"/>
<path d="M86.3112 133.902L86.0977 135.959H82.325C81.0218 135.576 79.6748 135.243 78.3169 134.958C77.9008 134.871 77.4846 134.789 77.0685 134.712C75.8474 134.482 74.6264 134.291 73.4327 134.127C72.8249 134.045 72.2281 133.968 71.6367 133.902H86.3112Z" fill="#184663"/>
<path d="M113.443 69.9625C113.443 69.9625 110.004 78.223 105.7 87.8785C105.481 88.3709 105.262 88.8687 105.038 89.3665C104.78 89.9409 104.517 90.5263 104.255 91.1116C103.948 91.7954 103.636 92.4792 103.324 93.1685C102.979 93.9289 102.628 94.6893 102.278 95.4443C101.818 96.4454 101.358 97.441 100.898 98.4257C100.11 100.094 99.3321 101.735 98.5601 103.311C98.5327 103.377 98.4998 103.442 98.467 103.508C95.2693 110.062 92.3398 115.45 90.615 117.173C90.5986 117.19 90.5877 117.201 90.5712 117.217C89.6349 118.147 88.6548 119.039 87.6363 119.881C86.3003 120.986 84.8986 122.009 83.4366 122.945C81.5749 124.137 79.6091 125.193 77.5613 126.09C76.176 126.697 74.7523 127.234 73.2958 127.693C72.7866 127.852 72.2719 128.005 71.7517 128.147C69.9338 128.645 68.0667 129.028 66.1612 129.28C64.2885 129.531 62.3776 129.662 60.4337 129.662C56.5187 129.662 52.7241 129.137 49.1212 128.147C47.1172 127.6 45.1788 126.911 43.3062 126.09C39.6485 124.487 36.2591 122.392 33.2257 119.881C30.247 117.414 25.1109 107.961 20.2157 97.9498C19.5806 96.6478 18.9454 95.3403 18.3267 94.0329H18.3212C18.1843 93.7429 18.0474 93.453 17.9105 93.1685C17.582 92.4792 17.2589 91.7899 16.9359 91.1116C16.6238 90.4387 16.3116 89.7713 16.005 89.1094C15.775 88.617 15.5505 88.1302 15.326 87.6488C10.8908 78.0534 7.50146 70.0883 7.50146 70.0883L44.1823 69.9625L45.0255 72.2656L45.5512 73.6879C45.7811 73.8575 46.0768 74.0763 46.4382 74.3225C48.7379 75.898 53.6386 78.6552 60.3625 78.699H60.5213C60.7677 78.699 61.0141 78.6935 61.2605 78.688C61.5781 78.6771 61.8902 78.6607 62.2023 78.6388C62.2954 78.6388 62.383 78.6278 62.4761 78.6169C62.8101 78.595 63.1387 78.5622 63.4617 78.5184C63.6753 78.4965 63.8888 78.4692 64.0969 78.4364C64.305 78.409 64.513 78.3762 64.7156 78.3379C65.0058 78.2887 65.2906 78.234 65.5753 78.1738C65.7177 78.141 65.86 78.1136 66.0024 78.0808C66.0571 78.0698 66.1119 78.0534 66.1612 78.0425C66.3528 77.9987 66.5335 77.9495 66.7197 77.9002C66.9058 77.8565 67.0865 77.8073 67.2672 77.7526C67.6231 77.6541 67.9681 77.5447 68.3076 77.4298C68.4773 77.3751 68.6471 77.3149 68.8168 77.2547C69.0961 77.1563 69.3699 77.0523 69.6382 76.9429C69.6546 76.9374 69.671 76.932 69.6874 76.9265C69.9776 76.8116 70.2569 76.6913 70.5252 76.5764C70.6949 76.4998 70.8592 76.4232 71.0235 76.3466C71.3192 76.2099 71.467 76.1387 71.5053 76.1169C71.6696 76.0348 71.801 75.9692 71.8941 75.9199C72.9947 75.165 74.0898 74.4101 75.1904 73.6496L76.061 72.2656L76.9809 69.957H113.443V69.9625Z" fill="#DAE0E7"/>
<path d="M86.0979 135.959L85.9664 137.245C85.7748 137.163 85.5832 137.086 85.386 137.009C85.2163 136.938 85.0411 136.873 84.8713 136.812C84.4442 136.648 84.0117 136.495 83.5736 136.353C83.4094 136.298 83.2451 136.243 83.0808 136.189C82.8289 136.112 82.5771 136.036 82.3252 135.959H86.0979Z" fill="#102F42"/>
<path d="M93.9828 144.494C93.4243 142.721 92.2689 141.228 90.7084 139.981C89.3833 138.903 87.7626 138 85.9666 137.245C85.7749 137.163 85.5833 137.087 85.3862 137.01C85.2164 136.939 85.0412 136.873 84.8715 136.813C84.4444 136.649 84.0118 136.496 83.5737 136.354C83.4095 136.299 83.2452 136.244 83.0809 136.189C82.8291 136.113 82.5772 136.036 82.3253 135.96C81.0221 135.577 79.6751 135.243 78.3172 134.959C77.9011 134.871 77.4849 134.789 77.0688 134.712C75.8477 134.483 74.6267 134.291 73.433 134.127C72.8252 134.045 72.2284 133.968 71.637 133.903C71.1606 133.848 70.6843 133.799 70.2188 133.755C69.9889 133.728 69.7589 133.706 69.5289 133.689C69.0252 133.64 68.5378 133.602 68.056 133.564C67.6672 133.536 67.2839 133.509 66.9116 133.487C66.7035 133.471 66.5009 133.46 66.2983 133.449C66.0574 133.438 65.822 133.421 65.5865 133.41C65.3565 133.394 65.1266 133.383 64.9021 133.372C64.6611 133.361 64.4312 133.35 64.2012 133.339C63.7741 133.323 63.3744 133.312 62.9966 133.301C62.8706 133.296 62.7502 133.296 62.6297 133.29C62.5312 133.285 62.4381 133.285 62.3505 133.285C61.6167 133.268 61.0144 133.263 60.5709 133.263C58.7913 133.263 54.4766 133.334 49.4993 133.903C46.0442 134.297 42.2716 134.937 38.811 135.96C37.5462 136.332 36.3251 136.758 35.1752 137.245C31.2657 138.892 28.1884 141.211 27.159 144.494C25.7518 148.985 28.5772 153.733 30.6141 156.824C31.3642 157.962 33.2697 160.856 36.3799 163.985C39.1724 166.803 42.9341 169.811 47.6924 171.901C51.3829 173.526 55.6703 174.598 60.5709 174.598C62.5804 174.598 64.4914 174.418 66.2983 174.089H66.3093C68.8938 173.624 71.2647 172.864 73.433 171.912C73.4385 171.912 73.4385 171.907 73.444 171.907C77.5616 170.096 80.9345 167.601 83.5737 165.134C83.9899 164.751 84.3841 164.368 84.7619 163.985C87.8721 160.856 89.7776 157.962 90.5277 156.824C90.5879 156.737 90.6482 156.644 90.7084 156.551C92.7289 153.46 95.3572 148.854 93.9828 144.494Z" fill="#DAE0E7"/>
<path d="M87.7733 119.706L87.1381 125.915H77.6982C79.7461 125.018 81.7118 123.962 83.5735 122.77C85.0355 121.834 86.4372 120.811 87.7733 119.706Z" fill="#102F42"/>
<path d="M94.7382 39.1147C94.7382 41.1989 94.552 43.2558 94.1906 45.2635C92.9586 52.0962 89.6623 58.3764 84.6194 63.3655L82.7029 65.2638L82.6043 65.3623L81.8542 64.7277L79.3957 62.6544L75.7216 59.5526L74.8948 59.9465L71.5328 61.5657L67.2563 63.6227V5.62402C72.825 6.73454 77.9118 9.20175 82.1499 12.6701C84.4989 14.5793 86.5906 16.8058 88.3592 19.2785C88.6986 19.749 89.0272 20.2304 89.3393 20.7172C91.8088 24.5521 93.5226 28.9121 94.2892 33.5894C94.5849 35.3892 94.7382 37.2328 94.7382 39.1147Z" fill="#CED6DF"/>
<path d="M113.558 69.9625C113.558 69.9625 110.119 78.223 105.815 87.8785C105.596 88.3709 105.377 88.8687 105.153 89.3665C104.895 89.9409 104.632 90.5263 104.37 91.1116C104.063 91.7954 103.751 92.4792 103.439 93.1685C103.094 93.9289 102.743 94.6893 102.393 95.4443C101.933 96.4454 101.473 97.441 101.013 98.4257C100.225 100.094 99.4471 101.735 98.6751 103.311C98.6477 103.377 98.6148 103.442 98.582 103.508C95.3842 110.062 92.4548 115.45 90.73 117.173C90.7136 117.19 90.7026 117.201 90.6862 117.217C89.7499 118.147 88.7698 119.039 87.7513 119.881C86.4153 120.986 85.0135 122.009 83.5515 122.945C81.6899 124.137 79.7241 125.193 77.6763 126.09C76.291 126.697 74.8673 127.234 73.4108 127.693C72.9016 127.852 72.3869 128.005 71.8667 128.147C71.5929 128.224 71.3191 128.295 71.0399 128.36C70.8592 128.41 70.6785 128.453 70.4923 128.497C69.8024 128.661 69.107 128.809 68.4007 128.94C68.0174 129.011 67.6396 129.077 67.2563 129.137C67.2234 112.02 67.1906 94.9027 67.1577 77.7854C67.7929 77.5666 68.439 77.3368 69.0961 77.0906C69.7586 76.8444 70.3993 76.5983 71.0235 76.3466C71.697 75.909 72.3759 75.4659 73.0549 75.0282C73.7667 74.5687 74.4785 74.1092 75.1849 73.6496C75.4751 73.1901 75.7653 72.7251 76.0555 72.2656C76.3621 71.4943 76.6688 70.7284 76.9754 69.957C89.1695 69.957 101.358 69.957 113.552 69.957L113.558 69.9625Z" fill="#CED6DF"/>
<path d="M90.6863 156.611C90.626 156.704 90.5658 156.797 90.5056 156.884C89.7554 158.022 87.8499 160.916 84.7398 164.045C84.362 164.428 83.9678 164.811 83.5516 165.194C80.9124 167.661 77.5395 170.156 73.4218 171.966C73.4164 171.966 73.4164 171.972 73.4109 171.972C71.5163 172.803 69.4685 173.487 67.2563 173.963V133.574C67.5137 133.585 67.771 133.607 68.0339 133.623C68.5157 133.662 69.0031 133.7 69.5068 133.749C69.7368 133.766 69.9667 133.788 70.1967 133.815C70.6621 133.859 71.1385 133.908 71.6149 133.963C72.2063 134.028 72.8031 134.105 73.4109 134.187C74.6046 134.351 75.8256 134.543 77.0467 134.772C77.4628 134.849 77.8789 134.931 78.2951 135.018C79.653 135.303 81 135.637 82.3032 136.02C82.5551 136.096 82.8069 136.173 83.0588 136.249C83.2231 136.304 83.3874 136.359 83.5516 136.413C83.9897 136.556 84.4222 136.709 84.8493 136.873C85.0191 136.933 85.1943 136.999 85.364 137.07C85.5611 137.146 85.7528 137.223 85.9444 137.305C87.7404 138.06 89.3612 138.963 90.6863 140.04C92.2468 141.288 93.4022 142.781 93.9607 144.554C95.335 148.914 92.7068 153.52 90.6863 156.611Z" fill="#CED6DF"/>
<path d="M9.27553 100.297C3.97518 100.707 -0.0876835 105.166 -7.445e-05 110.472C0.0656323 124.548 0.125864 138.624 0.19157 152.699C7.83546 147.913 15.4848 143.12 23.1287 138.334C22.0884 128.53 21.0425 118.727 20.0022 108.924C19.2739 103.667 14.5704 99.8868 9.27553 100.297Z" fill="#A0B1BB"/>
<path d="M111.389 92.7916L106.407 103.12L105.498 102.458L104.616 101.818L109.73 91.6045L110.453 92.1187L111.389 92.7916Z" fill="#184663"/>
<path d="M126.601 96.3797L125.456 98.0427L117.38 92.7527L117.582 92.4683L118.628 90.9912L126.601 96.3797Z" fill="#184663"/>
<path d="M117.73 109.302L116.859 110.571L115.364 109.515L113.667 94.4326L115.343 95.6361L115.89 94.8648L117.73 109.302Z" fill="#184663"/>
<path d="M18.6171 98.9405C18.2667 99.5203 17.9436 100.122 17.6534 100.751C17.5822 100.893 17.5165 101.036 17.4563 101.183L16.2462 100.1L10.3654 94.8376L9.17725 93.7708C9.4346 93.3277 9.70838 92.8955 9.9931 92.4688C10.1793 92.1953 10.3654 91.9218 10.5626 91.6592C10.9513 92.0093 11.3401 92.3649 11.7289 92.715C13.6344 94.4382 15.5399 96.1614 17.4508 97.8846C17.8396 98.2402 18.2284 98.5903 18.6171 98.9405Z" fill="#184663"/>
<path d="M94.7602 39.0542C94.7602 41.1385 94.574 43.1954 94.2126 45.2031C94.2126 45.2031 94.209 45.2049 94.2017 45.2086C88.1183 47.5062 78.8482 50.3071 67.2564 51.1277C65.1264 51.2809 62.9143 51.3684 60.631 51.3684C45.8689 51.3848 34.1457 47.9548 26.9344 45.225C26.5675 43.2064 26.3813 41.144 26.3813 39.0542C26.3813 36.9645 26.562 35.0334 26.907 33.0968C26.907 33.0968 26.907 33.0913 26.907 33.0859C27.7064 28.5617 29.4039 24.3385 31.8076 20.6131C32.1197 20.4818 32.4318 20.345 32.7604 20.2137C34.6056 19.4478 36.6809 18.6819 38.9697 17.9708C39.2325 17.8887 39.5008 17.8067 39.7746 17.7246C42.0579 17.0408 44.615 16.4007 47.4294 15.8865C49.9208 15.427 58.1341 14.7049 60.0944 14.6939C62.5803 14.6775 64.9676 14.7924 67.2564 15.0057C76.4335 15.8592 83.9459 18.3318 89.2737 20.6185C89.301 20.6295 89.3339 20.6459 89.3613 20.6568C91.8307 24.4917 93.5446 28.8517 94.3112 33.529C94.6069 35.3288 94.7602 37.1724 94.7602 39.0542Z" fill="#102F42"/>
<path d="M44.3905 121.768C43.7773 121.768 43.1585 121.621 42.5836 121.314C35.8158 117.682 32.3224 112.529 29.5572 107.501C25.5601 100.231 22.0174 92.6652 18.8908 85.9912C17.8888 83.8194 16.8758 81.5929 15.8738 79.3663C15.0086 77.4352 15.8738 75.1704 17.8012 74.3061C19.7341 73.4418 22.0009 74.3061 22.8661 76.2317C23.8572 78.4364 24.8592 80.6355 25.8448 82.769C28.9111 89.3227 32.399 96.7681 36.2757 103.82C38.8876 108.568 41.4611 112.025 46.2084 114.569C48.0756 115.57 48.7765 117.89 47.7744 119.755C47.0845 121.041 45.7594 121.774 44.396 121.774L44.3905 121.768Z" fill="#EAEDEF"/>
<path d="M50.8186 168.64C50.3039 168.64 49.7782 168.536 49.28 168.317C45.6551 166.725 42.2548 164.34 39.1721 161.227C36.4124 158.443 34.5945 155.719 33.9101 154.696C32.804 153.038 31.7965 151.298 30.9149 149.521C29.9731 147.628 30.7452 145.33 32.6452 144.389C34.5397 143.448 36.8395 144.22 37.7813 146.118C38.5205 147.606 39.3637 149.061 40.2891 150.451C41.2637 151.911 42.6381 153.842 44.6203 155.844C47.024 158.268 49.6304 160.106 52.3682 161.31C54.3065 162.163 55.1881 164.422 54.3339 166.359C53.7042 167.792 52.297 168.646 50.8241 168.646L50.8186 168.64Z" fill="#EAEDEF"/>
<path d="M6.83875 143.366C4.71971 143.366 3.00586 141.654 3.00586 139.537V118.738C3.00586 116.62 4.71971 114.908 6.83875 114.908C8.9578 114.908 10.6716 116.62 10.6716 118.738V139.537C10.6716 141.654 8.9578 143.366 6.83875 143.366Z" fill="#ABBAC4"/>
<path d="M122.543 92.5288C118.08 89.6513 116.629 83.7978 119.23 79.1697C125.987 66.8172 132.744 54.4648 139.501 42.1123C143.947 49.9571 148.393 57.8018 152.839 65.6466C147.254 73.7758 141.675 81.8995 136.089 90.0287C132.947 94.3067 127.011 95.4008 122.543 92.5233V92.5288Z" fill="#A0B1BB"/>
<path d="M129.338 78.6771C128.725 78.6771 128.101 78.5294 127.52 78.2175C125.659 77.211 124.963 74.886 125.971 73.026L135.871 54.7271C136.878 52.8671 139.205 52.1778 141.067 53.1789C142.929 54.1855 143.624 56.5105 142.617 58.3704L132.717 76.6694C132.021 77.9495 130.702 78.6771 129.344 78.6771H129.338Z" fill="#ABBAC4"/>
<path d="M64.3267 12.6536C64.3267 13.4359 64.0912 14.1635 63.686 14.7707C62.4924 14.7105 61.2713 14.6832 60.0229 14.6941C58.0626 14.705 49.8493 15.4272 47.3524 15.8867C44.5435 16.4009 41.9809 17.041 39.7031 17.7248C39.4293 17.8068 39.161 17.8889 38.8982 17.971C38.8708 17.9819 38.8379 17.9874 38.8105 17.9983C39.6155 17.1668 40.4751 16.379 41.3786 15.646C46.7501 11.2477 53.5453 8.82422 60.4938 8.82422C62.6073 8.82422 64.3267 10.5365 64.3267 12.6536Z" fill="#EAEDEF"/>
<path d="M63.6862 14.7704C63.0017 15.8043 61.8245 16.4826 60.4884 16.4826C55.3085 16.4826 50.2382 18.2934 46.2191 21.5812C44.6641 22.8449 43.2842 24.311 42.1234 25.9357L42.0522 26.0451C41.866 26.2913 41.6908 26.5539 41.4773 26.8876C39.9058 29.3165 38.8381 31.9807 38.3014 34.8035L38.2467 35.1207C38.0167 36.4173 37.8963 37.7357 37.8963 39.0541C37.8963 41.1657 36.1824 42.8834 34.0634 42.8834C31.9443 42.8834 30.2305 41.1657 30.2305 39.0541C30.2305 37.2926 30.3893 35.5146 30.6959 33.7805L30.7616 33.4139C31.4953 29.5736 32.9299 26.0014 35.0325 22.7355C35.3392 22.265 35.5965 21.8821 35.8484 21.5429L35.8922 21.4772C36.7683 20.2464 37.7429 19.0811 38.8052 17.998C38.8326 17.987 38.8654 17.9816 38.8928 17.9706C39.1556 17.8886 39.4239 17.8065 39.6977 17.7244C41.981 17.0406 44.5381 16.4006 47.3526 15.8863C49.8439 15.4268 58.0573 14.7047 60.0175 14.6938C61.266 14.6828 62.487 14.7102 63.6862 14.7704Z" fill="#184663"/>
</g>
<defs>
<clipPath id="clip0_747_2421">
<rect width="162" height="232" fill="white"/>
</clipPath>
</defs>
</svg>
    