<svg width="268" height="376" viewBox="0 0 268 376" fill="none" xmlns="http://www.w3.org/2000/svg">
<mask id="mask0_662_14623" style="mask-type:alpha" maskUnits="userSpaceOnUse" x="0" y="0" width="268" height="376">
<rect width="268" height="376" fill="white"/>
</mask>
<g mask="url(#mask0_662_14623)">
<line x1="8.5" y1="-77" x2="8.49999" y2="232" stroke="#074D76"/>
<line x1="18" y1="289.5" x2="-132" y2="289.5" stroke="#074D76"/>
<line x1="9" y1="193.5" x2="-132" y2="193.5" stroke="#074D76"/>
<line x1="9" y1="161.5" x2="-101" y2="161.5" stroke="#074D76"/>
<line x1="198.5" y1="-58" x2="198.5" y2="70" stroke="#074D76"/>
<line x1="188.5" y1="134" x2="188.5" y2="232" stroke="#074D76"/>
<line x1="240.5" y1="284" x2="240.5" y2="466" stroke="#074D76"/>
<line x1="51.5" y1="219" x2="51.5" y2="317" stroke="#074D76"/>
<line x1="81.5" y1="231" x2="81.5" y2="348" stroke="#074D76"/>
<line x1="81.5" y1="364" x2="81.5" y2="473" stroke="#074D76"/>
<line x1="113" y1="223.5" x2="47" y2="223.5" stroke="#074D76"/>
<line x1="137" y1="261.5" x2="55" y2="261.5" stroke="#074D76"/>
<line x1="159" y1="278.5" x2="-40" y2="278.5" stroke="#074D76"/>
<line x1="251.5" y1="76" x2="251.5" y2="204" stroke="#074D76"/>
<line x1="264" y1="5.5" x2="-132" y2="5.5" stroke="#074D76"/>
<line x1="450" y1="354.5" x2="28" y2="354.5" stroke="#074D76"/>
<line x1="450" y1="361.5" x2="28" y2="361.5" stroke="#074D76"/>
<line x1="113" y1="92.5" x2="-132" y2="92.5" stroke="#074D76"/>
<line x1="28" y1="171.5" x2="-132" y2="171.5" stroke="#074D76"/>
<line x1="28" y1="179.5" x2="-132" y2="179.5" stroke="#074D76"/>
<line x1="47" y1="261.5" x2="4" y2="261.5" stroke="#074D76"/>
<line x1="50" y1="127.5" x2="-132" y2="127.5" stroke="#074D76"/>
<circle cx="7.5" cy="4.5" r="27" stroke="#074D76"/>
<path d="M215.5 5C215.5 15.2299 207.429 23.5 197.5 23.5C187.571 23.5 179.5 15.2299 179.5 5C179.5 -5.22992 187.571 -13.5 197.5 -13.5C207.429 -13.5 215.5 -5.22992 215.5 5Z" stroke="#074D76"/>
<path d="M215.5 78.5C215.5 89.0185 207.417 97.5 197.5 97.5C187.583 97.5 179.5 89.0185 179.5 78.5C179.5 67.9815 187.583 59.5 197.5 59.5C207.417 59.5 215.5 67.9815 215.5 78.5Z" stroke="#074D76"/>
<circle cx="241" cy="280" r="24.5" stroke="#074D76"/>
<path d="M265.5 376.5C265.5 389.745 254.541 400.5 241 400.5C227.459 400.5 216.5 389.745 216.5 376.5C216.5 363.255 227.459 352.5 241 352.5C254.541 352.5 265.5 363.255 265.5 376.5Z" stroke="#074D76"/>
<circle cx="6.5" cy="5.5" r="80" stroke="#074D76"/>
<circle cx="7.5" cy="4.5" r="87" stroke="#074D76"/>
<path d="M128.5 5.5C128.5 72.3284 74.5484 126.5 8 126.5C-58.5484 126.5 -112.5 72.3284 -112.5 5.5C-112.5 -61.3284 -58.5484 -115.5 8 -115.5C74.5484 -115.5 128.5 -61.3284 128.5 5.5Z" stroke="#074D76"/>
<path d="M166 14C166 94.6336 100.634 160 20 160" stroke="#074D76"/>
<rect x="50.5" y="108.5" width="403" height="70" rx="1.5" stroke="#074D76"/>
<rect x="38.5" y="151.5" width="300" height="52" rx="1.5" stroke="#074D76"/>
<path d="M165 9L170 20H160L165 9Z" fill="#1D5372"/>
<path d="M12 160L25 156L25 164L12 160Z" fill="#1D5372"/>
<path d="M24 289L13 293L13 285L24 289Z" fill="#1D5372"/>
<path d="M286.595 223H177C175.895 223 175 223.895 175 225V471C175 472.105 175.895 473 177 473H291" stroke="#074D76"/>
<path d="M147 55V-43L49 -7.89552C49 -7.89552 51.8824 0.350594 51.8824 5.63433C51.8824 10.9181 49 19.1642 49 19.1642L147 55Z" stroke="#074D76"/>
<path d="M244 -76.8529V119H156.458C139.32 81.4293 100.402 68.3556 6.73082 47.4215C-17.3716 43.7695 -34.9007 27.6482 -34.9007 5.05864C-37.007 -25.3731 -5.05876 -37.3042 8.92195 -37.3042C56.6344 -40.6782 84.0685 -50.3705 141.747 -90V-20.6126" stroke="#074D76"/>
<path d="M-145 491C-107.429 473.904 -94.3556 435.083 -73.4214 341.645C-69.7695 317.603 -53.6482 300.117 -31.0586 300.117C-0.626914 298.016 11.3042 324.686 11.3042 338.632C14.6782 386.225 24.3705 418.79 64 476.326" stroke="#074D76"/>
<path d="M-132 252H60C61.1046 252 62 252.895 62 254V268C62 269.105 61.1046 270 60 270H-132" stroke="#074D76"/>
<circle cx="270.5" cy="451.5" r="163" stroke="#074D76"/>
<mask id="mask1_662_14623" style="mask-type:alpha" maskUnits="userSpaceOnUse" x="-132" y="6" width="141" height="190">
<path d="M-131.531 195.01L8.10449 195.01V189.161L8.10449 125.557C-7.24813 125.557 -19.4654 122.619 -32.1047 118.247C-69.4943 105.313 -96.578 81.4141 -108.24 35.635C-110.506 26.74 -112.19 17.019 -113.254 6.39189H-131.531L-131.531 195.01Z" fill="#D9D9D9"/>
</mask>
<g mask="url(#mask1_662_14623)">
<path d="M7.37307 125.558L-64.2725 198.665" stroke="#074D76"/>
<path d="M8.83551 135.792L-54.0371 198.665" stroke="#074D76"/>
<path d="M10.2982 143.834L-45.2637 202.32" stroke="#074D76"/>
<path d="M7.37366 157.725L-32.1045 198.665" stroke="#074D76"/>
<path d="M10.2975 165.767L-23.332 197.934" stroke="#074D76"/>
<path d="M8.83563 178.926L-13.0967 197.934" stroke="#074D76"/>
<path d="M20.5329 178.926L-1.39941 197.934" stroke="#074D76"/>
<path d="M11.7597 192.816L5.91113 198.665" stroke="#074D76"/>
</g>
<path d="M-44.0671 -72.4514L-47.9806 -71.1537C-48.2797 -71.0545 -48.6081 -71.1021 -48.8667 -71.2822L-55.1931 -75.6875C-55.5394 -75.9287 -55.9997 -75.9265 -56.3437 -75.6821L-60.2565 -72.9018C-60.6294 -72.6369 -60.775 -72.1527 -60.61 -71.726L-57.4982 -63.6777C-57.3406 -63.2698 -57.4661 -62.8069 -57.8083 -62.5346L-60.3339 -60.5246C-60.6671 -60.2595 -61.1317 -60.2344 -61.4915 -60.4622L-68.1714 -64.6908C-68.6056 -64.9657 -69.1775 -64.8667 -69.4941 -64.4618L-73.5681 -59.2512C-73.8542 -58.8852 -73.8507 -58.3705 -73.5596 -58.0085L-68.608 -51.8514C-68.3625 -51.5461 -68.3178 -51.1256 -68.4938 -50.7756L-70.0029 -47.7732C-70.2293 -47.3226 -70.7559 -47.1111 -71.2311 -47.28L-79.7688 -50.3132C-80.2604 -50.4879 -80.8037 -50.2552 -81.0166 -49.7788L-83.2838 -44.7041C-83.4533 -44.3248 -83.3706 -43.8802 -83.0761 -43.5872L-77.4225 -37.9632C-77.1529 -37.695 -77.0588 -37.2971 -77.1796 -36.9365L-78.1778 -33.9576C-78.3324 -33.4964 -78.7964 -33.2133 -79.2773 -33.2869L-87.1707 -34.4949C-87.6296 -34.5651 -88.0765 -34.3102 -88.2497 -33.8795L-90.5883 -28.0637C-90.7596 -27.6376 -90.6187 -27.1496 -90.2466 -26.8804L-83.3365 -21.8811C-83.0287 -21.6584 -82.8736 -21.2804 -82.9364 -20.9057L-83.4255 -17.9865C-83.5062 -17.5047 -83.9232 -17.1518 -84.4118 -17.1518H-92.9867C-93.463 -17.1518 -93.8732 -16.8158 -93.9671 -16.3489L-95.1065 -10.6816C-95.2007 -10.2132 -94.9504 -9.7436 -94.509 -9.56067L-87.1083 -6.49314C-86.7347 -6.3383 -86.4912 -5.97372 -86.4912 -5.56935V-2.00257C-86.4912 -1.5087 -86.8517 -1.08879 -87.3399 -1.01408L-95.1513 0.181392C-95.6395 0.256105 -96 0.676014 -96 1.16988V7.45657C-96 7.95044 -95.6395 8.37035 -95.1513 8.44506L-87.3399 9.64054C-86.8517 9.71525 -86.4912 10.1352 -86.4912 10.629V14.1958C-86.4912 14.6002 -86.7347 14.9648 -87.1083 15.1196L-94.5226 18.1927C-94.9578 18.3731 -95.2081 18.8329 -95.1234 19.2963L-93.9556 25.6856C-93.8687 26.1607 -93.4548 26.5058 -92.9719 26.5058H-85.6863C-85.287 26.5058 -84.9259 26.7434 -84.7679 27.1102L-83.1954 30.7603C-82.9907 31.2354 -83.1821 31.7882 -83.6368 32.0349L-90.1212 35.5533C-90.557 35.7898 -90.7538 36.3099 -90.5835 36.7756L-88.2692 43.1067C-88.091 43.5943 -87.5692 43.8645 -87.0682 43.7285L-80.601 41.974C-80.1869 41.8616 -79.7473 42.026 -79.5085 42.3824L-77.4897 45.3947C-77.2022 45.8237 -77.2886 46.401 -77.6891 46.727L-84.3546 52.1521C-84.741 52.4666 -84.837 53.0175 -84.5797 53.4442L-81.084 59.2399C-80.8285 59.6635 -80.3017 59.8366 -79.8448 59.6472L-72.4779 56.5937C-72.105 56.4392 -71.6758 56.5239 -71.3897 56.8085L-68.8811 59.304C-68.5026 59.6806 -68.4866 60.288 -68.8448 60.6839L-74.2235 66.6289C-74.5497 66.9896 -74.5693 67.5327 -74.2697 67.9158L-70.1889 73.1351C-69.8881 73.5198 -69.3535 73.631 -68.9242 73.3981L-62.2164 69.7583C-61.8573 69.5635 -61.4158 69.6067 -61.1012 69.8674L-57.8687 72.5471C-57.4998 72.8529 -57.3997 73.3775 -57.6301 73.7977L-61.2306 80.3642C-61.4585 80.7798 -61.3633 81.2983 -61.0026 81.6059L-57.1287 84.909C-56.7646 85.2195 -56.2315 85.2285 -55.8571 84.9306L-49.7564 80.0755C-49.4171 79.8055 -48.9425 79.7849 -48.5811 80.0246L-45.4224 82.1193C-45.0526 82.3646 -44.8887 82.8243 -45.0198 83.2482L-47.5032 91.2771C-47.6343 91.701 -47.4704 92.1607 -47.1005 92.4059L-41.9016 95.8538C-41.4709 96.1394 -40.8935 96.0498 -40.5696 95.6471L-35.7644 89.672C-35.4837 89.3229 -35.0051 89.2031 -34.593 89.3788L-30.9411 90.9357C-30.4948 91.1259 -30.2495 91.609 -30.3591 92.0816L-32.1462 99.785C-32.2677 100.309 -31.953 100.835 -31.4339 100.976L-25.1637 102.677C-24.6797 102.808 -24.1733 102.561 -23.9795 102.098L-20.9592 94.8875C-20.7834 94.4678 -20.3465 94.2198 -19.8961 94.2838L-16.3435 94.7886C-15.8755 94.8551 -15.518 95.2402 -15.4864 95.7118L-14.8604 105.053C-14.8302 105.504 -14.5011 105.878 -14.0578 105.967L-8.31933 107.108C-7.84263 107.203 -7.36677 106.941 -7.19149 106.488L-4.08466 98.4526C-3.93568 98.0673 -3.56508 97.8132 -3.15195 97.8132H0.425454C0.918725 97.8132 1.33831 98.1729 1.4137 98.6604L2.62609 106.5C2.69629 106.954 3.06677 107.301 3.52427 107.343L9.84649 107.915C10.3762 107.962 10.8508 107.587 10.9264 107.061L12.1312 98.6711C12.2019 98.1788 12.6237 97.8132 13.1211 97.8132H17.3686C17.807 97.8132 18.1944 98.0988 18.3239 98.5177L20.7701 106.426C20.9195 106.909 21.4059 107.205 21.9034 107.115L28.2557 105.966C28.7316 105.88 29.0777 105.465 29.0777 104.982V97.0799C29.0777 96.6489 29.3539 96.2664 29.763 96.1307L32.7283 95.1475C33.1625 95.0035 33.639 95.1725 33.8855 95.5578L38.1909 102.288C38.4264 102.656 38.8735 102.829 39.2952 102.714L45.7694 100.958C46.2609 100.825 46.5737 100.343 46.4958 99.8399L45.2726 91.9307C45.2104 91.5281 45.3985 91.1279 45.7484 90.9192L48.1228 89.5019C48.5322 89.2576 49.0571 89.3362 49.3769 89.6897L54.8782 95.7703C55.1897 96.1146 55.6972 96.1992 56.1035 95.9747L61.2809 93.1134C61.6956 92.8841 61.8926 92.3953 61.7525 91.9426L59.3184 84.0729C59.1735 83.6046 59.3895 83.1004 59.8284 82.8821L62.9253 81.3417C63.2524 81.179 63.6423 81.2076 63.9421 81.4164L70.23 85.795C70.5579 86.0233 70.9902 86.0345 71.3295 85.8236L75.8462 83.0153C76.2855 82.7422 76.444 82.1792 76.2117 81.717L72.5329 74.3978C72.3515 74.0368 72.4051 73.6021 72.6688 73.296L76.0331 69.3915C76.3677 69.0033 76.9416 68.9308 77.3621 69.2236L83.2514 73.3246C83.6481 73.6008 84.1855 73.5538 84.5281 73.2129L87.0801 70.6743C87.3865 70.3695 87.4624 69.9024 87.2683 69.5162L83.4307 61.881C83.2887 61.5984 83.2887 61.2654 83.4307 60.9828L85.0202 57.8203C85.2392 57.3847 85.7403 57.1705 86.2064 57.3132L94.1981 59.7593C94.6197 59.8884 95.0761 59.7261 95.3215 59.3598L98.7597 54.2294C99.0594 53.7822 98.9513 53.1781 98.5152 52.8625L91.9803 48.1347C91.5656 47.8347 91.4444 47.2701 91.6993 46.8264L93.8077 43.1559C94.0269 42.7743 94.4697 42.5809 94.8986 42.6793L102.884 44.5125C103.35 44.6194 103.826 44.382 104.021 43.9458L106.266 38.9211C106.465 38.4749 106.313 37.9499 105.906 37.6798L98.4447 32.7319C98.0811 32.4908 97.9158 32.0418 98.0362 31.6225L99.0889 27.9574C99.212 27.5288 99.6041 27.2335 100.05 27.2335H107.398C107.807 27.2335 108.174 26.9853 108.326 26.6065L110.621 20.9008C110.829 20.3823 110.572 19.7935 110.05 19.5938L102.134 16.5649C101.747 16.4169 101.491 16.0454 101.491 15.631V12.0843C101.491 11.5904 101.852 11.1705 102.34 11.0958L110.151 9.90032C110.639 9.8256 111 9.40569 111 8.91183V2.62514C111 2.13127 110.639 1.71136 110.151 1.63665L102.34 0.441172C101.852 0.366459 101.491 -0.0534499 101.491 -0.547319V-4.77002C101.491 -5.20957 101.778 -5.59758 102.198 -5.72623L110.149 -8.15974C110.634 -8.30825 110.931 -8.7966 110.84 -9.29575L109.687 -15.6039C109.6 -16.079 109.186 -16.4241 108.703 -16.4241H100.05C99.6041 -16.4241 99.212 -16.7194 99.0889 -17.1481L98.0804 -20.6595C97.94 -21.1483 98.1888 -21.6646 98.6586 -21.8593L105.75 -24.7985C106.235 -24.9996 106.482 -25.5419 106.315 -26.04L103.956 -33.0789C103.8 -33.5446 103.329 -33.8281 102.845 -33.7477L95.593 -32.5455C95.1812 -32.4772 94.7703 -32.6719 94.5623 -33.0339L92.4389 -36.7304C92.1806 -37.1801 92.309 -37.7528 92.7346 -38.0491L98.5536 -42.1011C98.9754 -42.3949 99.1059 -42.9606 98.8552 -43.4094L96.0333 -48.4624C95.8036 -48.8737 95.318 -49.0689 94.8675 -48.931L86.8408 -46.4741C86.4192 -46.3451 85.9628 -46.5074 85.7174 -46.8736L83.6918 -49.8961C83.413 -50.3121 83.485 -50.8702 83.8601 -51.2019L89.1468 -55.8766C89.5159 -56.203 89.5923 -56.7496 89.3267 -57.1646L85.1839 -63.6408C84.8953 -64.0919 84.3027 -64.2356 83.8396 -63.9668L76.4809 -59.6967C76.1248 -59.4901 75.6785 -59.5228 75.3563 -59.7792L72.9119 -61.7245C72.5225 -62.0344 72.4202 -62.5835 72.672 -63.0128L76.9294 -70.2731C77.1747 -70.6914 77.0845 -71.2253 76.7156 -71.5399L72.7941 -74.8836C72.4606 -75.168 71.9807 -75.202 71.6104 -74.9676L64.7348 -70.6151C64.4017 -70.4042 63.9758 -70.4087 63.6472 -70.6266L60.6117 -72.6397C60.1594 -72.9397 60.0289 -73.5456 60.3176 -74.0051L63.4558 -79" stroke="#074D76"/>
</g>
</svg>
    