<svg width="420" height="208" viewBox="0 0 420 208" fill="none" xmlns="http://www.w3.org/2000/svg">
<mask id="mask0_662_16706" style="mask-type:alpha" maskUnits="userSpaceOnUse" x="0" y="0" width="420" height="208">
<rect x="420" width="208" height="420" rx="5" transform="rotate(90 420 0)" fill="white"/>
</mask>
<g mask="url(#mask0_662_16706)">
<line x1="484.787" y1="143.394" x2="341.808" y2="143.394" stroke="#074D76"/>
<line x1="102.766" y1="177.224" x2="-100.532" y2="177.224" stroke="#074D76"/>
<line x1="161.968" y1="-0.382812" x2="31.2763" y2="-0.382824" stroke="#074D76"/>
<line x1="13.4043" y1="-0.382812" x2="-108.351" y2="-0.382823" stroke="#074D76"/>
<line x1="170.404" y1="34.8613" x2="170.404" y2="-38.8621" stroke="#074D76"/>
<line x1="108.968" y1="86.2441" x2="108.968" y2="-136.043" stroke="#074D76"/>
<line x1="335.106" y1="189.511" x2="192.128" y2="189.511" stroke="#074D76"/>
<line x1="24.0742" y1="411.298" x2="24.0742" y2="-60.0851" stroke="#074D76"/>
<line x1="316.734" y1="34.8613" x2="316.734" y2="-238.809" stroke="#074D76"/>
<path d="M414.415 162.5C402.957 162.5 393.692 153.459 393.692 142.335C393.692 131.211 402.957 122.17 414.415 122.17C425.873 122.17 435.139 131.211 435.139 142.335C435.139 153.459 425.873 162.5 414.415 162.5Z" stroke="#074D76"/>
<path d="M332.314 162.5C320.535 162.5 311.032 153.447 311.032 142.335C311.032 131.223 320.535 122.17 332.314 122.17C344.093 122.17 353.596 131.223 353.596 142.335C353.596 153.447 344.093 162.5 332.314 162.5Z" stroke="#074D76"/>
<path d="M404.361 94.0636C314.292 94.0636 241.276 21.0479 241.276 -69.0215" stroke="#074D76"/>
<path d="M409.947 92.9464L397.66 98.5315L397.66 87.3613L409.947 92.9464Z" fill="#074D76"/>
<path d="M170.904 258.771L170.904 136.117C170.904 135.013 170.009 134.117 168.904 134.117L-106.351 134.117C-107.456 134.117 -108.351 135.013 -108.351 136.117L-108.351 263.692" stroke="#074D76"/>
<circle cx="-84.3351" cy="210.792" r="182.133" transform="rotate(90 -84.3351 210.792)" stroke="#074D76"/>
<path d="M500.93 -140.586L499.462 -145.013C499.363 -145.312 499.411 -145.64 499.591 -145.899L504.592 -153.081C504.833 -153.427 504.831 -153.888 504.587 -154.232L501.381 -158.744C501.116 -159.117 500.631 -159.262 500.205 -159.097L491.05 -155.557C490.642 -155.4 490.179 -155.525 489.906 -155.867L487.556 -158.821C487.291 -159.154 487.266 -159.619 487.493 -159.979L492.318 -167.6C492.593 -168.034 492.494 -168.606 492.089 -168.923L486.112 -173.596C485.746 -173.882 485.231 -173.879 484.869 -173.587L477.861 -167.951C477.556 -167.706 477.135 -167.661 476.785 -167.837L473.272 -169.603C472.821 -169.829 472.61 -170.356 472.779 -170.831L476.238 -180.567C476.412 -181.059 476.18 -181.602 475.703 -181.815L469.862 -184.424C469.483 -184.594 469.038 -184.511 468.745 -184.217L462.355 -177.793C462.087 -177.523 461.689 -177.429 461.328 -177.55L457.838 -178.719C457.377 -178.874 457.094 -179.338 457.168 -179.819L458.546 -188.825C458.616 -189.284 458.361 -189.731 457.931 -189.904L451.263 -192.585C450.837 -192.756 450.349 -192.615 450.08 -192.243L444.4 -184.392C444.177 -184.084 443.799 -183.929 443.424 -183.991L439.994 -184.566C439.512 -184.647 439.159 -185.064 439.159 -185.552L439.159 -195.326C439.159 -195.802 438.823 -196.212 438.356 -196.306L431.838 -197.617C431.369 -197.711 430.9 -197.46 430.717 -197.019L427.223 -188.591C427.069 -188.218 426.704 -187.974 426.3 -187.974L422.137 -187.974C421.643 -187.974 421.223 -188.335 421.148 -188.823L419.783 -197.747C419.708 -198.235 419.288 -198.596 418.794 -198.596L411.571 -198.596C411.077 -198.596 410.657 -198.235 410.582 -197.747L409.217 -188.823C409.142 -188.335 408.722 -187.974 408.228 -187.974L404.065 -187.974C403.661 -187.974 403.296 -188.218 403.141 -188.591L399.643 -197.033C399.462 -197.468 399.002 -197.718 398.539 -197.633L391.213 -196.294C390.738 -196.208 390.393 -195.794 390.393 -195.311L390.393 -186.998C390.393 -186.599 390.155 -186.238 389.789 -186.08L385.542 -184.25C385.067 -184.046 384.514 -184.237 384.268 -184.692L380.238 -192.118C380.002 -192.554 379.482 -192.75 379.016 -192.58L371.748 -189.923C371.261 -189.745 370.991 -189.223 371.127 -188.722L373.137 -181.314C373.249 -180.9 373.085 -180.46 372.728 -180.221L369.205 -177.86C368.776 -177.572 368.199 -177.659 367.873 -178.059L361.681 -185.666C361.367 -186.053 360.816 -186.149 360.389 -185.891L353.742 -181.882C353.318 -181.627 353.145 -181.1 353.335 -180.643L356.814 -172.249C356.968 -171.876 356.884 -171.447 356.599 -171.161L353.678 -168.224C353.301 -167.846 352.694 -167.83 352.298 -168.188L345.501 -174.337C345.141 -174.663 344.598 -174.683 344.215 -174.383L338.229 -169.703C337.844 -169.402 337.733 -168.868 337.966 -168.439L342.117 -160.789C342.311 -160.43 342.268 -159.989 342.008 -159.674L338.902 -155.928C338.596 -155.559 338.072 -155.459 337.651 -155.689L330.148 -159.803C329.733 -160.031 329.214 -159.936 328.907 -159.575L325.093 -155.102C324.782 -154.738 324.773 -154.205 325.071 -153.831L330.607 -146.874C330.877 -146.535 330.898 -146.06 330.658 -145.699L328.223 -142.027C327.978 -141.657 327.518 -141.493 327.094 -141.624L317.958 -144.45C317.534 -144.581 317.075 -144.417 316.829 -144.047L312.871 -138.078C312.585 -137.647 312.675 -137.07 313.077 -136.746L319.904 -131.256C320.253 -130.975 320.373 -130.496 320.197 -130.084L318.385 -125.833C318.195 -125.387 317.712 -125.142 317.239 -125.251L308.429 -127.295C307.905 -127.417 307.378 -127.102 307.238 -126.583L305.281 -119.371C305.15 -118.887 305.397 -118.381 305.86 -118.187L314.092 -114.739C314.512 -114.563 314.76 -114.126 314.696 -113.676L314.106 -109.524C314.04 -109.056 313.655 -108.698 313.183 -108.667L302.565 -107.955C302.114 -107.925 301.739 -107.596 301.651 -107.152L300.339 -100.558C300.244 -100.081 300.506 -99.6055 300.959 -99.4302L310.102 -95.8954C310.487 -95.7464 310.741 -95.3758 310.741 -94.9627L310.741 -90.7861C310.741 -90.2928 310.381 -89.8733 309.894 -89.7979L300.948 -88.4143C300.494 -88.3441 300.146 -87.9736 300.104 -87.5161L299.448 -80.2523C299.4 -79.7226 299.775 -79.248 300.301 -79.1724L309.883 -77.7964C310.375 -77.7257 310.741 -77.3039 310.741 -76.8066L310.741 -71.8743C310.741 -71.4358 310.455 -71.0485 310.036 -70.919L301.021 -68.1304C300.538 -67.981 300.243 -67.4946 300.333 -66.9971L301.652 -59.7032C301.738 -59.2273 302.152 -58.8812 302.636 -58.8812L311.645 -58.8812C312.076 -58.8812 312.458 -58.6051 312.594 -58.196L313.747 -54.717C313.891 -54.2829 313.722 -53.8064 313.337 -53.5599L305.67 -48.6553C305.302 -48.4198 305.129 -47.9727 305.244 -47.5511L307.256 -40.1353C307.389 -39.6438 307.87 -39.331 308.374 -39.4088L317.39 -40.8032C317.792 -40.8655 318.193 -40.6773 318.401 -40.3275L320.074 -37.525C320.318 -37.1157 320.24 -36.5908 319.886 -36.271L312.954 -29.9993C312.61 -29.6878 312.525 -29.1804 312.75 -28.774L316.037 -22.8263C316.266 -22.4115 316.755 -22.2146 317.208 -22.3546L326.184 -25.1312C326.653 -25.276 327.157 -25.0601 327.375 -24.6212L329.171 -21.0107C329.334 -20.6836 329.305 -20.2937 329.096 -19.9939L324.122 -12.85C323.893 -12.5222 323.882 -12.0899 324.093 -11.7506L327.327 -6.54903C327.6 -6.10975 328.163 -5.95125 328.625 -6.18355L336.966 -10.3759C337.327 -10.5574 337.762 -10.5038 338.068 -10.24L342.569 -6.36216C342.957 -6.02762 343.029 -5.45371 342.736 -5.03314L338.039 1.71212C337.763 2.10875 337.81 2.64616 338.151 2.98881L341.116 5.96876C341.42 6.27515 341.887 6.35108 342.274 6.157L350.931 1.80576C351.213 1.66374 351.546 1.66374 351.829 1.80576L355.502 3.6521C355.938 3.87103 356.152 4.37213 356.009 4.83827L353.223 13.9427C353.094 14.3643 353.256 14.8207 353.622 15.0661L359.519 19.0179C359.966 19.3176 360.57 19.2095 360.886 18.7734L366.295 11.2969C366.595 10.8823 367.159 10.761 367.603 11.0159L371.87 13.4667C372.251 13.6859 372.445 14.1287 372.346 14.5576L370.257 23.6559C370.151 24.1215 370.388 24.5978 370.824 24.7927L376.615 27.38C377.061 27.5793 377.586 27.4269 377.857 27.0196L383.486 18.5317C383.727 18.1681 384.176 18.0028 384.595 18.1232L388.856 19.3471C389.285 19.4702 389.58 19.8622 389.58 20.3082L389.58 28.6838C389.58 29.0921 389.828 29.4593 390.207 29.6116L396.764 32.2483C397.283 32.4568 397.872 32.1998 398.071 31.6778L401.526 22.6488C401.674 22.2617 402.045 22.0061 402.46 22.0061L406.603 22.0061C407.096 22.0061 407.516 22.3667 407.591 22.8548L408.957 31.779C409.031 32.2672 409.451 32.6277 409.945 32.6277L417.169 32.6277C417.662 32.6277 418.082 32.2672 418.157 31.779L419.523 22.8548C419.598 22.3667 420.017 22.0061 420.511 22.0061L425.415 22.0061C425.855 22.0061 426.243 22.2931 426.371 22.7134L429.146 31.7767C429.294 32.2619 429.782 32.5589 430.282 32.4677L437.526 31.1435C438.001 31.0567 438.347 30.6428 438.347 30.1598L438.347 20.3082C438.347 19.8622 438.642 19.4702 439.07 19.3471L443.178 18.1673C443.667 18.027 444.183 18.2758 444.378 18.7456L447.743 26.8638C447.944 27.3491 448.486 27.596 448.984 27.4291L457.045 24.7281C457.511 24.572 457.794 24.1009 457.714 23.6163L456.341 15.3376C456.273 14.9258 456.468 14.5149 456.83 14.3069L461.122 11.8412C461.572 11.5828 462.144 11.7112 462.441 12.1368L467.089 18.8118C467.383 19.2336 467.948 19.3641 468.397 19.1134L474.216 15.8635C474.628 15.6338 474.823 15.1482 474.685 14.6977L471.888 5.55822C471.759 5.13664 471.921 4.68029 472.287 4.43484L475.82 2.06692C476.236 1.78812 476.795 1.86005 477.126 2.23521L482.482 8.29222C482.808 8.66132 483.355 8.73769 483.77 8.47219L491.183 3.73016C491.634 3.44162 491.778 2.84899 491.509 2.38587L486.643 -5.99995C486.436 -6.35605 486.469 -6.80241 486.725 -7.12456L489.011 -9.99695C489.321 -10.3864 489.87 -10.4886 490.3 -10.2369L498.582 -5.38027C499 -5.13501 499.534 -5.22512 499.848 -5.59407L503.703 -10.1147C503.987 -10.4482 504.021 -10.9281 503.787 -11.2984L498.838 -19.1156C498.628 -19.4487 498.632 -19.8746 498.85 -20.2031L501.204 -23.7523C501.504 -24.2045 502.11 -24.335 502.569 -24.0463L508.245 -20.4801" stroke="#074D76"/>
</g>
</svg>
