<svg width="420" height="208" viewBox="0 0 420 208" fill="none" xmlns="http://www.w3.org/2000/svg">
<mask id="mask0_662_16519" style="mask-type:alpha" maskUnits="userSpaceOnUse" x="0" y="0" width="420" height="208">
<rect y="208" width="208" height="420" rx="5" transform="rotate(-90 0 208)" fill="white"/>
</mask>
<g mask="url(#mask0_662_16519)">
<line x1="-64.7871" y1="64.6064" x2="78.1916" y2="64.6065" stroke="#074D76"/>
<line x1="149.681" y1="88.8613" x2="259.149" y2="88.8613" stroke="#074D76"/>
<line x1="317.234" y1="30.7764" x2="520.532" y2="30.7764" stroke="#074D76"/>
<line x1="258.032" y1="208.383" x2="388.724" y2="208.383" stroke="#074D76"/>
<line x1="406.596" y1="208.383" x2="528.351" y2="208.383" stroke="#074D76"/>
<line x1="249.596" y1="173.139" x2="249.596" y2="246.862" stroke="#074D76"/>
<line x1="311.032" y1="121.756" x2="311.032" y2="344.043" stroke="#074D76"/>
<line x1="84.8936" y1="18.4893" x2="227.872" y2="18.4893" stroke="#074D76"/>
<line x1="395.926" y1="-203.298" x2="395.926" y2="268.085" stroke="#074D76"/>
<line x1="103.266" y1="173.139" x2="103.266" y2="446.809" stroke="#074D76"/>
<path d="M5.58474 45.5003C17.0426 45.5003 26.3081 54.5409 26.3081 65.6652C26.3081 76.7895 17.0426 85.8301 5.58473 85.8301C-5.87314 85.8301 -15.1387 76.7895 -15.1387 65.6652C-15.1387 54.5409 -5.87314 45.5003 5.58474 45.5003Z" stroke="#074D76"/>
<path d="M87.6862 45.5003C99.465 45.5003 108.968 54.5529 108.968 65.6652C108.968 76.7775 99.465 85.8301 87.6862 85.8301C75.9074 85.8301 66.4043 76.7775 66.4043 65.6652C66.4043 54.5529 75.9074 45.5003 87.6862 45.5003Z" stroke="#074D76"/>
<path d="M15.6387 113.936C105.708 113.936 178.724 186.952 178.724 277.022" stroke="#074D76"/>
<path d="M10.0527 115.054L22.34 109.468L22.34 120.639L10.0527 115.054Z" fill="#074D76"/>
<path d="M249.096 -20.7711L249.096 101.883C249.096 102.987 249.991 103.883 251.096 103.883L526.351 103.883C527.456 103.883 528.351 102.987 528.351 101.883L528.351 -25.6916" stroke="#074D76"/>
<circle cx="504.335" cy="-2.79214" r="182.133" transform="rotate(-90 504.335 -2.79214)" stroke="#074D76"/>
<path d="M-80.9301 348.586L-79.4622 353.013C-79.363 353.312 -79.4106 353.64 -79.5907 353.899L-84.592 361.081C-84.8332 361.427 -84.831 361.888 -84.5866 362.232L-81.3806 366.744C-81.1156 367.117 -80.6314 367.262 -80.2048 367.097L-71.0495 363.557C-70.6417 363.4 -70.1787 363.525 -69.9065 363.867L-67.5559 366.821C-67.2907 367.154 -67.2657 367.619 -67.4934 367.979L-72.3181 375.6C-72.593 376.034 -72.494 376.606 -72.0891 376.923L-66.1121 381.596C-65.7462 381.882 -65.2315 381.879 -64.8695 381.587L-57.8609 375.951C-57.5556 375.706 -57.1351 375.661 -56.7851 375.837L-53.2718 377.603C-52.8212 377.829 -52.6097 378.356 -52.7786 378.831L-56.2375 388.567C-56.4122 389.059 -56.1795 389.602 -55.7032 389.815L-49.8621 392.424C-49.4828 392.594 -49.0382 392.511 -48.7452 392.217L-42.3549 385.793C-42.0867 385.523 -41.6888 385.429 -41.3282 385.55L-37.8384 386.719C-37.3772 386.874 -37.0941 387.338 -37.1677 387.819L-38.546 396.825C-38.6162 397.284 -38.3613 397.731 -37.9306 397.904L-31.2633 400.585C-30.8372 400.756 -30.3492 400.615 -30.08 400.243L-24.3996 392.392C-24.1768 392.084 -23.7989 391.929 -23.4241 391.991L-19.9941 392.566C-19.5123 392.647 -19.1593 393.064 -19.1593 393.552L-19.1593 403.326C-19.1593 403.802 -18.8234 404.212 -18.3564 404.306L-11.8376 405.617C-11.3693 405.711 -10.8997 405.46 -10.7167 405.019L-7.22347 396.591C-7.06864 396.218 -6.70406 395.974 -6.29968 395.974L-2.13687 395.974C-1.643 395.974 -1.2231 396.335 -1.14838 396.823L0.217385 405.747C0.292098 406.235 0.712007 406.596 1.20588 406.596L8.42919 406.596C8.92306 406.596 9.34297 406.235 9.41768 405.747L10.7835 396.823C10.8582 396.335 11.2781 395.974 11.7719 395.974L15.9348 395.974C16.3391 395.974 16.7037 396.218 16.8585 396.591L20.3574 405.033C20.5378 405.468 20.9975 405.718 21.461 405.633L28.7869 404.294C29.262 404.208 29.6071 403.794 29.6071 403.311L29.6071 394.998C29.6071 394.599 29.8447 394.238 30.2115 394.08L34.4576 392.25C34.9327 392.046 35.4855 392.237 35.7322 392.692L39.7616 400.118C39.9981 400.554 40.5182 400.75 40.9839 400.58L48.2516 397.923C48.7392 397.745 49.0093 397.223 48.8734 396.722L46.8634 389.314C46.751 388.9 46.9154 388.46 47.2718 388.221L50.795 385.86C51.224 385.572 51.8013 385.659 52.1273 386.059L58.3187 393.666C58.6332 394.053 59.1842 394.149 59.6108 393.891L66.258 389.882C66.6816 389.627 66.8547 389.1 66.6653 388.643L63.1861 380.249C63.0315 379.876 63.1163 379.447 63.4009 379.161L66.3221 376.224C66.6987 375.846 67.3061 375.83 67.702 376.188L74.4985 382.337C74.8592 382.663 75.4023 382.683 75.7854 382.383L81.771 377.703C82.1557 377.402 82.2669 376.868 82.034 376.439L77.8834 368.789C77.6885 368.43 77.7317 367.989 77.9925 367.674L81.0979 363.928C81.4037 363.559 81.9283 363.459 82.3485 363.689L89.8516 367.803C90.2672 368.031 90.7857 367.936 91.0933 367.575L94.9073 363.102C95.2178 362.738 95.2268 362.205 94.9289 361.831L89.3926 354.874C89.1226 354.535 89.102 354.06 89.3417 353.699L91.777 350.027C92.0223 349.657 92.482 349.493 92.9059 349.624L102.042 352.45C102.466 352.581 102.925 352.417 103.171 352.047L107.129 346.078C107.415 345.647 107.325 345.07 106.923 344.746L100.096 339.256C99.7469 338.975 99.6271 338.496 99.8028 338.084L101.615 333.833C101.805 333.387 102.288 333.142 102.761 333.251L111.571 335.295C112.095 335.417 112.622 335.102 112.762 334.583L114.719 327.371C114.85 326.887 114.603 326.381 114.14 326.187L105.908 322.739C105.488 322.563 105.24 322.126 105.304 321.676L105.894 317.524C105.96 317.056 106.345 316.698 106.817 316.667L117.435 315.955C117.886 315.925 118.261 315.596 118.349 315.152L119.661 308.558C119.756 308.081 119.494 307.605 119.041 307.43L109.898 303.895C109.513 303.746 109.259 303.376 109.259 302.963L109.259 298.786C109.259 298.293 109.619 297.873 110.106 297.798L119.052 296.414C119.506 296.344 119.854 295.974 119.896 295.516L120.552 288.252C120.6 287.723 120.225 287.248 119.699 287.172L110.117 285.796C109.625 285.726 109.259 285.304 109.259 284.807L109.259 279.874C109.259 279.436 109.545 279.049 109.964 278.919L118.979 276.13C119.462 275.981 119.757 275.495 119.667 274.997L118.348 267.703C118.262 267.227 117.848 266.881 117.364 266.881L108.355 266.881C107.924 266.881 107.542 266.605 107.406 266.196L106.253 262.717C106.109 262.283 106.278 261.806 106.663 261.56L114.33 256.655C114.698 256.42 114.871 255.973 114.756 255.551L112.744 248.135C112.611 247.644 112.13 247.331 111.626 247.409L102.61 248.803C102.208 248.866 101.807 248.677 101.599 248.328L99.926 245.525C99.6816 245.116 99.7602 244.591 100.114 244.271L107.046 237.999C107.39 237.688 107.475 237.18 107.25 236.774L103.963 230.826C103.734 230.412 103.245 230.215 102.792 230.355L93.8158 233.131C93.3475 233.276 92.8432 233.06 92.6249 232.621L90.8291 229.011C90.6664 228.684 90.6951 228.294 90.9038 227.994L95.8784 220.85C96.1067 220.522 96.118 220.09 95.907 219.751L92.673 214.549C92.3999 214.11 91.8369 213.951 91.3747 214.184L83.0338 218.376C82.6728 218.557 82.238 218.504 81.9319 218.24L77.4314 214.362C77.0432 214.028 76.9707 213.454 77.2635 213.033L81.9605 206.288C82.2367 205.891 82.1897 205.354 81.8489 205.011L78.8845 202.031C78.5797 201.725 78.1126 201.649 77.7264 201.843L69.0694 206.194C68.7869 206.336 68.4538 206.336 68.1712 206.194L64.4979 204.348C64.0623 204.129 63.8481 203.628 63.9907 203.162L66.7775 194.057C66.9065 193.636 66.7442 193.179 66.378 192.934L60.4812 188.982C60.0341 188.682 59.4299 188.791 59.1143 189.227L53.7053 196.703C53.4053 197.118 52.8408 197.239 52.397 196.984L48.1305 194.533C47.7489 194.314 47.5555 193.871 47.6539 193.442L49.7426 184.344C49.8495 183.878 49.612 183.402 49.1758 183.207L43.3848 180.62C42.9386 180.421 42.4136 180.573 42.1435 180.98L36.5144 189.468C36.2733 189.832 35.8243 189.997 35.405 189.877L31.1439 188.653C30.7153 188.53 30.42 188.138 30.42 187.692L30.42 179.316C30.42 178.908 30.1718 178.541 29.793 178.388L23.2358 175.752C22.7173 175.543 22.1285 175.8 21.9288 176.322L18.4742 185.351C18.3261 185.738 17.9547 185.994 17.5402 185.994L13.3975 185.994C12.9036 185.994 12.4837 185.633 12.409 185.145L11.0433 176.221C10.9685 175.733 10.5486 175.372 10.0548 175.372L2.83145 175.372C2.33759 175.372 1.91768 175.733 1.84296 176.221L0.477194 185.145C0.402481 185.633 -0.0174282 185.994 -0.511297 185.994L-5.41518 185.994C-5.85473 185.994 -6.24274 185.707 -6.37139 185.287L-9.14549 176.223C-9.294 175.738 -9.78235 175.441 -10.2815 175.532L-17.5263 176.856C-18.0014 176.943 -18.3465 177.357 -18.3465 177.84L-18.3465 187.692C-18.3465 188.138 -18.6418 188.53 -19.0704 188.653L-23.1779 189.833C-23.6667 189.973 -24.183 189.724 -24.3777 189.254L-27.7427 181.136C-27.9438 180.651 -28.4861 180.404 -28.9842 180.571L-37.0449 183.272C-37.5106 183.428 -37.794 183.899 -37.7137 184.384L-36.3411 192.662C-36.2728 193.074 -36.4675 193.485 -36.8295 193.693L-41.1221 196.159C-41.5718 196.417 -42.1444 196.289 -42.4408 195.863L-47.0888 189.188C-47.3826 188.766 -47.9483 188.636 -48.3971 188.887L-54.2164 192.137C-54.6277 192.366 -54.8229 192.852 -54.685 193.302L-51.8876 202.442C-51.7585 202.863 -51.9208 203.32 -52.2871 203.565L-55.8204 205.933C-56.2364 206.212 -56.7945 206.14 -57.1262 205.765L-62.4821 199.708C-62.8085 199.339 -63.3551 199.262 -63.7701 199.528L-71.1829 204.27C-71.634 204.558 -71.7777 205.151 -71.509 205.614L-66.6428 214C-66.4362 214.356 -66.4689 214.802 -66.7253 215.125L-69.0112 217.997C-69.3211 218.386 -69.8702 218.489 -70.2995 218.237L-78.5816 213.38C-78.9998 213.135 -79.5338 213.225 -79.8484 213.594L-83.703 218.115C-83.9873 218.448 -84.0214 218.928 -83.787 219.298L-78.8384 227.116C-78.6275 227.449 -78.6321 227.875 -78.8499 228.203L-81.2037 231.752C-81.5036 232.205 -82.1095 232.335 -82.569 232.046L-88.2451 228.48" stroke="#074D76"/>
</g>
</svg>
