<svg width="420" height="208" viewBox="0 0 420 208" fill="none" xmlns="http://www.w3.org/2000/svg">
<mask id="mask0_662_16881" style="mask-type:alpha" maskUnits="userSpaceOnUse" x="0" y="0" width="420" height="208">
<rect width="208" height="420" rx="5" transform="matrix(-1.31134e-07 -1 -1 1.31134e-07 420 208)" fill="white"/>
</mask>
<g mask="url(#mask0_662_16881)">
<line y1="-0.5" x2="142.979" y2="-0.5" transform="matrix(-1 1.74846e-07 1.74846e-07 1 484.787 65.1064)" stroke="#074D76"/>
<line y1="-0.5" x2="203.298" y2="-0.5" transform="matrix(-1 1.59602e-07 1.59602e-07 1 102.766 31.2764)" stroke="#074D76"/>
<line y1="-0.5" x2="130.691" y2="-0.5" transform="matrix(-1 1.74846e-07 1.74846e-07 1 161.968 208.883)" stroke="#074D76"/>
<line y1="-0.5" x2="121.755" y2="-0.5" transform="matrix(-1 1.74846e-07 1.74846e-07 1 13.4043 208.883)" stroke="#074D76"/>
<line y1="-0.5" x2="73.7234" y2="-0.5" transform="matrix(1.31134e-07 1 1 -1.31134e-07 170.904 173.139)" stroke="#074D76"/>
<line y1="-0.5" x2="222.287" y2="-0.5" transform="matrix(1.31134e-07 1 1 -1.31134e-07 109.468 121.756)" stroke="#074D76"/>
<line y1="-0.5" x2="142.979" y2="-0.5" transform="matrix(-1 1.74846e-07 1.74846e-07 1 335.106 18.9893)" stroke="#074D76"/>
<line y1="-0.5" x2="471.383" y2="-0.5" transform="matrix(1.31134e-07 1 1 -1.31134e-07 24.5742 -203.298)" stroke="#074D76"/>
<line y1="-0.5" x2="273.67" y2="-0.5" transform="matrix(1.31134e-07 1 1 -1.31134e-07 317.234 173.139)" stroke="#074D76"/>
<path d="M414.415 45.5003C402.957 45.5003 393.692 54.5409 393.692 65.6652C393.692 76.7895 402.957 85.8301 414.415 85.8301C425.873 85.8301 435.139 76.7895 435.139 65.6652C435.139 54.5409 425.873 45.5003 414.415 45.5003Z" stroke="#074D76"/>
<path d="M332.314 45.5003C320.535 45.5003 311.032 54.5529 311.032 65.6652C311.032 76.7775 320.535 85.8301 332.314 85.8301C344.093 85.8301 353.596 76.7775 353.596 65.6652C353.596 54.5529 344.093 45.5003 332.314 45.5003Z" stroke="#074D76"/>
<path d="M404.361 113.936C314.292 113.936 241.276 186.952 241.276 277.022" stroke="#074D76"/>
<path d="M409.947 115.054L397.66 109.468L397.66 120.639L409.947 115.054Z" fill="#074D76"/>
<path d="M170.904 -20.7711L170.904 101.883C170.904 102.987 170.009 103.883 168.904 103.883L-106.351 103.883C-107.456 103.883 -108.351 102.987 -108.351 101.883L-108.351 -25.6916" stroke="#074D76"/>
<circle cx="182.633" cy="182.633" r="182.133" transform="matrix(-1.31134e-07 -1 -1 1.31134e-07 98.2979 179.841)" stroke="#074D76"/>
<path d="M500.93 348.586L499.462 353.013C499.363 353.312 499.411 353.64 499.591 353.899L504.592 361.081C504.833 361.427 504.831 361.888 504.587 362.232L501.381 366.744C501.116 367.117 500.631 367.262 500.205 367.097L491.05 363.557C490.642 363.4 490.179 363.525 489.906 363.867L487.556 366.821C487.291 367.154 487.266 367.619 487.493 367.979L492.318 375.6C492.593 376.034 492.494 376.606 492.089 376.923L486.112 381.596C485.746 381.882 485.231 381.879 484.869 381.587L477.861 375.951C477.556 375.706 477.135 375.661 476.785 375.837L473.272 377.603C472.821 377.829 472.61 378.356 472.779 378.831L476.238 388.567C476.412 389.059 476.18 389.602 475.703 389.815L469.862 392.424C469.483 392.594 469.038 392.511 468.745 392.217L462.355 385.793C462.087 385.523 461.689 385.429 461.328 385.55L457.838 386.719C457.377 386.874 457.094 387.338 457.168 387.819L458.546 396.825C458.616 397.284 458.361 397.731 457.931 397.904L451.263 400.585C450.837 400.756 450.349 400.615 450.08 400.243L444.4 392.392C444.177 392.084 443.799 391.929 443.424 391.991L439.994 392.566C439.512 392.647 439.159 393.064 439.159 393.552L439.159 403.326C439.159 403.802 438.823 404.212 438.356 404.306L431.838 405.617C431.369 405.711 430.9 405.46 430.717 405.019L427.223 396.591C427.069 396.218 426.704 395.974 426.3 395.974L422.137 395.974C421.643 395.974 421.223 396.335 421.148 396.823L419.783 405.747C419.708 406.235 419.288 406.596 418.794 406.596L411.571 406.596C411.077 406.596 410.657 406.235 410.582 405.747L409.217 396.823C409.142 396.335 408.722 395.974 408.228 395.974L404.065 395.974C403.661 395.974 403.296 396.218 403.141 396.591L399.643 405.033C399.462 405.468 399.002 405.718 398.539 405.633L391.213 404.294C390.738 404.208 390.393 403.794 390.393 403.311L390.393 394.998C390.393 394.599 390.155 394.238 389.789 394.08L385.542 392.25C385.067 392.046 384.514 392.237 384.268 392.692L380.238 400.118C380.002 400.554 379.482 400.75 379.016 400.58L371.748 397.923C371.261 397.745 370.991 397.223 371.127 396.722L373.137 389.314C373.249 388.9 373.085 388.46 372.728 388.221L369.205 385.86C368.776 385.572 368.199 385.659 367.873 386.059L361.681 393.666C361.367 394.053 360.816 394.149 360.389 393.891L353.742 389.882C353.318 389.627 353.145 389.1 353.335 388.643L356.814 380.249C356.968 379.876 356.884 379.447 356.599 379.161L353.678 376.224C353.301 375.846 352.694 375.83 352.298 376.188L345.501 382.337C345.141 382.663 344.598 382.683 344.215 382.383L338.229 377.703C337.844 377.402 337.733 376.868 337.966 376.439L342.117 368.789C342.311 368.43 342.268 367.989 342.008 367.674L338.902 363.928C338.596 363.559 338.072 363.459 337.651 363.689L330.148 367.803C329.733 368.031 329.214 367.936 328.907 367.575L325.093 363.102C324.782 362.738 324.773 362.205 325.071 361.831L330.607 354.874C330.877 354.535 330.898 354.06 330.658 353.699L328.223 350.027C327.978 349.657 327.518 349.493 327.094 349.624L317.958 352.45C317.534 352.581 317.075 352.417 316.829 352.047L312.871 346.078C312.585 345.647 312.675 345.07 313.077 344.746L319.904 339.256C320.253 338.975 320.373 338.496 320.197 338.084L318.385 333.833C318.195 333.387 317.712 333.142 317.239 333.251L308.429 335.295C307.905 335.417 307.378 335.102 307.238 334.583L305.281 327.371C305.15 326.887 305.397 326.381 305.86 326.187L314.092 322.739C314.512 322.563 314.76 322.126 314.696 321.676L314.106 317.524C314.04 317.056 313.655 316.698 313.183 316.667L302.565 315.955C302.114 315.925 301.739 315.596 301.651 315.152L300.339 308.558C300.244 308.081 300.506 307.605 300.959 307.43L310.102 303.895C310.487 303.746 310.741 303.376 310.741 302.963L310.741 298.786C310.741 298.293 310.381 297.873 309.894 297.798L300.948 296.414C300.494 296.344 300.146 295.974 300.104 295.516L299.448 288.252C299.4 287.723 299.775 287.248 300.301 287.172L309.883 285.796C310.375 285.726 310.741 285.304 310.741 284.807L310.741 279.874C310.741 279.436 310.455 279.049 310.036 278.919L301.021 276.13C300.538 275.981 300.243 275.495 300.333 274.997L301.652 267.703C301.738 267.227 302.152 266.881 302.636 266.881L311.645 266.881C312.076 266.881 312.458 266.605 312.594 266.196L313.747 262.717C313.891 262.283 313.722 261.806 313.337 261.56L305.67 256.655C305.302 256.42 305.129 255.973 305.244 255.551L307.256 248.135C307.389 247.644 307.87 247.331 308.374 247.409L317.39 248.803C317.792 248.866 318.193 248.677 318.401 248.328L320.074 245.525C320.318 245.116 320.24 244.591 319.886 244.271L312.954 237.999C312.61 237.688 312.525 237.18 312.75 236.774L316.037 230.826C316.266 230.412 316.755 230.215 317.208 230.355L326.184 233.131C326.653 233.276 327.157 233.06 327.375 232.621L329.171 229.011C329.334 228.684 329.305 228.294 329.096 227.994L324.122 220.85C323.893 220.522 323.882 220.09 324.093 219.751L327.327 214.549C327.6 214.11 328.163 213.951 328.625 214.184L336.966 218.376C337.327 218.557 337.762 218.504 338.068 218.24L342.569 214.362C342.957 214.028 343.029 213.454 342.736 213.033L338.039 206.288C337.763 205.891 337.81 205.354 338.151 205.011L341.116 202.031C341.42 201.725 341.887 201.649 342.274 201.843L350.931 206.194C351.213 206.336 351.546 206.336 351.829 206.194L355.502 204.348C355.938 204.129 356.152 203.628 356.009 203.162L353.223 194.057C353.093 193.636 353.256 193.179 353.622 192.934L359.519 188.982C359.966 188.682 360.57 188.791 360.886 189.227L366.295 196.703C366.595 197.118 367.159 197.239 367.603 196.984L371.87 194.533C372.251 194.314 372.445 193.871 372.346 193.442L370.257 184.344C370.151 183.878 370.388 183.402 370.824 183.207L376.615 180.62C377.061 180.421 377.586 180.573 377.857 180.98L383.486 189.468C383.727 189.832 384.176 189.997 384.595 189.877L388.856 188.653C389.285 188.53 389.58 188.138 389.58 187.692L389.58 179.316C389.58 178.908 389.828 178.541 390.207 178.388L396.764 175.752C397.283 175.543 397.872 175.8 398.071 176.322L401.526 185.351C401.674 185.738 402.045 185.994 402.46 185.994L406.602 185.994C407.096 185.994 407.516 185.633 407.591 185.145L408.957 176.221C409.031 175.733 409.451 175.372 409.945 175.372L417.169 175.372C417.662 175.372 418.082 175.733 418.157 176.221L419.523 185.145C419.598 185.633 420.017 185.994 420.511 185.994L425.415 185.994C425.855 185.994 426.243 185.707 426.371 185.287L429.145 176.223C429.294 175.738 429.782 175.441 430.281 175.532L437.526 176.856C438.001 176.943 438.347 177.357 438.347 177.84L438.347 187.692C438.347 188.138 438.642 188.53 439.07 188.653L443.178 189.833C443.667 189.973 444.183 189.724 444.378 189.254L447.743 181.136C447.944 180.651 448.486 180.404 448.984 180.571L457.045 183.272C457.511 183.428 457.794 183.899 457.714 184.384L456.341 192.662C456.273 193.074 456.468 193.485 456.83 193.693L461.122 196.159C461.572 196.417 462.144 196.289 462.441 195.863L467.089 189.188C467.383 188.766 467.948 188.636 468.397 188.887L474.216 192.137C474.628 192.366 474.823 192.852 474.685 193.302L471.888 202.442C471.759 202.863 471.921 203.32 472.287 203.565L475.82 205.933C476.236 206.212 476.794 206.14 477.126 205.765L482.482 199.708C482.808 199.339 483.355 199.262 483.77 199.528L491.183 204.27C491.634 204.558 491.778 205.151 491.509 205.614L486.643 214C486.436 214.356 486.469 214.802 486.725 215.125L489.011 217.997C489.321 218.386 489.87 218.489 490.299 218.237L498.582 213.38C499 213.135 499.534 213.225 499.848 213.594L503.703 218.115C503.987 218.448 504.021 218.928 503.787 219.298L498.838 227.116C498.628 227.449 498.632 227.875 498.85 228.203L501.204 231.752C501.504 232.205 502.11 232.335 502.569 232.046L508.245 228.48" stroke="#074D76"/>
</g>
</svg>
