<svg width="32" height="32" viewBox="0 0 32 32" fill="none" xmlns="http://www.w3.org/2000/svg">
<g clip-path="url(#clip0_662_17093)">
<path d="M31.6928 13.3632L28.544 13.0816C28.224 11.712 27.6736 10.4064 26.9312 9.216L28.9536 6.784C29.0176 6.72 29.0432 6.6432 29.0432 6.5664C29.0432 6.4768 29.0048 6.3872 28.9408 6.3232L25.6896 3.072C25.5616 2.944 25.3696 2.9312 25.2416 3.0464L22.7968 5.0688C21.6064 4.3264 20.288 3.776 18.9184 3.4688L18.6368 0.32C18.6112 0.1408 18.4704 0 18.304 0H13.696C13.5296 0 13.3888 0.1408 13.3632 0.32L13.0816 3.4688C11.712 3.776 10.3936 4.3264 9.2032 5.0688L6.7584 3.0464C6.6944 2.9952 6.6176 2.9696 6.5536 2.9696C6.464 2.9696 6.3744 2.9952 6.3104 3.0592L3.0592 6.3104C2.9312 6.4384 2.9312 6.6432 3.0464 6.784L5.0688 9.216C4.3264 10.3936 3.776 11.6992 3.456 13.0816L0.3072 13.3632C0.128 13.3888 0 13.5296 0 13.7088V18.304C0 18.4832 0.128 18.624 0.3072 18.6496L3.456 18.9312C3.776 20.3008 4.3264 21.6064 5.0688 22.7968L3.0464 25.2288C3.0464 25.2288 2.9568 25.3696 2.9568 25.4464C2.9568 25.536 2.9952 25.6256 3.0592 25.6896L6.3104 28.9536C6.4384 29.0688 6.6304 29.0816 6.7584 28.9536L9.2032 26.9312C10.3936 27.6736 11.712 28.224 13.0816 28.5312L13.3632 31.68C13.3888 31.8592 13.5296 32 13.696 31.9872H18.304C18.4704 32 18.6112 31.8592 18.6368 31.68L18.9184 28.5312C20.288 28.2112 21.6064 27.6736 22.7968 26.9312L25.2416 28.9536C25.3696 29.0688 25.5616 29.056 25.6896 28.9536L28.9408 25.7024C29.0688 25.5744 29.0688 25.3696 28.9536 25.2288L26.9312 22.7968C27.6736 21.6192 28.224 20.3008 28.544 18.9312L31.6928 18.6496C31.872 18.624 32 18.4832 32 18.304V13.7088C32 13.5296 31.872 13.3888 31.6928 13.3632ZM22.0928 19.52L16 23.04L9.9072 19.52V12.48L16 8.96L22.0928 12.48V19.52Z" fill="currentColor"/>
</g>
<defs>
<clipPath id="clip0_662_17093">
<rect width="32" height="32" fill="currentColor"/>
</clipPath>
</defs>
</svg>
