<?xml version="1.0" encoding="UTF-8" standalone="no"?>
<!DOCTYPE svg PUBLIC "-//W3C//DTD SVG 20010904//EN"
              "http://www.w3.org/TR/2001/REC-SVG-20010904/DTD/svg10.dtd">

<svg xmlns="http://www.w3.org/2000/svg"
     width="6.94444in" height="3.70833in"
     viewBox="0 0 500 267">
  <path id="Imported Path #6"
        fill="none" stroke="black" stroke-width="1"
        d="M 500.00,131.03
           C 500.00,131.03 500.00,131.03 500.00,131.03
             500.00,63.62 446.75,8.47 379.35,8.46
             379.35,8.46 122.56,8.46 122.56,8.46
             55.15,8.46 0.00,63.62 0.00,131.03
             0.00,131.03 0.00,131.03 0.00,131.03
             0.00,192.61 45.11,252.82 105.05,253.59
             120.78,253.79 152.61,251.26 186.75,241.91
             226.37,231.06 275.55,231.02 315.15,241.91
             349.03,251.24 385.42,253.78 396.85,253.59
             456.80,252.57 500.00,192.61 500.00,131.03 Z" />
  <path id="Imported Path #5"
        fill="none" stroke="black" stroke-width="1"
        d="M 277.47,43.56
           C 277.47,43.56 236.84,43.56 236.84,43.56" />
  <path id="Imported Path #4"
        fill="none" stroke="black" stroke-width="1"
        d="M 315.79,104.96
           C 301.26,104.96 289.47,116.75 289.47,131.28
             289.47,145.81 301.26,157.60 315.79,157.60
             330.32,157.60 342.11,145.81 342.11,131.28
             342.11,116.75 330.32,104.96 315.79,104.96 Z" />
  <path id="Imported Path #3"
        fill="none" stroke="black" stroke-width="1"
        d="M 438.60,104.96
           C 424.06,104.96 412.28,116.75 412.28,131.28
             412.28,145.81 424.06,157.60 438.60,157.60
             453.13,157.60 464.91,145.81 464.91,131.28
             464.91,116.75 453.13,104.96 438.60,104.96 Z" />
  <path id="Imported Path #2"
        fill="none" stroke="black" stroke-width="1"
        d="M 377.19,166.37
           C 362.66,166.37 350.88,178.15 350.88,192.68
             350.88,207.22 362.66,219.00 377.19,219.00
             391.73,219.00 403.51,207.22 403.51,192.68
             403.51,178.15 391.73,166.37 377.19,166.37 Z" />
  <path id="Imported Path #1"
        fill="none" stroke="black" stroke-width="1"
        d="M 377.19,43.56
           C 362.66,43.56 350.88,55.34 350.88,69.88
             350.88,84.41 362.66,96.19 377.19,96.19
             391.73,96.19 403.51,84.41 403.51,69.88
             403.51,55.34 391.73,43.56 377.19,43.56 Z" />
  <path id="Imported Path"
        fill="none" stroke="black" stroke-width="1"
        d="M 192.98,157.60
           C 192.98,157.60 157.89,157.60 157.89,157.60
             157.89,157.60 157.89,192.68 157.89,192.68
             157.89,192.68 105.26,192.68 105.26,192.68
             105.26,192.68 105.26,157.60 105.26,157.60
             105.26,157.60 70.18,157.60 70.18,157.60
             70.18,157.60 70.18,104.96 70.18,104.96
             70.18,104.96 105.26,104.96 105.26,104.96
             105.26,104.96 105.26,69.88 105.26,69.88
             105.26,69.88 157.89,69.88 157.89,69.88
             157.89,69.88 157.89,104.96 157.89,104.96
             157.89,104.96 192.98,104.96 192.98,104.96
             192.98,104.96 192.98,157.60 192.98,157.60 Z" />
</svg>
