{
    "asset" : {
        "copyright" : "MIT",
        "generator" : "Khronos glTF Blender I/O v1.2.75",
        "version" : "2.0"
    },
    "scene" : 0,
    "scenes" : [
        {
            "name" : "Scene",
            "nodes" : [
                4
            ]
        }
    ],
    "nodes" : [
        {
            "mesh" : 0,
            "name" : "WheelBackLeft",
            "translation" : [
                -0.8192906379699707,
                0.2000001221895218,
                -1.0999987125396729
            ]
        },
        {
            "mesh" : 1,
            "name" : "WheelBackRight",
            "translation" : [
                -0.8192906379699707,
                0.2000001221895218,
                1.0999996662139893
            ]
        },
        {
            "mesh" : 2,
            "name" : "WheelFrontLeft",
            "translation" : [
                0.6090703010559082,
                0.2000001221895218,
                -1.0999987125396729
            ]
        },
        {
            "mesh" : 3,
            "name" : "WheelFrontRight",
            "translation" : [
                0.6090703010559082,
                0.2000001221895218,
                1.0999996662139893
            ]
        },
        {
            "children" : [
                0,
                1,
                2,
                3
            ],
            "mesh" : 4,
            "name" : "Robot"
        }
    ],
    "materials" : [
        {
            "doubleSided" : true,
            "emissiveFactor" : [
                0,
                0,
                0
            ],
            "name" : "Material",
            "pbrMetallicRoughness" : {
                "baseColorFactor" : [
                    0.3588409125804901,
                    0.3191148638725281,
                    0.21586328744888306,
                    1
                ],
                "metallicFactor" : 0.4933333396911621,
                "roughnessFactor" : 0.4000000059604645
            }
        }
    ],
    "meshes" : [
        {
            "name" : "Circle.003",
            "primitives" : [
                {
                    "attributes" : {
                        "POSITION" : 0,
                        "NORMAL" : 1,
                        "TEXCOORD_0" : 2
                    },
                    "indices" : 3
                }
            ]
        },
        {
            "name" : "Circle.002",
            "primitives" : [
                {
                    "attributes" : {
                        "POSITION" : 4,
                        "NORMAL" : 5,
                        "TEXCOORD_0" : 6
                    },
                    "indices" : 7
                }
            ]
        },
        {
            "name" : "Circle.001",
            "primitives" : [
                {
                    "attributes" : {
                        "POSITION" : 8,
                        "NORMAL" : 9,
                        "TEXCOORD_0" : 10
                    },
                    "indices" : 3
                }
            ]
        },
        {
            "name" : "Circle",
            "primitives" : [
                {
                    "attributes" : {
                        "POSITION" : 11,
                        "NORMAL" : 12,
                        "TEXCOORD_0" : 13
                    },
                    "indices" : 3
                }
            ]
        },
        {
            "name" : "Cube",
            "primitives" : [
                {
                    "attributes" : {
                        "POSITION" : 14,
                        "NORMAL" : 15,
                        "TEXCOORD_0" : 16
                    },
                    "indices" : 17,
                    "material" : 0
                }
            ]
        }
    ],
    "accessors" : [
        {
            "bufferView" : 0,
            "componentType" : 5126,
            "count" : 600,
            "max" : [
                0.20000028610229492,
                0.1999998837709427,
                0.04107940196990967
            ],
            "min" : [
                -0.19999969005584717,
                -0.2000001221895218,
                -0.04108226299285889
            ],
            "type" : "VEC3"
        },
        {
            "bufferView" : 1,
            "componentType" : 5126,
            "count" : 600,
            "type" : "VEC3"
        },
        {
            "bufferView" : 2,
            "componentType" : 5126,
            "count" : 600,
            "type" : "VEC2"
        },
        {
            "bufferView" : 3,
            "componentType" : 5123,
            "count" : 1044,
            "type" : "SCALAR"
        },
        {
            "bufferView" : 4,
            "componentType" : 5126,
            "count" : 600,
            "max" : [
                0.20000028610229492,
                0.1999998837709427,
                0.04108107089996338
            ],
            "min" : [
                -0.19999969005584717,
                -0.2000001221895218,
                -0.041080594062805176
            ],
            "type" : "VEC3"
        },
        {
            "bufferView" : 5,
            "componentType" : 5126,
            "count" : 600,
            "type" : "VEC3"
        },
        {
            "bufferView" : 6,
            "componentType" : 5126,
            "count" : 600,
            "type" : "VEC2"
        },
        {
            "bufferView" : 7,
            "componentType" : 5123,
            "count" : 1044,
            "type" : "SCALAR"
        },
        {
            "bufferView" : 8,
            "componentType" : 5126,
            "count" : 600,
            "max" : [
                0.19999992847442627,
                0.1999998837709427,
                0.04107940196990967
            ],
            "min" : [
                -0.20000004768371582,
                -0.2000001221895218,
                -0.04108226299285889
            ],
            "type" : "VEC3"
        },
        {
            "bufferView" : 9,
            "componentType" : 5126,
            "count" : 600,
            "type" : "VEC3"
        },
        {
            "bufferView" : 10,
            "componentType" : 5126,
            "count" : 600,
            "type" : "VEC2"
        },
        {
            "bufferView" : 11,
            "componentType" : 5126,
            "count" : 600,
            "max" : [
                0.19999992847442627,
                0.1999998837709427,
                0.04108107089996338
            ],
            "min" : [
                -0.20000004768371582,
                -0.2000001221895218,
                -0.041080594062805176
            ],
            "type" : "VEC3"
        },
        {
            "bufferView" : 12,
            "componentType" : 5126,
            "count" : 600,
            "type" : "VEC3"
        },
        {
            "bufferView" : 13,
            "componentType" : 5126,
            "count" : 600,
            "type" : "VEC2"
        },
        {
            "bufferView" : 14,
            "componentType" : 5126,
            "count" : 114,
            "max" : [
                1.0389444828033447,
                0.8827784657478333,
                1
            ],
            "min" : [
                -0.9610555171966553,
                0.09144968539476395,
                -1
            ],
            "type" : "VEC3"
        },
        {
            "bufferView" : 15,
            "componentType" : 5126,
            "count" : 114,
            "type" : "VEC3"
        },
        {
            "bufferView" : 16,
            "componentType" : 5126,
            "count" : 114,
            "type" : "VEC2"
        },
        {
            "bufferView" : 17,
            "componentType" : 5123,
            "count" : 162,
            "type" : "SCALAR"
        }
    ],
    "bufferViews" : [
        {
            "buffer" : 0,
            "byteLength" : 7200,
            "byteOffset" : 0
        },
        {
            "buffer" : 0,
            "byteLength" : 7200,
            "byteOffset" : 7200
        },
        {
            "buffer" : 0,
            "byteLength" : 4800,
            "byteOffset" : 14400
        },
        {
            "buffer" : 0,
            "byteLength" : 2088,
            "byteOffset" : 19200
        },
        {
            "buffer" : 0,
            "byteLength" : 7200,
            "byteOffset" : 21288
        },
        {
            "buffer" : 0,
            "byteLength" : 7200,
            "byteOffset" : 28488
        },
        {
            "buffer" : 0,
            "byteLength" : 4800,
            "byteOffset" : 35688
        },
        {
            "buffer" : 0,
            "byteLength" : 2088,
            "byteOffset" : 40488
        },
        {
            "buffer" : 0,
            "byteLength" : 7200,
            "byteOffset" : 42576
        },
        {
            "buffer" : 0,
            "byteLength" : 7200,
            "byteOffset" : 49776
        },
        {
            "buffer" : 0,
            "byteLength" : 4800,
            "byteOffset" : 56976
        },
        {
            "buffer" : 0,
            "byteLength" : 7200,
            "byteOffset" : 61776
        },
        {
            "buffer" : 0,
            "byteLength" : 7200,
            "byteOffset" : 68976
        },
        {
            "buffer" : 0,
            "byteLength" : 4800,
            "byteOffset" : 76176
        },
        {
            "buffer" : 0,
            "byteLength" : 1368,
            "byteOffset" : 80976
        },
        {
            "buffer" : 0,
            "byteLength" : 1368,
            "byteOffset" : 82344
        },
        {
            "buffer" : 0,
            "byteLength" : 912,
            "byteOffset" : 83712
        },
        {
            "buffer" : 0,
            "byteLength" : 324,
            "byteOffset" : 84624
        }
    ],
    "buffers" : [
        {
            "byteLength" : 84948,
            "uri" : "data:application/octet-stream;base64,"
        }
    ]
}