<svg width="1440" height="300" viewBox="0 0 1440 300" fill="none" xmlns="http://www.w3.org/2000/svg">
<mask id="mask0_672_23930" style="mask-type:alpha" maskUnits="userSpaceOnUse" x="0" y="0" width="1440" height="300">
<path d="M0 0H1440V300H0V0Z" fill="#E90563"/>
</mask>
<g mask="url(#mask0_672_23930)">
<circle cx="1299.19" cy="130.71" r="105.775" transform="rotate(-135 1299.19 130.71)" fill="#FC73AC" fill-opacity="0.25"/>
<circle cx="792.522" cy="133.819" r="68.2518" transform="rotate(135 792.522 133.819)" fill="#FC73AC" fill-opacity="0.25"/>
<rect x="792.826" y="-44.499" width="177.396" height="178.729" rx="5" transform="rotate(0.0732621 792.826 -44.499)" fill="#FC73AC" fill-opacity="0.25"/>
<path d="M866.734 234.246C870.53 233.609 873.592 237.32 872.246 240.926L796.219 444.578C794.873 448.184 790.128 448.981 787.678 446.012L649.324 278.345C646.874 275.376 648.557 270.868 652.353 270.231L866.734 234.246Z" fill="#FC73AC" fill-opacity="0.25"/>
<path d="M1375.22 -89.636C1378.96 -90.5341 1382.28 -87.0438 1381.18 -83.3534L1310.78 154.245C1309.68 157.935 1305 159.058 1302.35 156.266L1131.79 -23.5069C1129.14 -26.2991 1130.51 -30.9121 1134.25 -31.8103L1375.22 -89.636Z" fill="#FC73AC" fill-opacity="0.25"/>
<path d="M1045.85 272.438C1045.4 272.045 1045.39 271.346 1045.83 270.944L1142.57 182.983C1142.99 182.606 1143.63 182.643 1144 183.064L1166.18 208.429C1166.53 208.835 1166.5 209.45 1166.11 209.818L1102.34 269.34C1101.91 269.745 1101.92 270.435 1102.36 270.825L1169.24 329.166C1169.66 329.533 1169.7 330.172 1169.32 330.587L1145.18 357.562C1144.82 357.97 1144.19 358.009 1143.78 357.65L1045.85 272.438Z" fill="#FC73AC" fill-opacity="0.25"/>
<path d="M1045.5 270.574C1044.83 271.178 1044.84 272.226 1045.52 272.815L1143.45 358.027C1144.07 358.565 1145.01 358.507 1145.55 357.896L1169.7 330.92C1170.25 330.297 1170.2 329.339 1169.57 328.79L1102.69 270.448C1102.47 270.253 1102.46 269.908 1102.68 269.706L1166.45 210.184C1167.04 209.632 1167.09 208.709 1166.55 208.1L1144.38 182.735C1143.82 182.103 1142.86 182.048 1142.24 182.613L1045.5 270.574Z" stroke="#FC73AC" stroke-opacity="0.25"/>
<path d="M997.264 349.297L970 344.412L1035.74 77.2969L1063 82.1813L997.264 349.297Z" fill="#FC73AC" fill-opacity="0.25"/>
<path d="M996.647 352.742L999.878 353.321L1000.66 350.133L1066.4 83.0176L1067.29 79.3942L1063.62 78.7361L1036.35 73.8517L1033.12 73.2728L1032.34 76.4605L966.601 343.576L965.71 347.2L969.383 347.858L996.647 352.742Z" stroke="#FC73AC" stroke-opacity="0.25" stroke-width="7"/>
</g>
</svg>
