<svg width="1440" height="301" viewBox="0 0 1440 301" fill="none" xmlns="http://www.w3.org/2000/svg">
<mask id="mask0_672_23939" style="mask-type:alpha" maskUnits="userSpaceOnUse" x="0" y="0" width="1440" height="301">
<path d="M0 0H1440V301H0V0Z" fill="#146EFC"/>
</mask>
<g mask="url(#mask0_672_23939)">
<rect x="899.129" y="311.257" width="201" height="201" rx="5" transform="rotate(-135 899.129 311.257)" fill="#C3D9FE" fill-opacity="0.1"/>
<rect x="1449.48" y="200.434" width="133.735" height="133.735" rx="5" transform="rotate(-135 1449.48 200.434)" fill="#C3D9FE" fill-opacity="0.1"/>
<rect x="1319.38" y="350.675" width="99.7785" height="100.529" rx="5" transform="rotate(-170.398 1319.38 350.675)" fill="#C3D9FE" fill-opacity="0.1"/>
<circle opacity="0.9" cx="1182.13" cy="43.1318" r="150" transform="rotate(135 1182.13 43.1318)" fill="#C3D9FE" fill-opacity="0.1"/>
<circle opacity="0.9" cx="899.129" cy="302.065" r="69.5" transform="rotate(-135 899.129 302.065)" fill="#C3D9FE" fill-opacity="0.1"/>
<path d="M1085.67 213.533C1087.59 210.191 1092.41 210.191 1094.33 213.533L1206.93 409.257C1208.85 412.59 1206.44 416.75 1202.6 416.75H977.401C973.556 416.75 971.15 412.59 973.067 409.257L1085.67 213.533Z" fill="#C3D9FE" fill-opacity="0.1"/>
<path d="M688.286 359.154C684.437 359.154 682.032 354.988 683.956 351.654L742.198 250.776C744.123 247.443 748.934 247.443 750.858 250.776L809.1 351.654C811.025 354.988 808.619 359.154 804.77 359.154L688.286 359.154Z" fill="#C3D9FE" fill-opacity="0.1"/>
<path d="M1372.65 270.899C1372.85 271.467 1372.5 272.081 1371.92 272.206L1290.13 289.612C1289.59 289.728 1289.06 289.377 1288.94 288.832L1284.78 268.235C1284.67 267.702 1285.01 267.181 1285.54 267.061L1339.7 254.793C1340.28 254.662 1340.62 254.053 1340.42 253.49L1321.87 200.112C1321.69 199.583 1321.98 199.005 1322.51 198.833L1344.05 191.875C1344.56 191.708 1345.12 191.984 1345.3 192.497L1372.65 270.899Z" fill="#C3D9FE" fill-opacity="0.1"/>
<path d="M1372.02 272.695C1372.9 272.507 1373.42 271.587 1373.12 270.734L1345.77 192.332C1345.5 191.563 1344.67 191.149 1343.89 191.399L1322.36 198.357C1321.56 198.616 1321.13 199.482 1321.4 200.277L1339.95 253.654C1340.05 253.936 1339.88 254.24 1339.59 254.306L1285.43 266.574C1284.64 266.754 1284.13 267.535 1284.29 268.334L1288.45 288.931C1288.62 289.749 1289.42 290.275 1290.24 290.101L1372.02 272.695Z" stroke="#C3D9FE" stroke-opacity="0.1"/>
</g>
</svg>
