<svg width="1440" height="300" viewBox="0 0 1440 300" fill="none" xmlns="http://www.w3.org/2000/svg">
<mask id="mask0_989_823" style="mask-type:alpha" maskUnits="userSpaceOnUse" x="0" y="0" width="1440" height="300">
<path d="M0 0H1440V300H0V0Z" fill="#E90563"/>
</mask>
<g mask="url(#mask0_989_823)">
<rect x="695.366" y="219.199" width="168.809" height="168.809" rx="5" transform="rotate(45 695.366 219.199)" fill="#FC73AC" fill-opacity="0.25"/>
<rect x="1282.5" y="180.426" width="197.39" height="197.39" rx="5" transform="rotate(135 1282.5 180.426)" fill="#FC73AC" fill-opacity="0.25"/>
<circle cx="1273.48" cy="180.426" r="68.2518" transform="rotate(135 1273.48 180.426)" fill="#FC73AC" fill-opacity="0.25"/>
<path d="M856.989 58.4054C860.785 57.7682 863.847 61.4792 862.501 65.0851L806.141 216.056C804.795 219.662 800.05 220.459 797.6 217.49L695.035 93.195C692.585 90.2262 694.268 85.7188 698.064 85.0817L856.989 58.4054Z" fill="#FC73AC" fill-opacity="0.25"/>
<rect x="792.827" y="-67.499" width="177.396" height="178.729" rx="5" transform="rotate(0.0732621 792.827 -67.499)" fill="#FC73AC" fill-opacity="0.25"/>
<path d="M845.848 274.141C845.397 273.748 845.389 273.05 845.832 272.647L942.574 184.686C942.988 184.309 943.631 184.346 943.999 184.768L966.178 210.132C966.533 210.539 966.502 211.153 966.108 211.522L902.339 271.043C901.905 271.448 901.917 272.138 902.364 272.528L969.237 330.869C969.657 331.236 969.696 331.875 969.325 332.29L945.18 359.265C944.815 359.673 944.191 359.712 943.778 359.353L845.848 274.141Z" fill="#FC73AC" fill-opacity="0.25"/>
<path d="M845.495 272.277C844.831 272.881 844.843 273.929 845.52 274.518L943.45 359.73C944.069 360.268 945.005 360.21 945.553 359.599L969.697 332.623C970.255 332.001 970.195 331.042 969.566 330.493L902.692 272.151C902.469 271.956 902.463 271.611 902.68 271.409L966.449 211.887C967.041 211.335 967.087 210.413 966.554 209.803L944.376 184.438C943.823 183.806 942.859 183.751 942.237 184.316L845.495 272.277Z" stroke="#FC73AC" stroke-opacity="0.25"/>
<path d="M1403.26 142.297L1376 137.412L1441.74 -129.703L1469 -124.819L1403.26 142.297Z" fill="#FC73AC" fill-opacity="0.25"/>
<path d="M1402.65 145.742L1405.88 146.321L1406.66 143.133L1472.4 -123.982L1473.29 -127.606L1469.62 -128.264L1442.35 -133.148L1439.12 -133.727L1438.34 -130.54L1372.6 136.576L1371.71 140.2L1375.38 140.858L1402.65 145.742Z" stroke="#FC73AC" stroke-opacity="0.25" stroke-width="7"/>
</g>
</svg>
