<svg width="136" height="205" viewBox="0 0 136 205" fill="none" xmlns="http://www.w3.org/2000/svg">
<g clip-path="url(#clip0_747_2524)">
<path d="M125.862 151.748C126.767 151.677 127.664 151.486 128.533 151.196C134.163 149.27 137.236 143.294 135.527 137.58L115.661 71.1797L90.0098 79.9311L114.7 144.682C116.438 149.227 121.023 152.13 125.862 151.741V151.748Z" fill="#C1CBD7"/>
<path d="M135.498 137.552C137.293 143.336 134.078 149.482 128.307 151.281C122.535 153.079 116.403 149.858 114.608 144.073L135.498 137.552Z" fill="#438BFD"/>
<path d="M10.1377 151.748C9.23344 151.677 8.33624 151.486 7.4673 151.196C1.83684 149.27 -1.23625 143.294 0.473377 137.58L20.3389 71.1797L45.9904 79.9311L21.2997 144.682C19.5618 149.227 14.9769 152.13 10.1377 151.741V151.748Z" fill="#C1CBD7"/>
<path d="M0.494681 137.552C-1.29972 143.336 1.92172 149.482 7.68641 151.281C13.4582 153.079 19.5902 149.85 21.3846 144.073L0.494681 137.552Z" fill="#438BFD"/>
<path d="M115.167 71.3428C103.341 71.3215 91.5145 71.3003 79.6955 71.2791C59.8511 71.2437 40.0067 71.2083 20.1694 71.1729L20.233 133.934C29.4735 138.062 46.3719 144.172 68.3145 144.137C72.2777 144.13 76.0784 143.917 79.6955 143.556C95.7603 141.956 108.243 137.347 115.774 133.998L115.845 71.3428H115.167Z" fill="#DAE0E7"/>
<path d="M115.711 71.2433C106.484 75.3358 89.8261 81.333 68.2509 81.3825C46.3083 81.4179 29.4028 75.3075 20.1694 71.1796C20.4661 70.9884 20.9112 70.7052 21.4622 70.3724C25.5738 67.873 37.5129 61.267 67.6433 60.9838C100.006 60.6793 111.26 68.0571 114.517 70.3724C115.018 70.7335 115.428 71.038 115.711 71.2433Z" fill="#E6EAEF"/>
<path d="M115.845 71.9373L115.774 134.146C114.453 134.734 112.962 135.364 111.338 136.008C103.736 139.024 92.9343 142.381 79.6953 143.705V80.9365C85.2622 80.3772 90.3981 79.4567 95.0466 78.3592C103.651 76.3201 110.575 73.6507 115.477 71.4912H115.71L115.845 71.9373Z" fill="#CDD5DF"/>
<path d="M79.6953 69.8342C76.9966 70.7051 72.9627 71.668 68.0105 71.668C63.0582 71.668 59.0243 70.7051 56.3257 69.8342V56.5654H79.6953V69.8342Z" fill="#102F42"/>
<path d="M115.774 133.997V134.139C114.453 134.727 112.962 135.357 111.338 136.001C103.736 139.017 92.9344 142.373 79.6954 143.698V196.695H56.1845C55.5911 196.695 54.9976 196.68 54.4113 196.652C53.5635 196.61 52.7158 196.539 51.8822 196.44C51.6067 196.404 51.3241 196.369 51.0486 196.334C50.5823 196.27 50.1231 196.192 49.6639 196.107C42.7901 194.84 36.5874 191.618 31.6846 187.044C31.7128 185.755 31.727 184.502 31.727 183.284C31.727 179.34 31.5857 175.595 31.3455 172.055C31.1335 169.102 29.8125 166.475 27.8203 164.599C27.1067 163.926 26.3084 163.353 25.4395 162.893C24.5564 162.418 23.6098 162.064 22.6137 161.845C21.8507 161.668 21.0595 161.576 20.247 161.569C20.247 161.271 20.2329 160.974 20.2329 160.676V133.934C29.4734 138.061 46.3718 144.172 68.3144 144.137C72.2776 144.129 76.0783 143.917 79.6954 143.556C95.7602 141.956 108.243 137.346 115.774 133.997Z" fill="#CDD5DF"/>
<path d="M92.2279 135.696C93.133 135.696 93.8668 134.961 93.8668 134.054C93.8668 133.147 93.133 132.411 92.2279 132.411C91.3227 132.411 90.5889 133.147 90.5889 134.054C90.5889 134.961 91.3227 135.696 92.2279 135.696Z" fill="#7C93A2"/>
<path d="M100.423 134.167C101.328 134.167 102.062 133.432 102.062 132.524C102.062 131.617 101.328 130.882 100.423 130.882C99.5175 130.882 98.7837 131.617 98.7837 132.524C98.7837 133.432 99.5175 134.167 100.423 134.167Z" fill="#7C93A2"/>
<path d="M107.904 131.49C108.809 131.49 109.543 130.755 109.543 129.848C109.543 128.941 108.809 128.205 107.904 128.205C106.999 128.205 106.265 128.941 106.265 129.848C106.265 130.755 106.999 131.49 107.904 131.49Z" fill="#7C93A2"/>
<path d="M127.402 183.284C127.402 186.768 127.282 190.534 127.007 194.542C126.731 198.528 124.414 201.913 121.115 203.683C120.239 204.15 119.292 204.511 118.289 204.731C117.505 204.908 116.685 205 115.845 205C115.004 205 114.192 204.908 113.407 204.738C112.404 204.511 111.458 204.157 110.582 203.683C109.437 203.067 108.413 202.253 107.544 201.29C105.912 199.47 104.845 197.119 104.676 194.499C104.612 193.529 104.549 192.545 104.499 191.533C104.428 190.131 104.372 188.701 104.337 187.235V187.093C104.301 185.847 104.287 184.573 104.287 183.284C104.287 179.779 104.4 176.02 104.676 172.012C104.951 168.026 107.282 164.648 110.582 162.885C111.465 162.411 112.411 162.057 113.407 161.837C114.149 161.667 114.919 161.575 115.703 161.568H115.845C116.685 161.568 117.505 161.66 118.289 161.844C119.292 162.064 120.239 162.418 121.115 162.892C121.984 163.353 122.782 163.933 123.496 164.599C125.502 166.475 126.816 169.102 127.021 172.054C127.261 175.595 127.402 179.34 127.402 183.284Z" fill="#102F42"/>
<path d="M113.407 161.838V204.738C112.404 204.512 111.458 204.158 110.582 203.683V162.886C111.465 162.411 112.411 162.057 113.407 161.838Z" fill="#184663"/>
<path d="M121.115 162.893V203.683C120.239 204.15 119.292 204.511 118.289 204.731V161.845C119.292 162.064 120.239 162.418 121.115 162.893Z" fill="#184663"/>
<path d="M13.5571 30.2259V33.0156H26.2168V30.2259H13.5571Z" fill="#102F42"/>
<path d="M16.2604 33.007C17.0294 31.1464 16.1478 29.0133 14.2914 28.2427C12.435 27.472 10.3068 28.3555 9.53781 30.2161C8.76886 32.0767 9.65042 34.2097 11.5068 34.9804C13.3632 35.7511 15.4915 34.8675 16.2604 33.007Z" fill="#438BFD"/>
<path d="M17.5132 30.2269V33.0166H18.0148V30.2269H17.5132Z" fill="#184663"/>
<path d="M20 30.2201V33.0098H20.5016V30.2201H20Z" fill="#184663"/>
<path d="M22.4937 30.2269V33.0166H22.9952V30.2269H22.4937Z" fill="#184663"/>
<path d="M87.2476 5.85553H48.7739L50.201 2.59852C50.8933 1.01958 52.4546 0 54.1713 0H81.8432C83.5669 0 85.1211 1.01958 85.8135 2.59852L87.2405 5.85553H87.2476Z" fill="#102F42"/>
<path d="M86.0819 5.58691H49.9396C35.5971 5.58691 23.9702 17.2399 23.9702 31.6146C23.9702 45.9893 35.5971 57.6423 49.9396 57.6423H86.0819C100.424 57.6423 112.051 45.9893 112.051 31.6146C112.051 17.2399 100.424 5.58691 86.0819 5.58691Z" fill="#DAE0E7"/>
<path d="M123.065 33.0163V30.2266H110.405V33.0163H123.065Z" fill="#102F42"/>
<path d="M127.084 33.0148C127.853 31.1542 126.971 29.0212 125.115 28.2505C123.258 27.4798 121.13 28.3633 120.361 30.2239C119.592 32.0845 120.474 34.2175 122.33 34.9882C124.186 35.7589 126.315 34.8753 127.084 33.0148Z" fill="#438BFD"/>
<path d="M113.422 30.2269V33.0166H113.923V30.2269H113.422Z" fill="#184663"/>
<path d="M115.916 30.2269V33.0166H116.417V30.2269H115.916Z" fill="#184663"/>
<path d="M118.402 30.2201V33.0098H118.904V30.2201H118.402Z" fill="#184663"/>
<path d="M112.051 31.6146C112.051 32.0819 112.037 32.5492 112.009 33.0095C111.288 46.7384 99.9565 57.6423 86.0817 57.6423H79.6953V5.58691H86.0817C86.4349 5.58691 86.7881 5.60107 87.1414 5.61524C100.529 6.15335 111.309 16.8448 112.009 30.2198C112.037 30.68 112.051 31.1473 112.051 31.6146Z" fill="#CDD5DF"/>
<path d="M49.9394 47.234C41.3489 47.234 34.355 40.2315 34.355 31.6146C34.355 22.9977 41.3418 15.9951 49.9394 15.9951H86.0817C94.6723 15.9951 101.666 22.9977 101.666 31.6146C101.666 40.2315 94.6793 47.234 86.0817 47.234H49.9394Z" fill="#102F42"/>
<path d="M101.659 31.678C101.659 23.0682 94.6725 16.0586 86.0749 16.0586H49.9326C41.3421 16.0586 34.3481 23.0612 34.3481 31.678H101.652H101.659Z" fill="#184663"/>
<path d="M57.2936 35.0272C55.4215 35.0272 53.8955 33.4978 53.8955 31.6215C53.8955 29.7452 55.4215 28.2158 57.2936 28.2158C59.1657 28.2158 60.6916 29.7452 60.6916 31.6215C60.6916 33.4978 59.1657 35.0272 57.2936 35.0272Z" fill="white"/>
<path d="M78.7277 35.0272C76.8555 35.0272 75.3296 33.4978 75.3296 31.6215C75.3296 29.7452 76.8555 28.2158 78.7277 28.2158C80.5998 28.2158 82.1257 29.7452 82.1257 31.6215C82.1257 33.4978 80.5998 35.0272 78.7277 35.0272Z" fill="white"/>
<path opacity="0.2" d="M32.8503 188.142L26.796 182.789C24.613 177.585 22.4301 172.374 20.2471 167.169C20.2189 135.173 20.1977 103.176 20.1694 71.1729C22.2464 72.1216 24.493 73.0633 26.902 73.9625C28.9648 74.7343 30.95 75.3999 32.8503 75.9805V188.142Z" fill="#F3F5F7"/>
<path d="M31.7271 183.284C31.7271 184.502 31.713 185.755 31.6847 187.044V187.108C31.6423 188.545 31.5929 190.025 31.5081 191.533C31.4657 192.517 31.4092 193.522 31.3385 194.542C31.1619 197.133 30.1093 199.477 28.4774 201.29C27.6155 202.253 26.5841 203.067 25.4396 203.676H25.4255C24.5495 204.15 23.6099 204.511 22.6138 204.731C21.8296 204.908 21.0101 205 20.1695 205C19.3288 205 18.5163 204.908 17.7322 204.731C16.7361 204.511 15.7824 204.15 14.9063 203.676C11.6001 201.906 9.27589 198.5 9.00037 194.499C8.75311 190.959 8.61182 187.214 8.61182 183.284C8.61182 179.779 8.72485 176.02 9.00037 172.012C9.27589 168.026 11.6001 164.648 14.9063 162.885C15.7824 162.411 16.729 162.057 17.7322 161.837C18.5163 161.66 19.3288 161.568 20.1695 161.568H20.2472C21.0596 161.575 21.8508 161.667 22.6138 161.844C23.6099 162.064 24.5565 162.418 25.4396 162.892C26.3086 163.353 27.1069 163.926 27.8204 164.599C29.8126 166.475 31.1337 169.102 31.3456 172.054C31.5858 175.595 31.7271 179.34 31.7271 183.284Z" fill="#102F42"/>
<path d="M17.7321 161.838V204.731C16.736 204.512 15.7823 204.151 14.9062 203.676V162.886C15.7823 162.411 16.7289 162.057 17.7321 161.838Z" fill="#184663"/>
<path d="M25.4396 162.893V203.676H25.4255L22.6138 204.731V161.845C23.6099 162.064 24.5565 162.418 25.4396 162.893Z" fill="#184663"/>
<path d="M31.4374 132.454C28.7034 132.454 26.4922 130.238 26.4922 127.498V86.4739C26.4922 83.7338 28.7034 81.5176 31.4374 81.5176C34.1714 81.5176 36.3826 83.7338 36.3826 86.4739V127.498C36.3826 130.238 34.1714 132.454 31.4374 132.454Z" fill="#EAEDEF"/>
<path d="M54.8564 47.2411C54.8705 47.3615 54.8776 47.4889 54.8776 47.6164C54.8776 50.3565 52.6664 52.5727 49.9324 52.5727C38.4101 52.5727 29.0283 43.177 29.0283 31.6288C29.0283 20.0806 38.4101 10.6777 49.9324 10.6777C52.6664 10.6777 54.8776 12.8939 54.8776 15.634C54.8776 15.7615 54.8705 15.8889 54.8564 16.0093C54.8634 16.0305 54.8634 16.0518 54.8564 16.073H49.9324C41.6103 16.073 34.793 22.6437 34.3762 30.8853C34.3621 31.1473 34.355 31.4163 34.355 31.6854C34.3903 40.274 41.3631 47.2411 49.9324 47.2411H54.8564Z" fill="#EAEDEF"/>
<path d="M54.8564 47.2332H49.9324C41.363 47.2332 34.3903 40.2661 34.355 31.6846H38.9187C38.954 37.7383 43.8851 42.6593 49.9324 42.6593C52.5392 42.6593 54.6656 44.6701 54.8564 47.2332Z" fill="#184663"/>
<path d="M54.8564 15.9951C54.8564 15.9951 54.8634 16.0376 54.8564 16.0588C54.6374 18.5936 52.518 20.5762 49.9324 20.5762C43.8639 20.5762 38.9187 25.5254 38.9187 31.6146V31.6783H34.355C34.355 31.4022 34.362 31.1331 34.3762 30.8711C34.3903 30.6162 34.4044 30.3542 34.4327 30.0994C34.4539 29.8515 34.4892 29.6037 34.5245 29.363C35.6125 21.8152 42.1048 15.9951 49.9324 15.9951H54.8564Z" fill="#1C5273"/>
<path d="M115.774 134.139V146.735V161.568H115.703C114.919 161.575 114.149 161.667 113.407 161.837C112.411 162.057 111.465 162.411 110.582 162.885C107.282 164.648 104.951 168.026 104.676 172.012C104.4 176.019 104.287 179.779 104.287 183.284C104.287 184.573 104.301 185.847 104.337 187.093C104.004 187.398 103.665 187.702 103.326 187.993C103.008 188.269 102.69 188.538 102.358 188.8C102.288 188.856 102.224 188.906 102.154 188.963C101.878 189.182 101.603 189.394 101.32 189.6C101.285 189.628 101.242 189.656 101.207 189.685C100.486 190.216 99.7375 190.726 98.9675 191.214C98.9251 191.242 98.8897 191.264 98.8474 191.292C98.6072 191.441 98.3599 191.589 98.1126 191.731C98.0844 191.752 98.0491 191.766 98.0208 191.788C97.8371 191.894 97.6605 192 97.4698 192.099C97.4486 192.113 97.4274 192.12 97.4062 192.135C97.3709 192.156 97.3355 192.177 97.3002 192.191C97.0035 192.361 96.6997 192.524 96.396 192.68C95.3716 193.211 94.319 193.692 93.2452 194.124C93.224 194.131 93.2098 194.138 93.1886 194.145C92.9838 194.23 92.7718 194.308 92.567 194.386C92.3056 194.485 92.0371 194.584 91.7757 194.676C91.5073 194.768 91.2388 194.861 90.9704 194.945C90.4688 195.108 89.9672 195.264 89.4585 195.399C89.4091 195.42 89.3667 195.427 89.3173 195.441C89.0488 195.512 88.7874 195.583 88.519 195.646C88.2434 195.717 87.9609 195.781 87.6853 195.845C87.5017 195.894 87.325 195.93 87.1414 195.958C87.0849 195.979 87.0213 195.993 86.9577 195.993C86.7599 196.036 86.555 196.078 86.3501 196.114C86.2724 196.135 86.1877 196.149 86.1029 196.156C85.7779 196.22 85.4459 196.27 85.1138 196.319H85.0997C85.0997 196.319 85.0573 196.326 85.0361 196.326C84.9937 196.34 84.9514 196.34 84.9019 196.347C84.69 196.376 84.478 196.404 84.259 196.432C83.9835 196.468 83.7009 196.496 83.4183 196.524C83.1287 196.553 82.839 196.574 82.5423 196.595C82.5211 196.602 82.4999 196.602 82.4788 196.602C82.2103 196.624 81.9348 196.638 81.6663 196.652C81.1012 196.68 80.536 196.694 79.9638 196.694H79.6953V143.697C92.9343 142.373 103.736 139.017 111.338 136.001C112.962 135.357 114.453 134.726 115.774 134.139Z" fill="#C1CBD7"/>
</g>
<defs>
<clipPath id="clip0_747_2524">
<rect width="136" height="205" fill="white"/>
</clipPath>
</defs>
</svg>
    