<svg width="168" height="236" viewBox="0 0 168 236" fill="none" xmlns="http://www.w3.org/2000/svg">
<g clip-path="url(#clip0_747_2310)">
<path d="M134.907 45.1104H131.432V30.3177H134.907C138.984 30.3177 142.287 33.633 142.287 37.7109C142.287 41.7951 138.978 45.1042 134.907 45.1042V45.1104Z" fill="#5849D6"/>
<path d="M90.7261 107.59H116.095L113.854 134.604C118.226 134.604 121.609 138.442 121.062 142.791L120.817 144.661L120.522 146.973L119.49 154.896C119.288 156.599 119.091 158.303 118.889 160.007C118.803 160.776 118.711 161.551 118.619 162.32C118.109 166.662 117.599 171.011 117.09 175.353C117.004 176.122 116.912 176.897 116.82 177.666C116.31 182.008 115.801 186.351 115.291 190.693C115.205 191.468 115.113 192.237 115.021 193.012C114.511 197.355 114.002 201.697 113.492 206.04C113.4 206.815 113.308 207.583 113.216 208.358C112.884 211.231 112.546 214.103 112.209 216.976C112.129 217.652 112.049 218.323 111.969 218.999C107.579 219.122 103.183 219.251 98.7936 219.374C98.7875 218.624 98.7752 217.88 98.769 217.129C98.7322 214.208 98.7015 211.28 98.6647 208.358C98.6524 207.59 98.6463 206.815 98.634 206.04C98.5849 201.697 98.5357 197.355 98.4805 193.012C98.4743 192.243 98.4621 191.468 98.4559 190.693C98.4007 186.351 98.3516 182.008 98.3024 177.666C98.2902 176.897 98.284 176.128 98.2717 175.353C98.2226 171.011 98.1735 166.668 98.1182 162.32C98.1121 161.551 98.0998 160.776 98.0937 160.007C98.0753 158.303 98.0507 156.599 98.0323 154.896H98.02V125.544H90.7261" fill="#8FA2B7"/>
<path d="M90.7261 125.544H83.4383V154.896H83.4322C83.4138 156.599 83.3892 158.303 83.3708 160.007C83.3647 160.776 83.3524 161.551 83.3463 162.32C83.291 166.668 83.2419 171.011 83.1866 175.353C83.1805 176.128 83.1682 176.897 83.1621 177.666C83.1068 182.008 83.0577 186.351 83.0086 190.693C82.9963 191.468 82.9901 192.243 82.9779 193.012C82.9288 197.355 82.8735 201.697 82.8244 206.04C82.8121 206.815 82.806 207.59 82.7937 208.358C82.763 211.28 82.7261 214.208 82.6893 217.129C82.6832 217.88 82.6709 218.624 82.6647 219.374C78.2749 219.251 73.885 219.122 69.4951 218.999C69.4153 218.341 69.3355 217.665 69.2618 216.963C68.9487 214.331 68.6049 211.428 68.2426 208.358C68.1506 207.596 68.0585 206.821 67.9664 206.04C67.4752 201.857 66.9472 197.435 66.4253 193.012C66.3332 192.237 66.2411 191.468 66.1552 190.693C65.621 186.228 65.093 181.805 64.608 177.666C64.5097 176.885 64.4176 176.11 64.3317 175.353C63.73 170.322 63.1958 165.813 62.7783 162.32C62.6801 161.489 62.588 160.714 62.5021 160.007C62.1214 156.802 61.8942 154.896 61.8942 154.896L60.9057 146.973L60.611 144.661L60.433 143.215C60.39 142.889 60.3716 142.569 60.3716 142.25C60.3716 138.092 63.7484 134.604 68.0216 134.604L65.7868 107.59H90.7261" fill="#9BACBF"/>
<path d="M112.191 69.8857H69.2557C62.9196 69.8857 58.014 74.6649 58.7753 80.0961L64.4545 126.252C64.6571 127.912 66.278 129.167 68.212 129.167H83.4384V154.281H98.0201V129.167H113.247C115.181 129.167 116.795 127.906 117.004 126.252L122.683 80.0961C123.445 74.6649 118.539 69.8857 112.203 69.8857H112.191Z" fill="#E7EBEF"/>
<path d="M44.2853 116.791C43.2907 116.508 42.339 116.041 41.4733 115.401L21.2554 100.301L26.2101 93.6458L46.428 108.746C46.4649 108.771 46.5447 108.832 46.6859 108.795C46.8271 108.752 46.864 108.66 46.8762 108.617L59.0328 76.9033L66.7688 79.8803L54.6122 111.594C53.6422 114.128 51.5915 116.016 48.9883 116.767C47.4165 117.222 45.8018 117.222 44.2853 116.791Z" fill="#9BACBF"/>
<path d="M26.6769 99.8217C29.4091 96.2174 28.8565 91.1799 25.1113 88.332L15.208 101.39C18.9532 104.238 23.9448 103.426 26.6769 99.8217Z" fill="#5849D6"/>
<path d="M111.932 77.5986C106.566 77.5986 102.815 78.2445 102.428 78.3121L104.178 88.1842C104.374 88.1472 124.034 84.8443 135.975 94.9008C142.269 100.203 145.461 108.691 145.461 119.682H155.469C155.469 105.548 151.061 94.4764 142.367 87.1816C132.844 79.1917 120.393 77.5986 111.932 77.5986Z" fill="#8FA2B7"/>
<path d="M150.68 110.696C155.199 110.696 158.864 114.184 158.864 118.895H142.496C142.496 114.184 146.161 110.696 150.68 110.696Z" fill="#5849D6"/>
<path d="M98.7319 65.74V70.7468C98.7319 75.7105 95.2262 79.7269 90.8977 79.7269C86.5754 79.7269 83.0635 75.7043 83.0635 70.7468V65.7031C85.5807 66.4843 88.2208 66.9025 90.953 66.9025C93.6851 66.9025 96.2515 66.4966 98.7258 65.74H98.7319Z" fill="#9BACBF"/>
<path d="M46.4469 9.50879H44.9365V36.031H46.4469V9.50879Z" fill="#0E2837"/>
<path d="M47.0728 30.1016H50.5478V44.8942H47.0728C42.996 44.8942 39.6929 41.579 39.6929 37.501C39.6929 33.4168 43.0022 30.1077 47.0728 30.1077V30.1016Z" fill="#5849D6"/>
<path d="M70.8888 216.33H80.8904C82.2288 216.33 83.3155 217.419 83.3155 218.76V223.902H68.4575V218.76C68.4575 217.419 69.5442 216.33 70.8827 216.33H70.8888Z" fill="#DAE0E7"/>
<path d="M79.3183 221.226H57.6207C53.7212 221.226 50.5601 224.392 50.5601 228.299V228.933C50.5601 232.839 53.7212 236.006 57.6207 236.006H79.3183C83.2178 236.006 86.3789 232.839 86.3789 228.933V228.299C86.3789 224.392 83.2178 221.226 79.3183 221.226Z" fill="#E7EBEF"/>
<path d="M58.2287 233.902C61.2906 233.902 63.7728 231.416 63.7728 228.348C63.7728 225.281 61.2906 222.794 58.2287 222.794C55.1668 222.794 52.6846 225.281 52.6846 228.348C52.6846 231.416 55.1668 233.902 58.2287 233.902Z" fill="#9BACBF"/>
<path d="M78.8766 233.902C81.9386 233.902 84.4208 231.416 84.4208 228.348C84.4208 225.281 81.9386 222.794 78.8766 222.794C75.8147 222.794 73.3325 225.281 73.3325 228.348C73.3325 231.416 75.8147 233.902 78.8766 233.902Z" fill="#9BACBF"/>
<path d="M78.8763 230.23C79.9139 230.23 80.755 229.387 80.755 228.348C80.755 227.308 79.9139 226.466 78.8763 226.466C77.8387 226.466 76.9976 227.308 76.9976 228.348C76.9976 229.387 77.8387 230.23 78.8763 230.23Z" fill="#E7EBEF"/>
<path d="M58.2288 230.23C59.2664 230.23 60.1076 229.387 60.1076 228.348C60.1076 227.308 59.2664 226.466 58.2288 226.466C57.1912 226.466 56.3501 227.308 56.3501 228.348C56.3501 229.387 57.1912 230.23 58.2288 230.23Z" fill="#E7EBEF"/>
<path d="M112.995 223.896H98.1366V218.753C98.1366 217.413 99.2233 216.324 100.562 216.324H110.563C111.902 216.324 112.988 217.413 112.988 218.753V223.896H112.995Z" fill="#DAE0E7"/>
<path d="M102.133 236H123.831C127.73 236 130.892 232.833 130.892 228.927V228.293C130.892 224.387 127.73 221.22 123.831 221.22H102.133C98.2339 221.22 95.0727 224.387 95.0727 228.293V228.927C95.0727 232.833 98.2339 236 102.133 236Z" fill="#E7EBEF"/>
<path d="M123.223 233.902C126.285 233.902 128.767 231.416 128.767 228.348C128.767 225.281 126.285 222.794 123.223 222.794C120.161 222.794 117.679 225.281 117.679 228.348C117.679 231.416 120.161 233.902 123.223 233.902Z" fill="#9BACBF"/>
<path d="M102.575 233.902C105.637 233.902 108.12 231.416 108.12 228.348C108.12 225.281 105.637 222.794 102.575 222.794C99.5134 222.794 97.0312 225.281 97.0312 228.348C97.0312 231.416 99.5134 233.902 102.575 233.902Z" fill="#9BACBF"/>
<path d="M102.576 230.23C103.613 230.23 104.454 229.387 104.454 228.348C104.454 227.308 103.613 226.466 102.576 226.466C101.538 226.466 100.697 227.308 100.697 228.348C100.697 229.387 101.538 230.23 102.576 230.23Z" fill="#E7EBEF"/>
<path d="M123.223 230.23C124.261 230.23 125.102 229.387 125.102 228.348C125.102 227.308 124.261 226.466 123.223 226.466C122.186 226.466 121.345 227.308 121.345 228.348C121.345 229.387 122.186 230.23 123.223 230.23Z" fill="#E7EBEF"/>
<path d="M107.659 7.70117H74.2534C60.3373 7.70117 49.0562 19.0028 49.0562 32.944V42.0534C49.0562 55.9946 60.3373 67.2963 74.2534 67.2963H107.659C121.575 67.2963 132.857 55.9946 132.857 42.0534V32.944C132.857 19.0028 121.575 7.70117 107.659 7.70117Z" fill="#E7EBEF"/>
<path d="M132.734 45.1103C131.23 57.6087 120.608 67.2963 107.727 67.2963H97.0991V7.70117H107.727C120.755 7.70117 131.475 17.6101 132.783 30.3177L132.734 45.1103Z" fill="#DAE0E7"/>
<path d="M60.605 144.66H83.4323V146.973H60.8997L60.605 144.66Z" fill="#B4C1CF"/>
<path d="M120.81 144.66L120.516 146.973H98.0137V144.66H120.81Z" fill="#B4C1CF"/>
<path d="M62.4956 160.007H83.3644C83.3582 160.776 83.346 161.551 83.3398 162.32H62.7719C62.6737 161.489 62.5816 160.714 62.4956 160.007Z" fill="#B4C1CF"/>
<path d="M118.882 160.007C118.797 160.776 118.704 161.551 118.612 162.32H98.112C98.1058 161.551 98.0935 160.776 98.0874 160.007H118.882Z" fill="#B4C1CF"/>
<path d="M64.3252 175.354H83.1801C83.174 176.129 83.1617 176.897 83.1556 177.666H64.6015C64.5032 176.885 64.4112 176.11 64.3252 175.354Z" fill="#B4C1CF"/>
<path d="M117.084 175.354C116.998 176.122 116.906 176.897 116.814 177.666H98.2963C98.284 176.897 98.2779 176.129 98.2656 175.354H117.084Z" fill="#B4C1CF"/>
<path d="M66.1489 190.693H83.0023C82.9901 191.468 82.9839 192.243 82.9716 193.012H66.4191C66.327 192.237 66.2349 191.468 66.1489 190.693Z" fill="#B4C1CF"/>
<path d="M115.285 190.693C115.199 191.468 115.107 192.237 115.015 193.012H98.4743C98.4681 192.243 98.4558 191.468 98.4497 190.693H115.285Z" fill="#B4C1CF"/>
<path d="M67.96 206.039H82.818C82.8057 206.814 82.7996 207.589 82.7873 208.358H68.2362C68.1441 207.595 68.0521 206.82 67.96 206.039Z" fill="#B4C1CF"/>
<path d="M113.486 206.039C113.394 206.814 113.302 207.583 113.21 208.358H98.6586C98.6464 207.589 98.6402 206.814 98.6279 206.039H113.486Z" fill="#B4C1CF"/>
<path d="M122.806 78.5215C122.524 73.7792 117.974 69.8857 112.258 69.8857H98.7998V70.7407C98.7998 72.8443 98.1674 74.7879 97.0991 76.3195L98.0876 129.167H113.302C113.676 129.167 114.032 129.118 114.376 129.032C115.807 128.669 116.893 127.586 117.059 126.252L121.701 88.5165L122.738 80.0961C122.812 79.5609 122.831 79.0381 122.806 78.5215Z" fill="#DAE0E7"/>
<path d="M23.9018 97.404C18.2103 104.908 7.49041 106.372 0 100.676L7.11589 91.2963C9.61474 93.1969 12.7767 92.6126 14.5449 90.2814C16.3131 87.9503 16.0246 84.7395 13.5319 82.8389L20.6477 73.459C28.1381 79.1608 29.5994 89.9001 23.9079 97.404H23.9018Z" fill="#8276E0"/>
<path d="M10.4926 100.923C9.53482 100.923 8.56475 100.824 7.60082 100.627C6.44043 100.394 5.68524 99.2558 5.92469 98.0872C6.158 96.9185 7.29998 96.1681 8.46038 96.408C11.9846 97.1215 15.5578 95.9406 17.7804 93.3142C18.5479 92.41 19.9047 92.2993 20.8073 93.0681C21.7098 93.837 21.8203 95.1963 21.0529 96.1005C18.4312 99.1943 14.5509 100.917 10.4926 100.917V100.923Z" fill="#958BE5"/>
<path d="M151.804 116.423C161.197 116.896 168.455 124.941 167.982 134.352L156.237 133.756C156.396 130.619 154.131 128.331 151.208 128.183C148.292 128.035 145.805 130.083 145.646 133.22L133.9 132.624C134.373 123.213 142.404 115.943 151.798 116.416L151.804 116.423Z" fill="#8276E0"/>
<path d="M161.676 131.073C160.835 131.073 160.043 130.581 159.693 129.757C158.299 126.442 155.303 124.154 151.883 123.791C150.704 123.668 149.845 122.604 149.974 121.423C150.097 120.242 151.159 119.387 152.338 119.51C157.317 120.039 161.651 123.323 163.653 128.09C164.113 129.185 163.598 130.446 162.505 130.907C162.235 131.024 161.952 131.079 161.67 131.079L161.676 131.073Z" fill="#958BE5"/>
<path d="M89.9155 20.7224H71.1772C68.8011 20.7224 66.8794 18.7972 66.8794 16.4169C66.8794 14.0365 68.8011 12.1113 71.1772 12.1113H89.9155C92.2915 12.1113 94.2132 14.0365 94.2132 16.4169C94.2132 18.7972 92.2915 20.7224 89.9155 20.7224Z" fill="#F7F7F7"/>
<path d="M111.588 24.4922H68.2423C61.5895 24.4922 56.1963 29.8952 56.1963 36.5601V36.5662C56.1963 43.2311 61.5895 48.6341 68.2423 48.6341H111.588C118.241 48.6341 123.635 43.2311 123.635 36.5662V36.5601C123.635 29.8952 118.241 24.4922 111.588 24.4922Z" fill="#102F42"/>
<path d="M111.583 24.4922H68.2487C61.5933 24.4922 56.2026 29.8987 56.2026 36.5601H123.641C123.641 29.8926 118.244 24.4922 111.595 24.4922H111.583Z" fill="#184663"/>
<path d="M110.606 38.5648C111.709 35.8972 110.445 32.8389 107.782 31.7339C105.119 30.6289 102.066 31.8957 100.963 34.5633C99.8604 37.231 101.125 40.2893 103.788 41.3943C106.451 42.4993 109.503 41.2325 110.606 38.5648Z" fill="#8276E0"/>
<path d="M80.9521 38.5668C82.0551 35.8991 80.7906 32.8408 78.1277 31.7358C75.4649 30.6309 72.4121 31.8977 71.3091 34.5653C70.2062 37.233 71.4707 40.2913 74.1335 41.3962C76.7963 42.5012 79.8491 41.2344 80.9521 38.5668Z" fill="#8276E0"/>
<path d="M74.1552 122.868C72.0063 122.868 70.1521 121.256 69.8942 119.067L65.621 82.7093C65.3447 80.3474 67.027 78.2069 69.3846 77.9301C71.7423 77.6534 73.8789 79.3387 74.1552 81.7006L78.4284 118.058C78.7047 120.42 77.0224 122.56 74.6648 122.837C74.4928 122.856 74.3271 122.868 74.1552 122.868Z" fill="#F7F7F7"/>
<path d="M48.1107 121.312C52.1492 121.312 55.4231 118.033 55.4231 113.987C55.4231 109.941 52.1492 106.661 48.1107 106.661C44.0722 106.661 40.7983 109.941 40.7983 113.987C40.7983 118.033 44.0722 121.312 48.1107 121.312Z" fill="#5849D6"/>
<path d="M48.1106 119.473C45.0899 119.473 42.6401 117.013 42.6401 113.993C42.6401 113.316 43.1927 112.763 43.8681 112.763C44.5434 112.763 45.096 113.316 45.096 113.993C45.096 115.66 46.4467 117.013 48.1106 117.013C48.786 117.013 49.3385 117.566 49.3385 118.243C49.3385 118.92 48.786 119.473 48.1106 119.473Z" fill="#867AE1"/>
<path d="M143.638 103.045C147.676 103.045 150.95 99.765 150.95 95.7191C150.95 91.6733 147.676 88.3936 143.638 88.3936C139.599 88.3936 136.325 91.6733 136.325 95.7191C136.325 99.765 139.599 103.045 143.638 103.045Z" fill="#5849D6"/>
<path d="M143.638 101.199C140.617 101.199 138.161 98.7388 138.161 95.7126C138.161 95.036 138.714 94.4824 139.389 94.4824C140.064 94.4824 140.617 95.036 140.617 95.7126C140.617 97.3794 141.974 98.7388 143.638 98.7388C144.313 98.7388 144.866 99.2923 144.866 99.9689C144.866 100.646 144.313 101.199 143.638 101.199Z" fill="#867AE1"/>
<path d="M45.6916 10.1242C48.4823 10.1242 50.7446 7.85783 50.7446 5.06211C50.7446 2.26638 48.4823 0 45.6916 0C42.901 0 40.6387 2.26638 40.6387 5.06211C40.6387 7.85783 42.901 10.1242 45.6916 10.1242Z" fill="#5849D6"/>
<path d="M45.6917 8.92497C43.5673 8.92497 41.8359 7.19044 41.8359 5.06227C41.8359 4.55175 42.2473 4.13965 42.7569 4.13965C43.2665 4.13965 43.6778 4.55175 43.6778 5.06227C43.6778 6.17556 44.5804 7.07973 45.6917 7.07973C46.2012 7.07973 46.6126 7.49183 46.6126 8.00235C46.6126 8.51287 46.2012 8.92497 45.6917 8.92497Z" fill="#867AE1"/>
</g>
<defs>
<clipPath id="clip0_747_2310">
<rect width="168" height="236" fill="white"/>
</clipPath>
</defs>
</svg>
    