<svg width="158" height="155" viewBox="0 0 158 155" fill="none" xmlns="http://www.w3.org/2000/svg">
<g clip-path="url(#clip0_747_2617)">
<path d="M130.123 66.2661L139.887 66.6684C140.608 66.6981 141.17 67.3058 141.14 68.0241L140.938 72.8873C140.797 76.2916 137.908 78.9381 134.489 78.7972C131.069 78.6563 128.41 75.7812 128.552 72.377L128.754 67.5138C128.784 66.7955 129.394 66.2361 130.116 66.2658L130.123 66.2661Z" fill="#E90563"/>
<path d="M66.2117 80.5439H53.5591V119.213H66.2117V80.5439Z" fill="#9BACBF"/>
<path d="M132.582 76.7925C134.056 77.4964 135.809 77.5264 137.231 76.6503C138.51 75.864 139.217 74.561 139.397 73.1083C139.435 72.8163 139.45 72.5092 139.412 72.2097C139.352 71.6706 138.976 71.1314 138.359 71.1613C137.84 71.1838 137.238 71.6256 137.306 72.2097C137.314 72.2996 137.321 72.3969 137.321 72.4868C137.321 72.6815 137.268 72.8911 137.291 73.0783C137.321 72.8837 137.321 72.8462 137.306 72.9585C137.306 72.996 137.291 73.0334 137.291 73.0634C137.283 73.1158 137.268 73.1757 137.253 73.2281C137.223 73.3704 137.186 73.5052 137.133 73.64C137.118 73.6774 137.103 73.7223 137.088 73.7598C137.043 73.8646 137.058 73.8422 137.118 73.6924C137.103 73.6924 137.043 73.8496 137.028 73.8796C136.945 74.0369 136.847 74.1866 136.742 74.3364C136.697 74.3963 136.712 74.3738 136.795 74.269C136.764 74.3064 136.727 74.3439 136.697 74.3813C136.637 74.4487 136.569 74.5161 136.501 74.576C136.464 74.6134 136.23 74.8156 136.433 74.6509C136.358 74.7108 136.275 74.7632 136.2 74.8081C136.125 74.8531 136.042 74.9055 135.952 74.9504C135.922 74.9654 135.644 75.0852 135.786 75.0328C135.929 74.9804 135.636 75.0777 135.613 75.0927C135.523 75.1227 135.433 75.1451 135.343 75.1676C135.26 75.19 135.155 75.22 135.064 75.22C135.35 75.22 135.049 75.22 134.982 75.22C134.794 75.2275 134.605 75.22 134.417 75.205C134.335 75.1975 134.365 75.205 134.493 75.22C134.44 75.2125 134.387 75.205 134.335 75.1901C134.237 75.1751 134.147 75.1526 134.056 75.1227C133.966 75.0927 133.876 75.0627 133.778 75.0328C133.665 74.9879 133.673 74.9954 133.793 75.0478C133.74 75.0253 133.688 75.0028 133.643 74.9729C133.146 74.7333 132.484 74.8231 132.198 75.3473C131.95 75.8191 132.048 76.5305 132.574 76.7851L132.582 76.7925Z" fill="#FB3789"/>
<path d="M98.5204 63.6504C97.5124 68.5178 96.5044 73.3927 95.5039 78.26C105.012 83.9661 114.528 89.6722 124.036 95.3783C124.6 86.0329 125.165 76.6875 125.736 67.3496L98.5204 63.6579V63.6504Z" fill="#9BACBF"/>
<path d="M50.2346 114.938L49.9187 123.01L49.8435 124.972L49.6404 130.094L49.5426 132.543L49.3019 138.803L44.5929 138.623L42.4866 138.541L37.6572 138.353L37.8904 132.228L37.9807 130.094L38.1838 124.972L38.3493 120.659L38.59 114.488L50.2346 114.938Z" fill="#9BACBF"/>
<path d="M88.4028 114.833H76.7432V138.713H88.4028V114.833Z" fill="#9BACBF"/>
<path d="M113.513 114.833H101.853V138.713H113.513V114.833Z" fill="#9BACBF"/>
<path d="M35.4541 149.16L52.4716 149.826C55.2152 149.933 57.3599 152.243 57.2521 154.974L57.2509 155.004L35.2574 154.144L35.4541 149.16Z" fill="#9BACBF"/>
<path d="M75.0205 149.466H92.0512C94.7968 149.466 97.031 151.69 97.031 154.423V154.453H75.0205V149.466Z" fill="#9BACBF"/>
<path d="M27.8252 94.5692C23.6202 92.4875 17.497 88.6909 12.6074 81.9889C5.82974 72.696 4.51333 62.0326 5.46867 61.6657C6.3864 61.3138 8.59046 70.8389 17.1284 78.6566C23.0109 84.0407 29.6757 86.5867 34.7984 87.9047L27.8327 94.5842L27.8252 94.5692Z" fill="#9BACBF"/>
<path d="M55.6129 81.0084L54.8908 117.094C54.8757 117.843 54.7253 118.562 54.4695 119.214C53.7022 121.146 51.9871 122.598 49.9109 123.01C49.5198 123.093 49.1136 123.13 48.6998 123.13H48.5268C44.871 123.055 41.4182 122.172 38.3415 120.659C30.3227 116.705 24.8389 108.438 24.8389 98.9353C24.8389 98.7706 24.8389 98.6059 24.8389 98.4411C25.1097 85.0745 36.145 74.4561 49.4897 74.7257C52.777 74.7632 55.4173 77.3316 55.5979 80.5441C55.5979 80.6939 55.6129 80.8511 55.5979 81.0084H55.6129Z" fill="#E7EBEF"/>
<path d="M5.46877 67.1028C8.48909 67.1028 10.9375 64.6655 10.9375 61.6588C10.9375 58.6522 8.48909 56.2148 5.46877 56.2148C2.44845 56.2148 0 58.6522 0 61.6588C0 64.6655 2.44845 67.1028 5.46877 67.1028Z" fill="#E90563"/>
<path d="M126.903 1.19858C121.569 0.981418 116.477 16.2575 113.069 29.392C111.015 37.3146 116.845 45.1024 125.06 45.4468C133.274 45.7838 139.736 38.5052 138.344 30.4403C136.042 17.0663 132.229 1.42323 126.903 1.19858Z" fill="#DAE0E7"/>
<path d="M146.288 52.8375L140.789 52.6129L141.571 33.7574C141.594 33.1583 141.556 32.5667 141.466 31.9976C141.075 29.4142 139.593 27.1677 137.487 25.7749C136.133 24.8613 134.515 24.3071 132.763 24.2398L114.679 23.4909L93.744 22.6223C88.674 22.4126 84.3862 26.3365 84.1756 31.3911L83.649 44.0388C83.0472 58.4762 94.3157 70.6596 108.819 71.2662L139.954 72.5467L145.453 72.7713C150.982 72.996 155.653 68.7202 155.879 63.2163C156.105 57.7124 151.809 53.0622 146.28 52.8375H146.288Z" fill="#E7EBEF"/>
<path d="M152.133 62.1153C155.373 62.1153 158 59.5003 158 56.2745C158 53.0486 155.373 50.4336 152.133 50.4336C148.892 50.4336 146.265 53.0486 146.265 56.2745C146.265 59.5003 148.892 62.1153 152.133 62.1153Z" fill="#102F42"/>
<path d="M94.1804 -0.000206994C88.0195 -0.254809 82.1295 17.3951 78.1953 32.5738C75.8182 41.732 82.5583 50.7254 92.0515 51.1223C101.545 51.5117 109.007 43.1024 107.405 33.7794C104.734 18.3311 100.334 0.254395 94.1804 -0.000206994Z" fill="#DAE0E7"/>
<path d="M141.571 33.7577L140.789 52.6132L118.402 51.6846C112.685 51.4525 108.247 46.645 108.48 40.9539C108.615 37.7115 110.233 34.8884 112.662 33.0987C114.498 31.7433 116.8 30.972 119.267 31.0769L138.517 31.8706L141.473 31.9979C141.563 32.567 141.601 33.1586 141.578 33.7577H141.571Z" fill="#102F42"/>
<path d="M91.329 41.3953C93.1071 41.3953 94.5485 39.9604 94.5485 38.1903C94.5485 36.4203 93.1071 34.9854 91.329 34.9854C89.5508 34.9854 88.1094 36.4203 88.1094 38.1903C88.1094 39.9604 89.5508 41.3953 91.329 41.3953Z" fill="#102F42"/>
<path d="M96.7714 71.5086L96.4287 74.4844L125.03 77.7484L125.372 74.7726L96.7714 71.5086Z" fill="#B4C1CF"/>
<path d="M92.6054 78.7185L92.2627 81.6943L124.548 85.3788L124.891 82.403L92.6054 78.7185Z" fill="#B4C1CF"/>
<path d="M49.8433 123.475H38.1836V126.47H49.8433V123.475Z" fill="#B4C1CF"/>
<path d="M88.4028 123.475H76.7432V126.47H88.4028V123.475Z" fill="#B4C1CF"/>
<path d="M113.513 123.475H101.853V126.47H113.513V123.475Z" fill="#B4C1CF"/>
<path d="M49.6402 128.597H37.9805V131.592H49.6402V128.597Z" fill="#B4C1CF"/>
<path d="M113.513 128.597H101.853V131.592H113.513V128.597Z" fill="#B4C1CF"/>
<path d="M88.4028 128.597H76.7432V131.592H88.4028V128.597Z" fill="#B4C1CF"/>
<path d="M43.451 129.954L44.2928 129.987C48.2766 130.143 51.3893 133.487 51.2324 137.461L50.7469 149.762L35.4582 149.164L35.9437 136.863C36.1003 132.897 39.4597 129.798 43.451 129.954Z" fill="#E7EBEF"/>
<path d="M44.8943 141.701C45.6813 140.917 45.6808 139.646 44.8933 138.863C44.1057 138.079 42.8292 138.08 42.0422 138.864C41.2552 139.648 41.2556 140.918 42.0432 141.702C42.8308 142.485 44.1072 142.485 44.8943 141.701Z" fill="#102F42"/>
<path d="M124.556 99.8786C124.556 108.445 120.163 115.986 113.513 120.359C110.12 122.591 106.148 123.998 101.853 124.298C101.274 124.343 100.687 124.365 100.1 124.365H85.6574C85.2662 124.365 81.6103 124.335 76.7434 124.298C73.7495 124.275 70.2892 124.245 66.8515 124.216C63.7974 124.193 61.2473 122.059 60.6004 119.206C60.495 118.749 60.4424 118.27 60.4424 117.783V81.9666C60.4424 81.4724 60.5026 80.9932 60.6004 80.5364C61.2473 77.6833 63.7974 75.5492 66.8515 75.5267L85.6574 75.377H100.1C106.855 75.377 112.971 78.1177 117.394 82.5507C121.817 86.9838 124.556 93.1092 124.556 99.8711V99.8786Z" fill="#E7EBEF"/>
<path d="M124.556 99.8789C124.556 108.446 120.163 115.986 113.513 120.359C110.12 122.598 106.148 124.006 101.853 124.306C101.274 124.351 100.695 124.373 100.1 124.373H85.6574C85.4167 124.373 83.9272 124.358 81.6855 124.343L81.8962 114.833L82.7688 75.4072L85.6574 75.3848H100.1C106.855 75.3848 112.971 78.133 117.394 82.5585C117.575 82.7458 117.763 82.933 117.928 83.1202H117.936C120.982 86.3701 123.149 90.4512 124.067 94.9891C124.39 96.5691 124.556 98.2091 124.556 99.8789Z" fill="#DAE0E7"/>
<path d="M5.95778 65.7025C3.45283 65.7025 1.40674 63.6732 1.40674 61.1721C1.40674 60.5505 1.91074 60.0488 2.53509 60.0488C3.15945 60.0488 3.66345 60.5505 3.66345 61.1721C3.66345 62.4301 4.69402 63.456 5.95778 63.456C6.58213 63.456 7.08613 63.9577 7.08613 64.5792C7.08613 65.2008 6.58213 65.7025 5.95778 65.7025Z" fill="#FB3789"/>
<path d="M155.849 57.9291C155.849 57.9291 155.818 57.9291 155.803 57.9291C155.179 57.9066 154.698 57.3824 154.72 56.7609C154.788 55.1359 153.517 53.7581 151.884 53.6907C151.26 53.6682 150.778 53.144 150.801 52.5225C150.824 51.901 151.358 51.3993 151.975 51.4442C154.848 51.564 157.09 53.9902 156.977 56.8507C156.954 57.4573 156.45 57.9291 155.849 57.9291Z" fill="#184663"/>
<path d="M108.608 43.0352L141.15 44.0236C141.18 43.3122 141.225 42.2339 141.293 40.916C141.361 39.6804 141.376 39.6355 141.443 38.4074C141.571 36.0486 141.639 34.8505 141.579 33.7497C141.556 33.3603 141.473 31.99 141.473 31.99C134.071 31.6829 126.669 31.3759 119.267 31.0689C118.688 31.0464 114.273 30.9416 111.075 34.5435C107.894 38.1304 108.518 42.4586 108.608 43.0277V43.0352Z" fill="#184663"/>
<path d="M131.491 45.8358C132.825 45.8358 133.906 44.7596 133.906 43.4321C133.906 42.1045 132.825 41.0283 131.491 41.0283C130.158 41.0283 129.077 42.1045 129.077 43.4321C129.077 44.7596 130.158 45.8358 131.491 45.8358Z" fill="white"/>
<path d="M121.915 45.4393C123.249 45.4393 124.33 44.3631 124.33 43.0356C124.33 41.708 123.249 40.6318 121.915 40.6318C120.582 40.6318 119.5 41.708 119.5 43.0356C119.5 44.3631 120.582 45.4393 121.915 45.4393Z" fill="white"/>
<path d="M31.2407 100.919C31.2407 100.919 31.1955 100.919 31.173 100.919C29.9243 100.882 28.9463 99.8484 28.984 98.6053V98.508C29.2021 87.6724 38.1838 78.8438 49.0085 78.8438C50.2572 78.8438 51.2652 79.8472 51.2652 81.0902C51.2652 82.3333 50.2572 83.3367 49.0085 83.3367C40.6286 83.3367 33.6704 90.1885 33.5049 98.6128V98.7326C33.4673 99.9532 32.4668 100.912 31.2482 100.912L31.2407 100.919Z" fill="white"/>
<path d="M77.8718 83.3367H65.5502C64.3015 83.3367 63.2935 82.3333 63.2935 81.0902C63.2935 79.8472 64.3015 78.8438 65.5502 78.8438H77.8718C79.1205 78.8438 80.1285 79.8472 80.1285 81.0902C80.1285 82.3333 79.1205 83.3367 77.8718 83.3367Z" fill="white"/>
<path d="M94.1804 -0.000206994C88.0195 -0.254809 82.1295 17.3951 78.1953 32.5738C75.8182 41.732 82.5583 50.7254 92.0515 51.1223C101.545 51.5117 109.007 43.1024 107.405 33.7794C104.734 18.3311 100.334 0.254395 94.1804 -0.000206994Z" fill="#DAE0E7"/>
<path d="M84.0399 36.0712C83.8518 36.0712 83.6637 36.0487 83.4757 35.9963C82.2721 35.6893 81.5424 34.4612 81.8584 33.2631C86.0709 17.0135 89.4861 9.66752 91.6074 6.37268C92.2769 5.32432 93.676 5.02479 94.7216 5.69124C95.7748 6.3577 96.0757 7.75052 95.4062 8.79139C93.819 11.27 90.5091 17.8897 86.2289 34.3863C85.9656 35.3973 85.0479 36.0712 84.0474 36.0712H84.0399Z" fill="white"/>
<path d="M38.033 147.602C38.033 147.602 38.018 147.602 38.0029 147.602C37.5892 147.587 37.2657 147.242 37.2808 146.823L37.6419 136.953C37.7396 134.385 39.8384 132.378 42.411 132.378C42.8248 132.378 43.1633 132.715 43.1633 133.127C43.1633 133.539 42.8248 133.876 42.411 133.876C40.6508 133.876 39.214 135.253 39.1463 137.006L38.7853 146.868C38.7702 147.272 38.4392 147.587 38.033 147.587V147.602Z" fill="white"/>
<path d="M82.1273 129.943L82.9698 129.938C86.9566 129.915 90.2173 133.117 90.2403 137.093L90.3116 149.403L75.0113 149.491L74.9401 137.18C74.9171 133.212 78.133 129.966 82.1273 129.943Z" fill="#E7EBEF"/>
<path d="M84.1117 141.621C84.8625 140.802 84.8046 139.533 83.9824 138.786C83.1602 138.038 81.8851 138.096 81.1343 138.915C80.3835 139.733 80.4414 141.002 81.2636 141.75C82.0858 142.497 83.361 142.439 84.1117 141.621Z" fill="#102F42"/>
<path d="M77.4803 147.811C77.0666 147.811 76.7281 147.482 76.7281 147.07L76.6378 137.2C76.6227 134.632 78.6237 132.535 81.1963 132.415C81.6176 132.393 81.9636 132.715 81.9787 133.127C81.9937 133.538 81.6778 133.89 81.264 133.905C79.5038 133.988 78.1347 135.425 78.1423 137.185L78.2325 147.055C78.2325 147.467 77.9015 147.804 77.4878 147.811H77.4803Z" fill="white"/>
<path d="M107.177 130.084L108.02 130.079C112.006 130.056 115.267 133.257 115.29 137.233L115.361 149.544L100.061 149.632L99.9899 137.321C99.9669 133.352 103.183 130.106 107.177 130.084Z" fill="#E7EBEF"/>
<path d="M102.53 147.946C102.116 147.946 101.778 147.616 101.778 147.204L101.688 137.335C101.673 134.766 103.674 132.67 106.246 132.55C106.66 132.52 107.013 132.849 107.028 133.261C107.044 133.673 106.728 134.025 106.314 134.04C104.554 134.122 103.177 135.56 103.192 137.32L103.282 147.189C103.282 147.601 102.951 147.938 102.538 147.946H102.53Z" fill="white"/>
<path d="M107.743 142.427C108.856 142.427 109.759 141.528 109.759 140.42C109.759 139.312 108.856 138.413 107.743 138.413C106.63 138.413 105.727 139.312 105.727 140.42C105.727 141.528 106.63 142.427 107.743 142.427Z" fill="#102F42"/>
<path d="M100.093 149.488H117.123C119.869 149.488 122.103 151.712 122.103 154.446V154.475H100.093V149.488Z" fill="#9BACBF"/>
</g>
<defs>
<clipPath id="clip0_747_2617">
<rect width="158" height="155" fill="white"/>
</clipPath>
</defs>
</svg>
    