<svg width="268" height="376" viewBox="0 0 268 376" fill="none" xmlns="http://www.w3.org/2000/svg">
<path d="M268 371C268 373.761 265.761 376 263 376L0 376L3.2871e-05 -2.34293e-05L263 -4.37114e-07C265.761 -1.95703e-07 268 2.23859 268 5L268 371Z" fill="url(#paint0_radial_697_24981)" fill-opacity="0.5"/>
<path d="M268 371C268 373.761 265.761 376 263 376L0 376L3.2871e-05 -2.34293e-05L263 -4.37114e-07C265.761 -1.95703e-07 268 2.23859 268 5L268 371Z" fill="url(#paint1_radial_697_24981)" fill-opacity="0.5"/>
<defs>
<radialGradient id="paint0_radial_697_24981" cx="0" cy="0" r="1" gradientUnits="userSpaceOnUse" gradientTransform="translate(134 188) rotate(-90) scale(223 158.947)">
<stop stop-color="#38789E"/>
<stop offset="1" stop-color="#17425C" stop-opacity="0"/>
</radialGradient>
<radialGradient id="paint1_radial_697_24981" cx="0" cy="0" r="1" gradientUnits="userSpaceOnUse" gradientTransform="translate(134 188) rotate(-90) scale(223 158.947)">
<stop stop-color="#38789E"/>
<stop offset="1" stop-color="#17425C" stop-opacity="0"/>
</radialGradient>
</defs>
</svg>
    