<svg width="154" height="232" viewBox="0 0 154 232" fill="none" xmlns="http://www.w3.org/2000/svg">
<g clip-path="url(#clip0_747_2218)">
<path d="M79.4 11.8164H74.627V33.4144H79.4V11.8164Z" fill="#102F42"/>
<path d="M80.0707 15.4054C84.1754 13.7225 86.1334 9.04333 84.4441 4.95419C82.7548 0.865052 78.0578 -1.08557 73.9532 0.597343C69.8485 2.28026 67.8905 6.95943 69.5798 11.0486C71.2691 15.1377 75.966 17.0883 80.0707 15.4054Z" fill="#438BFD"/>
<path d="M61.4209 27.6182H92.6129C94.7911 27.6182 96.5665 29.38 96.5665 31.5568V35.1962H57.4741V31.5568C57.4741 29.3868 59.2427 27.6182 61.4277 27.6182H61.4209Z" fill="#438BFD"/>
<path d="M79.4 16.8018H74.627V17.6589H79.4V16.8018Z" fill="#184663"/>
<path d="M79.4 21.0947H74.627V21.9518H79.4V21.0947Z" fill="#184663"/>
<path d="M79.4 25.3867H74.627V26.2438H79.4V25.3867Z" fill="#184663"/>
<path d="M94.2381 199.818C94.2381 205.001 94.0742 210.579 93.6645 216.504C93.3163 221.47 90.8103 225.81 87.0888 228.619C86.2421 229.266 85.3271 229.83 84.3575 230.3C82.5821 231.17 80.6292 231.735 78.5739 231.932C78.0617 231.973 77.536 232 77.0102 232C76.6141 232 76.2249 231.987 75.8425 231.953C73.794 231.817 71.8479 231.306 70.0657 230.497C69.1029 230.055 68.1879 229.524 67.3344 228.912C63.3944 226.102 60.7177 221.62 60.3558 216.457C59.9939 211.205 59.7822 205.647 59.7822 199.818C59.7822 194.641 59.9529 189.063 60.3626 183.138C60.9635 174.417 68.2426 167.642 77.0102 167.642C81.4076 167.642 85.4227 169.342 88.4135 172.138C91.3975 174.927 93.3641 178.811 93.6645 183.185C94.0264 188.437 94.2381 193.995 94.2381 199.818Z" fill="#102F42"/>
<path d="M70.0658 190.301V230.497C69.103 230.055 68.188 229.524 67.3345 228.912V190.301H70.0658Z" fill="#184663"/>
<path d="M78.5741 190.301V231.932C78.062 231.973 77.5362 232 77.0104 232C76.6144 232 76.2252 231.987 75.8428 231.953V190.301H78.5741Z" fill="#184663"/>
<path d="M87.0888 185.817V228.619C86.242 229.265 85.327 229.83 84.3574 230.299V185.817H87.0888Z" fill="#184663"/>
<path d="M31.4516 54.5762C30.5161 54.5762 29.6216 54.753 28.7954 55.0659C25.9411 56.1339 23.9131 58.8754 23.9131 62.093V79.7183C23.9131 82.9359 25.9479 85.6705 28.7954 86.7453C29.6216 87.0582 30.5161 87.2351 31.4516 87.2351H35.6852V54.583H31.4516V54.5762Z" fill="#003044"/>
<path d="M125.028 55.0659C124.201 54.753 123.307 54.5762 122.371 54.5762H118.138V87.2283H122.371C123.307 87.2283 124.201 87.0514 125.028 86.7385C127.882 85.6705 129.91 82.9291 129.91 79.7115V62.0862C129.91 58.8686 127.875 56.1339 125.028 55.0592V55.0659Z" fill="#003044"/>
<path d="M117.967 35.1963H36.0606C33.9224 35.1963 32.189 36.9231 32.189 39.0533V102.745C32.189 104.876 33.9224 106.602 36.0606 106.602H117.967C120.105 106.602 121.839 104.876 121.839 102.745V39.0533C121.839 36.9231 120.105 35.1963 117.967 35.1963Z" fill="#B7C5CD"/>
<path d="M83.873 106.609H70.1548V120.575H83.873V106.609Z" fill="#184663"/>
<path d="M83.873 106.609H70.1548V109.065H83.873V106.609Z" fill="#102F42"/>
<path d="M61.4209 111.337H92.6129C94.7911 111.337 96.5665 113.099 96.5665 115.276V118.915H57.4741V115.276C57.4741 113.106 59.2427 111.337 61.4277 111.337H61.4209Z" fill="#102F42"/>
<path d="M117.687 116.445H36.3473C34.209 116.445 32.4756 118.172 32.4756 120.302V189.845C32.4756 191.975 34.209 193.702 36.3473 193.702H117.687C119.825 193.702 121.558 191.975 121.558 189.845V120.302C121.558 118.172 119.825 116.445 117.687 116.445Z" fill="#B7C5CD"/>
<path d="M43.7697 38.7129H43.1893C40.6777 38.7129 38.6416 40.7413 38.6416 43.2434V98.6227C38.6416 101.125 40.6777 103.153 43.1893 103.153H43.7697C46.2813 103.153 48.3174 101.125 48.3174 98.6227V43.2434C48.3174 40.7413 46.2813 38.7129 43.7697 38.7129Z" fill="#CFD8DE"/>
<path d="M17.7127 192.599H6.58252C6.58252 149.179 32.2094 126.322 33.3019 125.37L40.6424 133.71L36.9756 129.547L40.656 133.703C40.6014 133.758 34.8178 138.914 29.1366 148.75C21.5639 161.859 17.7196 176.097 17.7196 192.599H17.7127Z" fill="#102F42"/>
<path d="M17.7196 191.56L6.58936 191.437C6.59618 190.784 6.60984 190.131 6.63033 189.492L17.7537 189.811C17.7401 190.389 17.7264 190.974 17.7196 191.56ZM19.2013 175.955L8.24865 173.975C8.36473 173.329 8.48764 172.683 8.61738 172.05L19.5291 174.247C19.413 174.812 19.3038 175.376 19.2013 175.955ZM23.3735 160.914L12.9602 156.996C13.1924 156.377 13.4314 155.771 13.6704 155.173L24.0017 159.295C23.79 159.826 23.5783 160.37 23.3666 160.914H23.3735ZM30.2291 146.915L20.7309 141.132C21.086 140.561 21.4342 140.003 21.7825 139.459L31.151 145.452C30.8437 145.928 30.5364 146.411 30.2291 146.915Z" fill="#184663"/>
<path d="M11.6082 205.259C18.0193 205.259 23.2164 200.082 23.2164 193.695C23.2164 187.308 18.0193 182.131 11.6082 182.131C5.19717 182.131 0 187.308 0 193.695C0 200.082 5.19717 205.259 11.6082 205.259Z" fill="#438BFD"/>
<path d="M121.839 39.0329V102.745C121.839 104.875 120.104 106.602 117.967 106.602H88.6187V35.1963H118.363C120.316 35.3936 121.839 37.0398 121.839 39.0329Z" fill="#ADBAC2"/>
<path d="M121.552 126.153C121.436 126.044 121.333 125.948 121.238 125.86C121.326 125.955 121.436 126.057 121.552 126.166V189.845C121.552 191.974 119.824 193.702 117.687 193.702H88.6187V116.452H117.687C119.824 116.452 121.552 118.173 121.552 120.309V126.153Z" fill="#ADBAC2"/>
<path d="M136.287 192.599H147.417C147.417 149.179 121.79 126.322 120.698 125.37L113.357 133.71L117.024 129.547L113.344 133.703C113.398 133.758 119.182 138.914 124.863 148.75C132.436 161.859 136.28 176.097 136.28 192.599H136.287Z" fill="#102F42"/>
<path d="M136.281 191.56L147.411 191.437C147.404 190.784 147.39 190.131 147.37 189.492L136.246 189.811C136.26 190.389 136.274 190.974 136.281 191.56ZM134.799 175.955L145.751 173.975C145.635 173.329 145.512 172.683 145.383 172.05L134.471 174.247C134.587 174.812 134.696 175.376 134.799 175.955ZM130.627 160.914L141.04 156.996C140.808 156.377 140.569 155.771 140.33 155.173L129.998 159.295C130.21 159.826 130.422 160.37 130.633 160.914H130.627ZM123.771 146.915L133.269 141.132C132.914 140.561 132.566 140.003 132.218 139.459L122.849 145.452C123.156 145.928 123.464 146.411 123.771 146.915Z" fill="#184663"/>
<path d="M11.6084 202.45C6.76028 202.45 2.82031 198.525 2.82031 193.695C2.82031 192.566 3.73531 191.654 4.86882 191.654C6.00233 191.654 6.91733 192.566 6.91733 193.695C6.91733 196.273 9.02046 198.368 11.6084 198.368C12.7419 198.368 13.6569 199.28 13.6569 200.409C13.6569 201.538 12.7419 202.45 11.6084 202.45Z" fill="#5D9BFD"/>
<path d="M142.392 205.259C148.803 205.259 154 200.082 154 193.695C154 187.308 148.803 182.131 142.392 182.131C135.981 182.131 130.784 187.308 130.784 193.695C130.784 200.082 135.981 205.259 142.392 205.259Z" fill="#438BFD"/>
<path d="M142.392 202.45C137.543 202.45 133.604 198.525 133.604 193.695C133.604 192.566 134.519 191.654 135.652 191.654C136.786 191.654 137.701 192.566 137.701 193.695C137.701 196.273 139.804 198.368 142.392 198.368C143.525 198.368 144.44 199.28 144.44 200.409C144.44 201.538 143.525 202.45 142.392 202.45Z" fill="#5D9BFD"/>
<path d="M77.0102 13.2986C74.0809 13.2986 71.6978 10.9245 71.6978 7.99946C71.6978 7.06071 72.4625 6.29883 73.4048 6.29883C74.3472 6.29883 75.1119 7.06071 75.1119 7.99946C75.1119 9.04705 75.9655 9.89736 77.0102 9.89736C77.9525 9.89736 78.7173 10.6592 78.7173 11.598C78.7173 12.5367 77.9525 13.2986 77.0102 13.2986Z" fill="#5D9BFD"/>
<path d="M43.1893 158.988H43.7629C46.2757 158.988 48.3174 161.022 48.3174 163.526V183.335C48.3174 185.838 46.2757 187.872 43.7629 187.872H43.1893C40.6764 187.872 38.6348 185.838 38.6348 183.335V163.526C38.6348 161.022 40.6764 158.988 43.1893 158.988Z" fill="#CFD8DE"/>
<path d="M114.286 57.6855H39.7408C37.6026 57.6855 35.8691 59.4124 35.8691 61.5426V86.2289C35.8691 88.3591 37.6026 90.086 39.7408 90.086H114.286C116.424 90.086 118.158 88.3591 118.158 86.2289V61.5426C118.158 59.4124 116.424 57.6855 114.286 57.6855Z" fill="#102F42"/>
<path d="M118.158 61.5426C118.158 59.4134 116.423 57.6855 114.286 57.6855H39.7408C37.6035 57.6855 35.8691 59.4134 35.8691 61.5426V73.8824H118.158V61.5426Z" fill="#184663"/>
<path d="M62.8275 79.7528C66.0331 79.7528 68.6317 77.164 68.6317 73.9706C68.6317 70.7772 66.0331 68.1885 62.8275 68.1885C59.622 68.1885 57.0234 70.7772 57.0234 73.9706C57.0234 77.164 59.622 79.7528 62.8275 79.7528Z" fill="#438BFD"/>
<path d="M91.0082 79.6639C94.2137 79.6639 96.8123 77.0751 96.8123 73.8818C96.8123 70.6884 94.2137 68.0996 91.0082 68.0996C87.8027 68.0996 85.2041 70.6884 85.2041 73.8818C85.2041 77.0751 87.8027 79.6639 91.0082 79.6639Z" fill="#438BFD"/>
<path d="M36.7026 143.016C44.2638 143.016 50.3934 136.91 50.3934 129.377C50.3934 121.845 44.2638 115.738 36.7026 115.738C29.1413 115.738 23.0117 121.845 23.0117 129.377C23.0117 136.91 29.1413 143.016 36.7026 143.016Z" fill="#438BFD"/>
<path d="M36.7023 139.336C31.1918 139.336 26.7056 134.866 26.7056 129.377C26.7056 128.247 27.6206 127.336 28.7541 127.336C29.8876 127.336 30.8026 128.247 30.8026 129.377C30.8026 132.621 33.452 135.254 36.7023 135.254C37.8358 135.254 38.7508 136.166 38.7508 137.295C38.7508 138.424 37.8358 139.336 36.7023 139.336Z" fill="#5D9BFD"/>
<path d="M119.305 143.016C126.866 143.016 132.996 136.91 132.996 129.377C132.996 121.845 126.866 115.738 119.305 115.738C111.744 115.738 105.614 121.845 105.614 129.377C105.614 136.91 111.744 143.016 119.305 143.016Z" fill="#438BFD"/>
<path d="M119.305 139.336C113.795 139.336 109.309 134.866 109.309 129.377C109.309 128.247 110.224 127.336 111.357 127.336C112.491 127.336 113.406 128.247 113.406 129.377C113.406 132.621 116.055 135.254 119.305 135.254C120.439 135.254 121.354 136.166 121.354 137.295C121.354 138.424 120.439 139.336 119.305 139.336Z" fill="#5D9BFD"/>
</g>
<defs>
<clipPath id="clip0_747_2218">
<rect width="154" height="232" fill="white"/>
</clipPath>
</defs>
</svg>
    