<svg width="162" height="56" viewBox="0 0 162 56" fill="none" xmlns="http://www.w3.org/2000/svg">
<g clip-path="url(#clip0_662_13933)">
<rect x="22.6455" y="7" width="121.935" height="43.75" fill="white"/>
<path d="M61.2881 26.0762C58.3887 26.0762 56.6572 28.3127 56.6572 32.0621C56.6572 35.8115 58.4659 38.0094 61.3749 38.0094C64.2839 38.0094 65.9633 35.8019 65.9633 32.1045C65.9633 28.4072 64.1758 26.0742 61.29 26.0742L61.2881 26.0762Z" fill="#E90563"/>
<path d="M84.2142 26.2861C82.8746 26.2861 81.7222 26.728 80.6064 27.6697V37.16C81.4519 37.7486 82.5734 38.0535 83.8764 38.0535C86.8182 38.0535 88.7215 35.7224 88.7215 32.1061C88.7215 28.4899 87.0383 26.2881 84.2161 26.2881L84.2142 26.2861Z" fill="#E90563"/>
<path d="M107.188 26.0762C104.289 26.0762 102.558 28.3127 102.558 32.0621C102.558 35.8115 104.366 38.0094 107.275 38.0094C110.184 38.0094 111.864 35.8019 111.864 32.1045C111.864 28.4072 110.076 26.0742 107.19 26.0742L107.188 26.0762Z" fill="#E90563"/>
<path d="M153.261 15.2504C156.591 14.8259 158.102 19.326 161.555 18.5483C161.706 18.5136 161.853 18.4711 161.997 18.419V0H14.1582V18.2762C13.913 18.3959 13.6563 18.4866 13.3841 18.5464C9.92692 19.3241 8.41741 14.824 5.08375 15.2485C1.90838 15.6518 1.09379 19.0404 0.616999 21.6474C-0.301832 26.6627 -0.241992 32.1392 1.1073 37.0773C1.47213 38.4165 2.07825 39.7442 3.13027 40.655C4.82316 42.1274 6.86351 41.8283 8.37881 40.3289C9.04477 39.6728 9.67212 38.9298 10.5311 38.5555C11.7376 38.0364 12.9884 38.2679 14.1562 38.843V56H161.999V38.6886C160.926 38.2294 159.801 38.0827 158.708 38.5555C157.849 38.9298 157.218 39.6728 156.552 40.3289C155.04 41.8283 152.994 42.1274 151.303 40.655C150.255 39.7442 149.649 38.4185 149.28 37.0773C147.931 32.1392 147.871 26.6627 148.794 21.6474C149.271 19.0404 150.087 15.6518 153.261 15.2485V15.2504ZM44.109 42.3126L34.662 30.8675V42.3126H28.6143V14.8838H34.662V26.3675L44.109 14.8838H51.4249L39.65 28.3686L51.5832 42.3126H44.109ZM61.2058 42.9533C55.0191 42.9533 50.8651 38.5941 50.8651 32.1064C50.8651 25.6187 55.2218 21.1766 61.4587 21.1766C67.6955 21.1766 71.7994 25.5531 71.7994 32.062C71.7994 38.5709 67.4427 42.9533 61.2058 42.9533ZM84.3426 42.9108C82.9644 42.9108 81.1634 42.6368 79.926 42.2412L74.7277 43.8815V13.1104L80.6036 11.4528V23.1931C82.2057 21.8655 83.8677 21.2171 85.6591 21.2171C91.0543 21.2171 94.6795 25.5068 94.6795 31.8922C94.6795 38.2776 90.3324 42.907 84.3387 42.907L84.3426 42.9108ZM107.107 42.9533C100.92 42.9533 96.7661 38.5941 96.7661 32.1064C96.7661 25.6187 101.123 21.1766 107.36 21.1766C113.597 21.1766 117.7 25.5531 117.7 32.062C117.7 38.5709 113.344 42.9533 107.107 42.9533ZM131.821 42.164C130.209 42.7178 128.806 42.9533 127.13 42.9533C124.673 42.9533 122.916 42.3686 121.764 41.176C120.621 39.995 120.109 38.2602 120.196 35.877L120.716 16.1053L126.42 14.5172L126.333 21.9851H131.865L131.715 26.9715H126.014L125.773 35.6069C125.752 36.3711 125.924 36.9422 126.275 37.3031C126.628 37.664 127.186 37.8434 127.937 37.8434C128.771 37.8434 129.672 37.6678 130.861 37.2684L131.338 37.1101L132.159 42.0482L131.815 42.164H131.821ZM136.78 21.9465C134.799 21.9465 133.191 20.3391 133.191 18.3592C133.191 16.3793 134.799 14.7526 136.78 14.7526C138.76 14.7526 140.378 16.3716 140.378 18.3592C140.378 20.3468 138.77 21.9465 136.78 21.9465Z" fill="#E90563"/>
<path d="M136.738 17.1416H136.232V18.3071L136.748 18.2975C137.254 18.2878 137.479 18.0698 137.479 17.6993C137.479 17.3288 137.242 17.1435 136.736 17.1435L136.738 17.1416Z" fill="#FB0081"/>
<path d="M136.781 15.0596C134.988 15.0596 133.522 16.5551 133.522 18.3574C133.522 20.1598 134.986 21.6456 136.781 21.6456C138.576 21.6456 140.049 20.1617 140.049 18.3574C140.049 16.5532 138.584 15.0596 136.781 15.0596ZM137.574 20.1926L136.843 18.9151L136.244 18.946V20.1926H135.306V16.4297H136.895C137.885 16.4297 138.431 16.8928 138.431 17.6357C138.431 18.1413 138.184 18.533 137.709 18.7183L138.607 20.1926H137.576H137.574Z" fill="#FB0081"/>
</g>
<defs>
<clipPath id="clip0_662_13933">
<rect width="162" height="56" fill="white"/>
</clipPath>
</defs>
</svg>
