<?xml version="1.0" encoding="utf-8"?>
<!-- Generator: Adobe Illustrator 21.0.0, SVG Export Plug-In . SVG Version: 6.00 Build 0)  -->
<svg version="1.1" id="Layer_1" xmlns="http://www.w3.org/2000/svg" xmlns:xlink="http://www.w3.org/1999/xlink" x="0px" y="0px"
	 viewBox="0 0 128 128" style="enable-background:new 0 0 128 128;" xml:space="preserve">
<title>UNDER CONSTRUCTION</title>
<path fill="currentColor" d="M28.8,49.9H54c1,0,1.8-0.8,1.8-1.8l0,0v-6.8c0-1-0.8-1.8-1.8-1.8H28.8c-1,0-1.8,0.8-1.8,1.8v6.8
	C27.1,49.2,27.9,49.9,28.8,49.9z M30.6,43.2h21.7v3.3H30.6V43.2z"/>
<path fill="currentColor" d="M28.6,66.3h8.2c1,0,1.8-0.8,1.8-1.8v-8.2c0-1-0.8-1.8-1.8-1.8h-8.2c-1,0-1.8,0.8-1.8,1.8v8.2C26.9,65.5,27.7,66.3,28.6,66.3
	z M30.4,58.1h4.7v4.7h-4.7L30.4,58.1z"/>
<path fill="currentColor" d="M54,54.6h-8.2c-1,0-1.8,0.8-1.8,1.8v8.2c0,1,0.8,1.8,1.8,1.8H54c1,0,1.8-0.8,1.8-1.8v-8.2C55.8,55.4,55,54.6,54,54.6z
	 M52.3,62.8h-4.7v-4.7h4.7V62.8z"/>
<path fill="currentColor" d="M36.9,81.4c1,0,1.8-0.8,1.8-1.8v-8.2c0-1-0.8-1.8-1.8-1.8h-8.2c-1,0-1.8,0.8-1.8,1.8v8.2c0,1,0.8,1.8,1.8,1.8L36.9,81.4z
	 M30.4,73.2h4.7v4.7h-4.7V73.2z"/>
<path fill="currentColor" d="M54,69.7h-8.2c-1,0-1.8,0.8-1.8,1.8v8.2c0,1,0.8,1.8,1.8,1.8H54c1,0,1.8-0.8,1.8-1.8v-8.2C55.8,70.5,55,69.7,54,69.7z
	 M52.3,77.9h-4.7v-4.7h4.7V77.9z"/>
<path fill="currentColor" d="M106.2,24.4h8.8c1,0,1.8-0.8,1.8-1.8l0,0V13c0-1-0.8-1.8-1.8-1.8H13c-1.3,0-1.8,0.7-1.8,1.8v9.7c0,1,0.8,1.8,1.8,1.8l0,0h63
	v39.9l-3.8,2.5c-0.5,0.3-0.8,0.9-0.8,1.5v9.1c0,1,0.8,1.8,1.8,1.8h9.3c1,0,1.8-0.8,1.8-1.8v-9.1c0-0.6-0.3-1.1-0.8-1.5l-3.8-2.5
	V24.4H93v88.8h-7v-5c0-1-0.8-1.8-1.8-1.8h-6v-3.3h6c1,0,1.8-0.8,1.8-1.8v-6.8c0-1-0.8-1.8-1.8-1.8l0,0h-6v-5c0-1-0.8-1.8-1.8-1.8
	H62.6V34.7c0-1-0.8-1.8-1.8-1.8H22c-1,0-1.8,0.8-1.8,1.8v78.6H13c-1,0-1.8,0.8-1.8,1.8s0.8,1.8,1.8,1.8h102c1,0,1.8-0.8,1.8-1.8
	s-0.8-1.8-1.8-1.8h-8.8V24.4z M80.6,75.6h-5.8v-6.4l2.9-1.9l2.9,1.9V75.6z M32.3,15.5l5.4,5.4H26.9L32.3,15.5z M22.7,20.2l-5.4-5.4
	h10.9L22.7,20.2z M36.6,14.8h10.9L42,20.2L36.6,14.8z M51.7,15.5l5.4,5.4H46.2L51.7,15.5z M55.9,14.8h10.9l-5.4,5.4L55.9,14.8z
	 M71,15.5l5.4,5.4H65.6L71,15.5z M75.2,14.8h10.9l-5.4,5.4L75.2,14.8z M91.1,14.8H93v6.2h-8.1L91.1,14.8z M96.5,14.8h6.2v6.2h-6.2
	V14.8z M96.5,37.8V26.9l5.4,5.4L96.5,37.8z M102.7,36.6v10.9L97.2,42L102.7,36.6z M101.9,51.7l-5.4,5.4V46.2L101.9,51.7z
	 M102.7,55.9v10.9l-5.4-5.4L102.7,55.9z M101.9,71l-5.4,5.4V65.6L101.9,71z M97.2,80.7l5.4-5.4v10.9L97.2,80.7z M101.9,90.3
	l-5.4,5.4V84.9L101.9,90.3z M102.7,28.1L99,24.4h3.7V28.1z M113.3,20.9h-7.1v-6.2h7.1V20.9z M14.8,17.2l3.7,3.7h-3.7V17.2z
	 M74.7,106.5H62.6v-3.3h12.1L74.7,106.5z M66.9,99.7h-4.3v-3.3h4.3V99.7z M62.6,110h4.3v3.3h-4.3V110z M82.5,99.7H70.4v-3.3h12.1
	V99.7z M74.7,89.6v3.3H62.6v-3.3H74.7z M23.8,36.4h35.4v76.8h-7.4V90.1c0-1-0.8-1.8-1.8-1.8H32.9c-1,0-1.8,0.8-1.8,1.8v23.2h-7.4
	L23.8,36.4z M48.2,113.3H34.7V91.8h13.6V113.3z M70.4,113.3V110h12.1v3.3H70.4z M96.5,113.3v-12.5l6.2-6.2v18.7H96.5z"/>
</svg>
