<svg width="120" height="120" viewBox="0 0 120 120" fill="none" xmlns="http://www.w3.org/2000/svg">
<path d="M120 0H0V49.5991C0 51.4229 1.48018 52.9031 3.30396 52.9031C5.12775 52.9031 6.60793 51.4229 6.60793 49.5991V6.60793H113.392V105.463H77.8678L80.5507 102.78C81.8458 101.485 81.8458 99.3965 80.5507 98.1013C79.2555 96.8062 77.1674 96.8062 75.8722 98.1013L65.4053 108.568L75.859 119.022C76.5066 119.67 77.3524 119.987 78.1982 119.987C79.0441 119.987 79.8899 119.67 80.5374 119.022C81.8326 117.727 81.8326 115.639 80.5374 114.344L78.2511 112.057H120V0Z" fill="white"/>
<path d="M48.8533 60H11.1467C4.99053 60 0 64.9905 0 71.1467V108.853C0 115.009 4.99053 120 11.1467 120H48.8533C55.0095 120 60 115.009 60 108.853V71.1467C60 64.9905 55.0095 60 48.8533 60Z" fill="#5CD033"/>
<path d="M9.38712 94.3736L13.1605 95.5602C13.9205 97.8536 15.1338 99.9336 16.6938 101.707L15.8138 105.56C15.7871 105.734 15.8671 105.907 16.0271 105.987L23.0271 110.067C23.1738 110.16 23.3738 110.147 23.5071 110.04L26.4271 107.374C27.5605 107.6 28.7338 107.734 29.9338 107.734C31.1471 107.734 32.3205 107.614 33.4671 107.4L36.3605 110.094C36.4938 110.2 36.6938 110.214 36.8405 110.134L43.8805 106.107C44.0271 106.014 44.1205 105.854 44.0938 105.68L43.2405 101.8C44.8005 100.054 46.0271 97.9869 46.8005 95.7202L50.5871 94.5602C50.7471 94.4936 50.8538 94.3336 50.8538 94.1602L50.8805 86.0536C50.8805 85.8802 50.7738 85.7202 50.6138 85.6536L46.8405 84.4536C46.0938 82.1869 44.8938 80.1202 43.3605 78.3602L44.2671 74.4669C44.2938 74.2936 44.2138 74.1202 44.0538 74.0402L37.0538 69.9602C36.9071 69.8669 36.7071 69.8802 36.5738 69.9869L33.6405 72.6536C32.4938 72.4136 31.2938 72.2802 30.0805 72.2802C28.8671 72.2802 27.6805 72.4002 26.5471 72.6269L23.6405 69.9469C23.5071 69.8402 23.3071 69.8269 23.1605 69.9069L16.1205 73.9336C15.9738 74.0269 15.8805 74.1869 15.9071 74.3602L16.7738 78.2402C15.2138 79.9869 13.9871 82.0536 13.2138 84.3202L9.42712 85.4936C9.26712 85.5602 9.16046 85.7202 9.16046 85.8936L9.13379 94.0002C9.13379 94.1736 9.24046 94.3336 9.40046 94.4002L9.38712 94.3736Z" fill="#EAF6FF"/>
<path d="M37.7332 94.507L37.7732 85.547L30.0399 81.0537L22.2666 85.4937L22.2266 94.4404L29.9599 98.947L37.7332 94.507Z" fill="#5CD033"/>
</svg>
