<svg width="120" height="120" viewBox="0 0 120 120" fill="none" xmlns="http://www.w3.org/2000/svg">
<g clip-path="url(#clip0_662_17077)">
<path d="M73.1069 110.805H46.8936L48.4136 94.0059H71.5869L73.1069 110.805Z" fill="#BA044F"/>
<path d="M113.627 0H6.37333C2.85333 0 0 3.3144 0 7.37721V77.7013H120V7.37721C120 3.3144 117.16 0 113.627 0Z" fill="#EAF6FF"/>
<path d="M90.6663 115.403C90.6663 116.673 90.1597 117.822 89.3197 118.651C88.493 119.493 87.3463 120 86.0797 120H33.9197C31.3863 120 29.333 117.942 29.333 115.403C29.333 114.133 29.8397 112.984 30.6797 112.155C31.5063 111.314 32.653 110.806 33.9197 110.806H86.0797C88.613 110.806 90.6663 112.864 90.6663 115.403Z" fill="#E90563"/>
<path d="M27.9468 64.5236L33.8268 66.3679C35.0002 69.9362 36.8935 73.1705 39.3068 75.9369L37.9335 81.9376C37.8935 82.2049 38.0268 82.4722 38.2535 82.6058L49.1335 88.9673C49.3735 89.101 49.6668 89.0876 49.8802 88.9139L54.4135 84.7709C56.1735 85.1317 58.0002 85.3322 59.8668 85.3322C61.7468 85.3322 63.5868 85.1584 65.3602 84.7976L69.8668 88.994C70.0802 89.1678 70.3735 89.1811 70.6135 89.0475L81.5468 82.7795C81.7868 82.6459 81.9202 82.3786 81.8802 82.1113L80.5468 76.0572C82.9735 73.3308 84.8668 70.1233 86.0668 66.5817L91.9602 64.7642C92.2135 64.6573 92.3735 64.4167 92.3868 64.1494L92.4402 51.5199C92.4402 51.2526 92.2802 50.9987 92.0268 50.8918L86.1468 49.0208C84.9868 45.4925 83.1202 42.2851 80.7335 39.5453L82.1335 33.4778C82.1735 33.2105 82.0402 32.9433 81.8135 32.8096L70.9335 26.4481C70.6935 26.3145 70.4002 26.3278 70.1868 26.5016L65.6268 30.6446C63.8402 30.2704 61.9868 30.0699 60.0935 30.0565C58.2135 30.0565 56.3735 30.2303 54.5868 30.5911L50.0668 26.408C49.8535 26.2343 49.5602 26.2209 49.3202 26.3546L38.3868 32.6225C38.1468 32.7562 38.0268 33.0234 38.0535 33.2907L39.4002 39.3315C36.9735 42.0579 35.0802 45.2653 33.8802 48.8069L27.9868 50.6379C27.7335 50.7448 27.5735 50.9854 27.5602 51.2526L27.5068 63.8821C27.5068 64.1494 27.6668 64.4033 27.9202 64.5102L27.9468 64.5236Z" fill="#17435C"/>
<path d="M72.0006 64.7241L72.0539 50.7849L60.0406 43.7686L47.9739 50.6914L47.9072 64.6306L59.9339 71.6469L72.0006 64.7241Z" fill="#EAF6FF"/>
<path d="M0 86.6287C0 90.6915 2.85333 94.0059 6.37333 94.0059H113.627C117.16 94.0059 120 90.6915 120 86.6287V77.7012H0V86.6287Z" fill="#E90563"/>
</g>
<defs>
<clipPath id="clip0_662_17077">
<rect width="120" height="120" fill="white"/>
</clipPath>
</defs>
</svg>
