<svg width="150" height="127" viewBox="0 0 150 127" fill="none" xmlns="http://www.w3.org/2000/svg">
<g clip-path="url(#clip0_662_17070)">
<path d="M121.115 59.8549L79.1823 81.5661L75 83.7341L70.8333 81.5661L28.9004 59.8549L75 35.9756L121.115 59.8549Z" fill="#E90563"/>
<path d="M121.256 59.9493V103.199L121.1 103.278L91.0871 118.831C85.7143 121.548 80.3572 124.266 74.9844 127C74.9844 121.768 74.9844 116.537 74.9844 111.305V83.7343L79.1667 81.5663C93.2018 74.3554 107.221 67.1445 121.256 59.9336V59.9493Z" fill="#33C400"/>
<path d="M86.8418 10.5415L77.224 0.879784C76.0492 -0.29847 73.9658 -0.29847 72.791 0.879784L63.1576 10.5415C61.9358 11.7668 61.9358 13.762 63.1576 14.9874C63.7685 15.6001 64.5673 15.9143 65.3662 15.9143C66.1651 15.9143 66.964 15.6001 67.5749 14.9874L71.8512 10.6986V37.9241C71.8512 39.6522 73.2609 41.0661 74.984 41.0661C76.7071 41.0661 78.1168 39.6522 78.1168 37.9241V10.6829L82.4088 14.9874C83.6306 16.2128 85.62 16.2128 86.8418 14.9874C88.0636 13.762 88.0636 11.7668 86.8418 10.5415Z" fill="white"/>
<path d="M28.7441 59.9493V103.199L28.9008 103.278L58.9133 118.831C64.2861 121.548 69.6433 124.266 75.0161 127C75.0161 121.768 75.0161 116.537 75.0161 111.305V83.7343L70.8337 81.5663C56.7987 74.3554 42.7792 67.1445 28.7441 59.9336V59.9493Z" fill="#FCBC40"/>
<path d="M32.5342 100.277C31.6883 98.7686 29.7617 98.2345 28.2579 99.0828L8.31742 110.394L9.80551 105.037C10.2754 103.372 9.2886 101.628 7.6282 101.172C5.95213 100.717 4.22907 101.691 3.77481 103.356L0.250377 116.034L0.1094 116.537C-0.360525 118.202 0.626317 119.946 2.28672 120.401L15.4133 124.046C15.6952 124.125 15.9772 124.156 16.2591 124.156C17.6376 124.156 18.8907 123.245 19.2823 121.847C19.7523 120.181 18.7654 118.438 17.105 117.982L10.7767 116.222L31.3594 104.55C32.8632 103.702 33.3957 101.785 32.5499 100.261L32.5342 100.277Z" fill="white"/>
<path d="M149.891 116.537L149.75 116.034L146.241 103.372C145.787 101.707 144.048 100.733 142.387 101.188C140.727 101.66 139.74 103.388 140.21 105.053L141.698 110.41L121.758 99.0988C120.254 98.2505 118.343 98.7689 117.481 100.293C116.636 101.801 117.152 103.718 118.672 104.582L139.255 116.254L132.926 118.014C131.266 118.469 130.279 120.213 130.749 121.878C131.141 123.277 132.394 124.188 133.772 124.188C134.054 124.188 134.336 124.156 134.618 124.078L147.745 120.433C149.405 119.977 150.392 118.234 149.922 116.568L149.891 116.537Z" fill="white"/>
</g>
<defs>
<clipPath id="clip0_662_17070">
<rect width="150" height="127" fill="white"/>
</clipPath>
</defs>
</svg>
